<svg width="1440" height="1024" viewBox="0 0 1440 1024" fill="none" xmlns="http://www.w3.org/2000/svg">
<rect width="1440" height="1024" fill="white"/>
<rect width="1440" height="1024" fill="#FCF7F7"/>
<rect width="324" height="1024" fill="#1D4A78"/>
<path d="M30.85 234.5H37.975C39.825 234.5 41.4583 234.875 42.875 235.625C44.2917 236.358 45.3917 237.392 46.175 238.725C46.9583 240.042 47.35 241.55 47.35 243.25C47.35 244.95 46.9583 246.467 46.175 247.8C45.3917 249.117 44.2917 250.15 42.875 250.9C41.4583 251.633 39.825 252 37.975 252H30.85V234.5ZM37.875 250.4C39.4083 250.4 40.75 250.1 41.9 249.5C43.05 248.883 43.9417 248.042 44.575 246.975C45.2083 245.892 45.525 244.65 45.525 243.25C45.525 241.85 45.2083 240.617 44.575 239.55C43.9417 238.467 43.05 237.625 41.9 237.025C40.75 236.408 39.4083 236.1 37.875 236.1H32.7V250.4H37.875ZM55.7293 238.75C57.446 238.75 58.7626 239.183 59.6793 240.05C60.596 240.9 61.0543 242.167 61.0543 243.85V252H59.3543V249.95C58.9543 250.633 58.3626 251.167 57.5793 251.55C56.8126 251.933 55.896 252.125 54.8293 252.125C53.3626 252.125 52.196 251.775 51.3293 251.075C50.4626 250.375 50.0293 249.45 50.0293 248.3C50.0293 247.183 50.4293 246.283 51.2293 245.6C52.046 244.917 53.3376 244.575 55.1043 244.575H59.2793V243.775C59.2793 242.642 58.9626 241.783 58.3293 241.2C57.696 240.6 56.771 240.3 55.5543 240.3C54.721 240.3 53.921 240.442 53.1543 240.725C52.3876 240.992 51.7293 241.367 51.1793 241.85L50.3793 240.525C51.046 239.958 51.846 239.525 52.7793 239.225C53.7126 238.908 54.696 238.75 55.7293 238.75ZM55.1043 250.725C56.1043 250.725 56.9626 250.5 57.6793 250.05C58.396 249.583 58.9293 248.917 59.2793 248.05V245.9H55.1543C52.9043 245.9 51.7793 246.683 51.7793 248.25C51.7793 249.017 52.071 249.625 52.6543 250.075C53.2376 250.508 54.0543 250.725 55.1043 250.725ZM69.4004 252.125C68.3337 252.125 67.3087 251.975 66.3254 251.675C65.3587 251.358 64.6004 250.967 64.0504 250.5L64.8504 249.1C65.4004 249.533 66.0921 249.892 66.9254 250.175C67.7587 250.442 68.6254 250.575 69.5254 250.575C70.7254 250.575 71.6087 250.392 72.1754 250.025C72.7587 249.642 73.0504 249.108 73.0504 248.425C73.0504 247.942 72.8921 247.567 72.5754 247.3C72.2587 247.017 71.8587 246.808 71.3754 246.675C70.8921 246.525 70.2504 246.383 69.4504 246.25C68.3837 246.05 67.5254 245.85 66.8754 245.65C66.2254 245.433 65.6671 245.075 65.2004 244.575C64.7504 244.075 64.5254 243.383 64.5254 242.5C64.5254 241.4 64.9837 240.5 65.9004 239.8C66.8171 239.1 68.0921 238.75 69.7254 238.75C70.5754 238.75 71.4254 238.867 72.2754 239.1C73.1254 239.317 73.8254 239.608 74.3754 239.975L73.6004 241.4C72.5171 240.65 71.2254 240.275 69.7254 240.275C68.5921 240.275 67.7337 240.475 67.1504 240.875C66.5837 241.275 66.3004 241.8 66.3004 242.45C66.3004 242.95 66.4587 243.35 66.7754 243.65C67.1087 243.95 67.5171 244.175 68.0004 244.325C68.4837 244.458 69.1504 244.6 70.0004 244.75C71.0504 244.95 71.8921 245.15 72.5254 245.35C73.1587 245.55 73.7004 245.892 74.1504 246.375C74.6004 246.858 74.8254 247.525 74.8254 248.375C74.8254 249.525 74.3421 250.442 73.3754 251.125C72.4254 251.792 71.1004 252.125 69.4004 252.125ZM84.8068 238.75C86.4568 238.75 87.7652 239.233 88.7318 240.2C89.7152 241.15 90.2068 242.542 90.2068 244.375V252H88.4318V244.55C88.4318 243.183 88.0902 242.142 87.4068 241.425C86.7235 240.708 85.7485 240.35 84.4818 240.35C83.0652 240.35 81.9402 240.775 81.1068 241.625C80.2902 242.458 79.8818 243.617 79.8818 245.1V252H78.1068V233.45H79.8818V241.15C80.3652 240.383 81.0318 239.792 81.8818 239.375C82.7318 238.958 83.7068 238.75 84.8068 238.75ZM101.801 238.75C103.034 238.75 104.151 239.033 105.151 239.6C106.151 240.15 106.934 240.933 107.501 241.95C108.067 242.967 108.351 244.125 108.351 245.425C108.351 246.725 108.067 247.883 107.501 248.9C106.934 249.917 106.151 250.708 105.151 251.275C104.151 251.842 103.034 252.125 101.801 252.125C100.701 252.125 99.7091 251.892 98.8258 251.425C97.9591 250.958 97.2591 250.283 96.7258 249.4V252H95.0258V233.45H96.8008V241.35C97.3508 240.5 98.0508 239.858 98.9008 239.425C99.7674 238.975 100.734 238.75 101.801 238.75ZM101.676 250.55C102.592 250.55 103.426 250.342 104.176 249.925C104.926 249.492 105.509 248.883 105.926 248.1C106.359 247.317 106.576 246.425 106.576 245.425C106.576 244.425 106.359 243.533 105.926 242.75C105.509 241.967 104.926 241.367 104.176 240.95C103.426 240.517 102.592 240.3 101.676 240.3C100.742 240.3 99.9008 240.517 99.1508 240.95C98.4174 241.367 97.8341 241.967 97.4008 242.75C96.9841 243.533 96.7758 244.425 96.7758 245.425C96.7758 246.425 96.9841 247.317 97.4008 248.1C97.8341 248.883 98.4174 249.492 99.1508 249.925C99.9008 250.342 100.742 250.55 101.676 250.55ZM117.344 252.125C116.077 252.125 114.936 251.842 113.919 251.275C112.902 250.692 112.102 249.892 111.519 248.875C110.936 247.858 110.644 246.708 110.644 245.425C110.644 244.142 110.936 242.992 111.519 241.975C112.102 240.958 112.902 240.167 113.919 239.6C114.936 239.033 116.077 238.75 117.344 238.75C118.611 238.75 119.752 239.033 120.769 239.6C121.786 240.167 122.577 240.958 123.144 241.975C123.727 242.992 124.019 244.142 124.019 245.425C124.019 246.708 123.727 247.858 123.144 248.875C122.577 249.892 121.786 250.692 120.769 251.275C119.752 251.842 118.611 252.125 117.344 252.125ZM117.344 250.55C118.277 250.55 119.111 250.342 119.844 249.925C120.594 249.492 121.177 248.883 121.594 248.1C122.011 247.317 122.219 246.425 122.219 245.425C122.219 244.425 122.011 243.533 121.594 242.75C121.177 241.967 120.594 241.367 119.844 240.95C119.111 240.517 118.277 240.3 117.344 240.3C116.411 240.3 115.569 240.517 114.819 240.95C114.086 241.367 113.502 241.967 113.069 242.75C112.652 243.533 112.444 244.425 112.444 245.425C112.444 246.425 112.652 247.317 113.069 248.1C113.502 248.883 114.086 249.492 114.819 249.925C115.569 250.342 116.411 250.55 117.344 250.55ZM132.17 238.75C133.886 238.75 135.203 239.183 136.12 240.05C137.036 240.9 137.495 242.167 137.495 243.85V252H135.795V249.95C135.395 250.633 134.803 251.167 134.02 251.55C133.253 251.933 132.336 252.125 131.27 252.125C129.803 252.125 128.636 251.775 127.77 251.075C126.903 250.375 126.47 249.45 126.47 248.3C126.47 247.183 126.87 246.283 127.67 245.6C128.486 244.917 129.778 244.575 131.545 244.575H135.72V243.775C135.72 242.642 135.403 241.783 134.77 241.2C134.136 240.6 133.211 240.3 131.995 240.3C131.161 240.3 130.361 240.442 129.595 240.725C128.828 240.992 128.17 241.367 127.62 241.85L126.82 240.525C127.486 239.958 128.286 239.525 129.22 239.225C130.153 238.908 131.136 238.75 132.17 238.75ZM131.545 250.725C132.545 250.725 133.403 250.5 134.12 250.05C134.836 249.583 135.37 248.917 135.72 248.05V245.9H131.595C129.345 245.9 128.22 246.683 128.22 248.25C128.22 249.017 128.511 249.625 129.095 250.075C129.678 250.508 130.495 250.725 131.545 250.725ZM144.016 241.425C144.432 240.542 145.049 239.875 145.866 239.425C146.699 238.975 147.724 238.75 148.941 238.75V240.475L148.516 240.45C147.132 240.45 146.049 240.875 145.266 241.725C144.482 242.575 144.091 243.767 144.091 245.3V252H142.316V238.85H144.016V241.425ZM164.033 233.45V252H162.333V249.4C161.799 250.283 161.091 250.958 160.208 251.425C159.341 251.892 158.358 252.125 157.258 252.125C156.024 252.125 154.908 251.842 153.908 251.275C152.908 250.708 152.124 249.917 151.558 248.9C150.991 247.883 150.708 246.725 150.708 245.425C150.708 244.125 150.991 242.967 151.558 241.95C152.124 240.933 152.908 240.15 153.908 239.6C154.908 239.033 156.024 238.75 157.258 238.75C158.324 238.75 159.283 238.975 160.133 239.425C160.999 239.858 161.708 240.5 162.258 241.35V233.45H164.033ZM157.408 250.55C158.324 250.55 159.149 250.342 159.883 249.925C160.633 249.492 161.216 248.883 161.633 248.1C162.066 247.317 162.283 246.425 162.283 245.425C162.283 244.425 162.066 243.533 161.633 242.75C161.216 241.967 160.633 241.367 159.883 240.95C159.149 240.517 158.324 240.3 157.408 240.3C156.474 240.3 155.633 240.517 154.883 240.95C154.149 241.367 153.566 241.967 153.133 242.75C152.716 243.533 152.508 244.425 152.508 245.425C152.508 246.425 152.716 247.317 153.133 248.1C153.566 248.883 154.149 249.492 154.883 249.925C155.633 250.342 156.474 250.55 157.408 250.55Z" fill="#EE8E39"/>
<path d="M41.825 329.325H32.075L29.975 334H28.05L36.05 316.5H37.875L45.875 334H43.925L41.825 329.325ZM41.15 327.825L36.95 318.425L32.75 327.825H41.15ZM53.7229 334.125C52.4229 334.125 51.2562 333.842 50.2229 333.275C49.2062 332.708 48.4062 331.917 47.8229 330.9C47.2395 329.867 46.9479 328.708 46.9479 327.425C46.9479 326.142 47.2395 324.992 47.8229 323.975C48.4062 322.958 49.2062 322.167 50.2229 321.6C51.2562 321.033 52.4229 320.75 53.7229 320.75C54.8562 320.75 55.8645 320.975 56.7479 321.425C57.6479 321.858 58.3562 322.5 58.8729 323.35L57.5479 324.25C57.1145 323.6 56.5645 323.117 55.8979 322.8C55.2312 322.467 54.5062 322.3 53.7229 322.3C52.7729 322.3 51.9145 322.517 51.1479 322.95C50.3979 323.367 49.8062 323.967 49.3729 324.75C48.9562 325.533 48.7479 326.425 48.7479 327.425C48.7479 328.442 48.9562 329.342 49.3729 330.125C49.8062 330.892 50.3979 331.492 51.1479 331.925C51.9145 332.342 52.7729 332.55 53.7229 332.55C54.5062 332.55 55.2312 332.392 55.8979 332.075C56.5645 331.758 57.1145 331.275 57.5479 330.625L58.8729 331.525C58.3562 332.375 57.6479 333.025 56.7479 333.475C55.8479 333.908 54.8395 334.125 53.7229 334.125ZM67.59 334.125C66.29 334.125 65.1234 333.842 64.09 333.275C63.0734 332.708 62.2734 331.917 61.69 330.9C61.1067 329.867 60.815 328.708 60.815 327.425C60.815 326.142 61.1067 324.992 61.69 323.975C62.2734 322.958 63.0734 322.167 64.09 321.6C65.1234 321.033 66.29 320.75 67.59 320.75C68.7234 320.75 69.7317 320.975 70.615 321.425C71.515 321.858 72.2234 322.5 72.74 323.35L71.415 324.25C70.9817 323.6 70.4317 323.117 69.765 322.8C69.0984 322.467 68.3734 322.3 67.59 322.3C66.64 322.3 65.7817 322.517 65.015 322.95C64.265 323.367 63.6734 323.967 63.24 324.75C62.8234 325.533 62.615 326.425 62.615 327.425C62.615 328.442 62.8234 329.342 63.24 330.125C63.6734 330.892 64.265 331.492 65.015 331.925C65.7817 332.342 66.64 332.55 67.59 332.55C68.3734 332.55 69.0984 332.392 69.765 332.075C70.4317 331.758 70.9817 331.275 71.415 330.625L72.74 331.525C72.2234 332.375 71.515 333.025 70.615 333.475C69.715 333.908 68.7067 334.125 67.59 334.125ZM81.3822 334.125C80.1156 334.125 78.9739 333.842 77.9572 333.275C76.9406 332.692 76.1406 331.892 75.5572 330.875C74.9739 329.858 74.6822 328.708 74.6822 327.425C74.6822 326.142 74.9739 324.992 75.5572 323.975C76.1406 322.958 76.9406 322.167 77.9572 321.6C78.9739 321.033 80.1156 320.75 81.3822 320.75C82.6489 320.75 83.7906 321.033 84.8072 321.6C85.8239 322.167 86.6156 322.958 87.1822 323.975C87.7656 324.992 88.0572 326.142 88.0572 327.425C88.0572 328.708 87.7656 329.858 87.1822 330.875C86.6156 331.892 85.8239 332.692 84.8072 333.275C83.7906 333.842 82.6489 334.125 81.3822 334.125ZM81.3822 332.55C82.3156 332.55 83.1489 332.342 83.8822 331.925C84.6322 331.492 85.2156 330.883 85.6322 330.1C86.0489 329.317 86.2572 328.425 86.2572 327.425C86.2572 326.425 86.0489 325.533 85.6322 324.75C85.2156 323.967 84.6322 323.367 83.8822 322.95C83.1489 322.517 82.3156 322.3 81.3822 322.3C80.4489 322.3 79.6072 322.517 78.8572 322.95C78.1239 323.367 77.5406 323.967 77.1072 324.75C76.6906 325.533 76.4822 326.425 76.4822 327.425C76.4822 328.425 76.6906 329.317 77.1072 330.1C77.5406 330.883 78.1239 331.492 78.8572 331.925C79.6072 332.342 80.4489 332.55 81.3822 332.55ZM103.531 320.85V334H101.831V331.6C101.364 332.4 100.723 333.025 99.9061 333.475C99.0894 333.908 98.1561 334.125 97.1061 334.125C95.3894 334.125 94.0311 333.65 93.0311 332.7C92.0477 331.733 91.5561 330.325 91.5561 328.475V320.85H93.3311V328.3C93.3311 329.683 93.6727 330.733 94.3561 331.45C95.0394 332.167 96.0144 332.525 97.2811 332.525C98.6644 332.525 99.7561 332.108 100.556 331.275C101.356 330.425 101.756 329.25 101.756 327.75V320.85H103.531ZM115.202 320.75C116.852 320.75 118.161 321.233 119.127 322.2C120.111 323.15 120.602 324.542 120.602 326.375V334H118.827V326.55C118.827 325.183 118.486 324.142 117.802 323.425C117.119 322.708 116.144 322.35 114.877 322.35C113.461 322.35 112.336 322.775 111.502 323.625C110.686 324.458 110.277 325.617 110.277 327.1V334H108.502V320.85H110.202V323.275C110.686 322.475 111.352 321.858 112.202 321.425C113.069 320.975 114.069 320.75 115.202 320.75ZM132.346 333.2C132.013 333.5 131.596 333.733 131.096 333.9C130.613 334.05 130.105 334.125 129.571 334.125C128.338 334.125 127.388 333.792 126.721 333.125C126.055 332.458 125.721 331.517 125.721 330.3V322.35H123.371V320.85H125.721V317.975H127.496V320.85H131.496V322.35H127.496V330.2C127.496 330.983 127.688 331.583 128.071 332C128.471 332.4 129.038 332.6 129.771 332.6C130.138 332.6 130.488 332.542 130.821 332.425C131.171 332.308 131.471 332.142 131.721 331.925L132.346 333.2ZM139.103 334.125C138.036 334.125 137.011 333.975 136.028 333.675C135.061 333.358 134.303 332.967 133.753 332.5L134.553 331.1C135.103 331.533 135.794 331.892 136.628 332.175C137.461 332.442 138.328 332.575 139.228 332.575C140.428 332.575 141.311 332.392 141.878 332.025C142.461 331.642 142.753 331.108 142.753 330.425C142.753 329.942 142.594 329.567 142.278 329.3C141.961 329.017 141.561 328.808 141.078 328.675C140.594 328.525 139.953 328.383 139.153 328.25C138.086 328.05 137.228 327.85 136.578 327.65C135.928 327.433 135.369 327.075 134.903 326.575C134.453 326.075 134.228 325.383 134.228 324.5C134.228 323.4 134.686 322.5 135.603 321.8C136.519 321.1 137.794 320.75 139.428 320.75C140.278 320.75 141.128 320.867 141.978 321.1C142.828 321.317 143.528 321.608 144.078 321.975L143.303 323.4C142.219 322.65 140.928 322.275 139.428 322.275C138.294 322.275 137.436 322.475 136.853 322.875C136.286 323.275 136.003 323.8 136.003 324.45C136.003 324.95 136.161 325.35 136.478 325.65C136.811 325.95 137.219 326.175 137.703 326.325C138.186 326.458 138.853 326.6 139.703 326.75C140.753 326.95 141.594 327.15 142.228 327.35C142.861 327.55 143.403 327.892 143.853 328.375C144.303 328.858 144.528 329.525 144.528 330.375C144.528 331.525 144.044 332.442 143.078 333.125C142.128 333.792 140.803 334.125 139.103 334.125Z" fill="#EE8E39"/>
<path d="M42.8 416L38.8 410.375C38.35 410.425 37.8833 410.45 37.4 410.45H32.7V416H30.85V398.5H37.4C39.6333 398.5 41.3833 399.033 42.65 400.1C43.9167 401.167 44.55 402.633 44.55 404.5C44.55 405.867 44.2 407.025 43.5 407.975C42.8167 408.908 41.8333 409.583 40.55 410L44.825 416H42.8ZM37.35 408.875C39.0833 408.875 40.4083 408.492 41.325 407.725C42.2417 406.958 42.7 405.883 42.7 404.5C42.7 403.083 42.2417 402 41.325 401.25C40.4083 400.483 39.0833 400.1 37.35 400.1H32.7V408.875H37.35ZM59.9914 409.975H48.9914C49.0914 411.342 49.6164 412.45 50.5664 413.3C51.5164 414.133 52.7164 414.55 54.1664 414.55C54.9831 414.55 55.7331 414.408 56.4164 414.125C57.0997 413.825 57.6914 413.392 58.1914 412.825L59.1914 413.975C58.6081 414.675 57.8747 415.208 56.9914 415.575C56.1247 415.942 55.1664 416.125 54.1164 416.125C52.7664 416.125 51.5664 415.842 50.5164 415.275C49.4831 414.692 48.6747 413.892 48.0914 412.875C47.5081 411.858 47.2164 410.708 47.2164 409.425C47.2164 408.142 47.4914 406.992 48.0414 405.975C48.6081 404.958 49.3747 404.167 50.3414 403.6C51.3247 403.033 52.4247 402.75 53.6414 402.75C54.8581 402.75 55.9497 403.033 56.9164 403.6C57.8831 404.167 58.6414 404.958 59.1914 405.975C59.7414 406.975 60.0164 408.125 60.0164 409.425L59.9914 409.975ZM53.6414 404.275C52.3747 404.275 51.3081 404.683 50.4414 405.5C49.5914 406.3 49.1081 407.35 48.9914 408.65H58.3164C58.1997 407.35 57.7081 406.3 56.8414 405.5C55.9914 404.683 54.9247 404.275 53.6414 404.275ZM69.0793 416.125C67.7793 416.125 66.6126 415.842 65.5793 415.275C64.5626 414.708 63.7626 413.917 63.1793 412.9C62.596 411.867 62.3043 410.708 62.3043 409.425C62.3043 408.142 62.596 406.992 63.1793 405.975C63.7626 404.958 64.5626 404.167 65.5793 403.6C66.6126 403.033 67.7793 402.75 69.0793 402.75C70.2126 402.75 71.221 402.975 72.1043 403.425C73.0043 403.858 73.7126 404.5 74.2293 405.35L72.9043 406.25C72.471 405.6 71.921 405.117 71.2543 404.8C70.5876 404.467 69.8626 404.3 69.0793 404.3C68.1293 404.3 67.271 404.517 66.5043 404.95C65.7543 405.367 65.1626 405.967 64.7293 406.75C64.3126 407.533 64.1043 408.425 64.1043 409.425C64.1043 410.442 64.3126 411.342 64.7293 412.125C65.1626 412.892 65.7543 413.492 66.5043 413.925C67.271 414.342 68.1293 414.55 69.0793 414.55C69.8626 414.55 70.5876 414.392 71.2543 414.075C71.921 413.758 72.471 413.275 72.9043 412.625L74.2293 413.525C73.7126 414.375 73.0043 415.025 72.1043 415.475C71.2043 415.908 70.196 416.125 69.0793 416.125ZM89.5662 402.85V416H87.8662V413.6C87.3995 414.4 86.7579 415.025 85.9412 415.475C85.1245 415.908 84.1912 416.125 83.1412 416.125C81.4245 416.125 80.0662 415.65 79.0662 414.7C78.0829 413.733 77.5912 412.325 77.5912 410.475V402.85H79.3662V410.3C79.3662 411.683 79.7079 412.733 80.3912 413.45C81.0745 414.167 82.0495 414.525 83.3162 414.525C84.6995 414.525 85.7912 414.108 86.5912 413.275C87.3912 412.425 87.7912 411.25 87.7912 409.75V402.85H89.5662ZM96.2375 405.425C96.6542 404.542 97.2708 403.875 98.0875 403.425C98.9208 402.975 99.9458 402.75 101.163 402.75V404.475L100.738 404.45C99.3542 404.45 98.2708 404.875 97.4875 405.725C96.7042 406.575 96.3125 407.767 96.3125 409.3V416H94.5375V402.85H96.2375V405.425ZM106.076 405.425C106.493 404.542 107.11 403.875 107.926 403.425C108.76 402.975 109.785 402.75 111.001 402.75V404.475L110.576 404.45C109.193 404.45 108.11 404.875 107.326 405.725C106.543 406.575 106.151 407.767 106.151 409.3V416H104.376V402.85H106.076V405.425ZM114.215 402.85H115.99V416H114.215V402.85ZM115.115 399.975C114.749 399.975 114.44 399.85 114.19 399.6C113.94 399.35 113.815 399.05 113.815 398.7C113.815 398.367 113.94 398.075 114.19 397.825C114.44 397.575 114.749 397.45 115.115 397.45C115.482 397.45 115.79 397.575 116.04 397.825C116.29 398.058 116.415 398.342 116.415 398.675C116.415 399.042 116.29 399.35 116.04 399.6C115.79 399.85 115.482 399.975 115.115 399.975ZM127.629 402.75C129.279 402.75 130.587 403.233 131.554 404.2C132.537 405.15 133.029 406.542 133.029 408.375V416H131.254V408.55C131.254 407.183 130.912 406.142 130.229 405.425C129.546 404.708 128.571 404.35 127.304 404.35C125.887 404.35 124.762 404.775 123.929 405.625C123.112 406.458 122.704 407.617 122.704 409.1V416H120.929V402.85H122.629V405.275C123.112 404.475 123.779 403.858 124.629 403.425C125.496 402.975 126.496 402.75 127.629 402.75ZM150.072 402.85V414.4C150.072 416.633 149.522 418.283 148.422 419.35C147.339 420.433 145.697 420.975 143.497 420.975C142.28 420.975 141.122 420.792 140.022 420.425C138.939 420.075 138.055 419.583 137.372 418.95L138.272 417.6C138.905 418.167 139.672 418.608 140.572 418.925C141.489 419.242 142.447 419.4 143.447 419.4C145.114 419.4 146.339 419.008 147.122 418.225C147.905 417.458 148.297 416.258 148.297 414.625V412.95C147.747 413.783 147.022 414.417 146.122 414.85C145.239 415.283 144.255 415.5 143.172 415.5C141.939 415.5 140.814 415.233 139.797 414.7C138.797 414.15 138.005 413.392 137.422 412.425C136.855 411.442 136.572 410.333 136.572 409.1C136.572 407.867 136.855 406.767 137.422 405.8C138.005 404.833 138.797 404.083 139.797 403.55C140.797 403.017 141.922 402.75 143.172 402.75C144.289 402.75 145.297 402.975 146.197 403.425C147.097 403.875 147.822 404.525 148.372 405.375V402.85H150.072ZM143.347 413.925C144.297 413.925 145.155 413.725 145.922 413.325C146.689 412.908 147.28 412.333 147.697 411.6C148.13 410.867 148.347 410.033 148.347 409.1C148.347 408.167 148.13 407.342 147.697 406.625C147.28 405.892 146.689 405.325 145.922 404.925C145.172 404.508 144.314 404.3 143.347 404.3C142.397 404.3 141.539 404.5 140.772 404.9C140.022 405.3 139.43 405.867 138.997 406.6C138.58 407.333 138.372 408.167 138.372 409.1C138.372 410.033 138.58 410.867 138.997 411.6C139.43 412.333 140.022 412.908 140.772 413.325C141.539 413.725 142.397 413.925 143.347 413.925ZM163.279 405.425C163.695 404.542 164.312 403.875 165.129 403.425C165.962 402.975 166.987 402.75 168.204 402.75V404.475L167.779 404.45C166.395 404.45 165.312 404.875 164.529 405.725C163.745 406.575 163.354 407.767 163.354 409.3V416H161.579V402.85H163.279V405.425ZM182.745 409.975H171.745C171.845 411.342 172.37 412.45 173.32 413.3C174.27 414.133 175.47 414.55 176.92 414.55C177.737 414.55 178.487 414.408 179.17 414.125C179.854 413.825 180.445 413.392 180.945 412.825L181.945 413.975C181.362 414.675 180.629 415.208 179.745 415.575C178.879 415.942 177.92 416.125 176.87 416.125C175.52 416.125 174.32 415.842 173.27 415.275C172.237 414.692 171.429 413.892 170.845 412.875C170.262 411.858 169.97 410.708 169.97 409.425C169.97 408.142 170.245 406.992 170.795 405.975C171.362 404.958 172.129 404.167 173.095 403.6C174.079 403.033 175.179 402.75 176.395 402.75C177.612 402.75 178.704 403.033 179.67 403.6C180.637 404.167 181.395 404.958 181.945 405.975C182.495 406.975 182.77 408.125 182.77 409.425L182.745 409.975ZM176.395 404.275C175.129 404.275 174.062 404.683 173.195 405.5C172.345 406.3 171.862 407.35 171.745 408.65H181.07C180.954 407.35 180.462 406.3 179.595 405.5C178.745 404.683 177.679 404.275 176.395 404.275ZM197.189 402.85L191.339 416H189.514L183.689 402.85H185.539L190.464 414.05L195.439 402.85H197.189ZM210.773 409.975H199.773C199.873 411.342 200.398 412.45 201.348 413.3C202.298 414.133 203.498 414.55 204.948 414.55C205.764 414.55 206.514 414.408 207.198 414.125C207.881 413.825 208.473 413.392 208.973 412.825L209.973 413.975C209.389 414.675 208.656 415.208 207.773 415.575C206.906 415.942 205.948 416.125 204.898 416.125C203.548 416.125 202.348 415.842 201.298 415.275C200.264 414.692 199.456 413.892 198.873 412.875C198.289 411.858 197.998 410.708 197.998 409.425C197.998 408.142 198.273 406.992 198.823 405.975C199.389 404.958 200.156 404.167 201.123 403.6C202.106 403.033 203.206 402.75 204.423 402.75C205.639 402.75 206.731 403.033 207.698 403.6C208.664 404.167 209.423 404.958 209.973 405.975C210.523 406.975 210.798 408.125 210.798 409.425L210.773 409.975ZM204.423 404.275C203.156 404.275 202.089 404.683 201.223 405.5C200.373 406.3 199.889 407.35 199.773 408.65H209.098C208.981 407.35 208.489 406.3 207.623 405.5C206.773 404.683 205.706 404.275 204.423 404.275ZM221.111 402.75C222.761 402.75 224.069 403.233 225.036 404.2C226.019 405.15 226.511 406.542 226.511 408.375V416H224.736V408.55C224.736 407.183 224.394 406.142 223.711 405.425C223.027 404.708 222.052 404.35 220.786 404.35C219.369 404.35 218.244 404.775 217.411 405.625C216.594 406.458 216.186 407.617 216.186 409.1V416H214.411V402.85H216.111V405.275C216.594 404.475 217.261 403.858 218.111 403.425C218.977 402.975 219.977 402.75 221.111 402.75ZM243.179 402.85V416H241.479V413.6C241.013 414.4 240.371 415.025 239.554 415.475C238.738 415.908 237.804 416.125 236.754 416.125C235.038 416.125 233.679 415.65 232.679 414.7C231.696 413.733 231.204 412.325 231.204 410.475V402.85H232.979V410.3C232.979 411.683 233.321 412.733 234.004 413.45C234.688 414.167 235.663 414.525 236.929 414.525C238.313 414.525 239.404 414.108 240.204 413.275C241.004 412.425 241.404 411.25 241.404 409.75V402.85H243.179ZM259.601 409.975H248.601C248.701 411.342 249.226 412.45 250.176 413.3C251.126 414.133 252.326 414.55 253.776 414.55C254.592 414.55 255.342 414.408 256.026 414.125C256.709 413.825 257.301 413.392 257.801 412.825L258.801 413.975C258.217 414.675 257.484 415.208 256.601 415.575C255.734 415.942 254.776 416.125 253.726 416.125C252.376 416.125 251.176 415.842 250.126 415.275C249.092 414.692 248.284 413.892 247.701 412.875C247.117 411.858 246.826 410.708 246.826 409.425C246.826 408.142 247.101 406.992 247.651 405.975C248.217 404.958 248.984 404.167 249.951 403.6C250.934 403.033 252.034 402.75 253.251 402.75C254.467 402.75 255.559 403.033 256.526 403.6C257.492 404.167 258.251 404.958 258.801 405.975C259.351 406.975 259.626 408.125 259.626 409.425L259.601 409.975ZM253.251 404.275C251.984 404.275 250.917 404.683 250.051 405.5C249.201 406.3 248.717 407.35 248.601 408.65H257.926C257.809 407.35 257.317 406.3 256.451 405.5C255.601 404.683 254.534 404.275 253.251 404.275Z" fill="#EE8E39"/>
<path d="M144 38.75C125.6 38.75 110.667 53.87 110.667 72.5C110.667 91.13 125.6 106.25 144 106.25C162.4 106.25 177.333 91.13 177.333 72.5C177.333 53.87 162.4 38.75 144 38.75ZM144 48.875C149.533 48.875 154 53.3975 154 59C154 64.6025 149.533 69.125 144 69.125C138.467 69.125 134 64.6025 134 59C134 53.3975 138.467 48.875 144 48.875ZM144 96.8C135.667 96.8 128.3 92.48 124 85.9325C124.1 79.2163 137.333 75.5375 144 75.5375C150.633 75.5375 163.9 79.2163 164 85.9325C159.7 92.48 152.333 96.8 144 96.8Z" fill="black"/>
<g filter="url(#filter0_d)">
<rect x="412" y="222" width="244" height="194" fill="white"/>
</g>
<g filter="url(#filter1_d)">
<rect x="720" y="222" width="244" height="194" fill="white"/>
</g>
<g filter="url(#filter2_d)">
<rect x="1028" y="222" width="244" height="194" fill="white"/>
</g>
<path d="M650.45 92.15C648.717 92.15 647.15 91.7667 645.75 91C644.367 90.2333 643.275 89.175 642.475 87.825C641.692 86.4583 641.3 84.9333 641.3 83.25C641.3 81.5667 641.692 80.05 642.475 78.7C643.275 77.3333 644.375 76.2667 645.775 75.5C647.175 74.7333 648.742 74.35 650.475 74.35C651.775 74.35 652.975 74.5667 654.075 75C655.175 75.4333 656.108 76.0667 656.875 76.9L655.7 78.075C654.333 76.6917 652.608 76 650.525 76C649.142 76 647.883 76.3167 646.75 76.95C645.617 77.5833 644.725 78.45 644.075 79.55C643.442 80.65 643.125 81.8833 643.125 83.25C643.125 84.6167 643.442 85.85 644.075 86.95C644.725 88.05 645.617 88.9167 646.75 89.55C647.883 90.1833 649.142 90.5 650.525 90.5C652.625 90.5 654.35 89.8 655.7 88.4L656.875 89.575C656.108 90.4083 655.167 91.05 654.05 91.5C652.95 91.9333 651.75 92.15 650.45 92.15ZM667.82 92.15C665.553 92.15 663.787 91.5 662.52 90.2C661.253 88.9 660.62 87.0083 660.62 84.525V74.5H662.47V84.45C662.47 86.4833 662.928 88 663.845 89C664.762 90 666.087 90.5 667.82 90.5C669.57 90.5 670.903 90 671.82 89C672.737 88 673.195 86.4833 673.195 84.45V74.5H674.995V84.525C674.995 87.0083 674.362 88.9 673.095 90.2C671.845 91.5 670.087 92.15 667.82 92.15ZM685.395 92.15C684.095 92.15 682.845 91.9417 681.645 91.525C680.461 91.1083 679.545 90.5583 678.895 89.875L679.62 88.45C680.253 89.0833 681.095 89.6 682.145 90C683.195 90.3833 684.278 90.575 685.395 90.575C686.961 90.575 688.136 90.2917 688.92 89.725C689.703 89.1417 690.095 88.3917 690.095 87.475C690.095 86.775 689.878 86.2167 689.445 85.8C689.028 85.3833 688.511 85.0667 687.895 84.85C687.278 84.6167 686.42 84.3667 685.32 84.1C684.003 83.7667 682.953 83.45 682.17 83.15C681.386 82.8333 680.711 82.3583 680.145 81.725C679.595 81.0917 679.32 80.2333 679.32 79.15C679.32 78.2667 679.553 77.4667 680.02 76.75C680.486 76.0167 681.203 75.4333 682.17 75C683.136 74.5667 684.336 74.35 685.77 74.35C686.77 74.35 687.745 74.4917 688.695 74.775C689.661 75.0417 690.495 75.4167 691.195 75.9L690.57 77.375C689.836 76.8917 689.053 76.5333 688.22 76.3C687.386 76.05 686.57 75.925 685.77 75.925C684.236 75.925 683.078 76.225 682.295 76.825C681.528 77.4083 681.145 78.1667 681.145 79.1C681.145 79.8 681.353 80.3667 681.77 80.8C682.203 81.2167 682.736 81.5417 683.37 81.775C684.02 81.9917 684.886 82.2333 685.97 82.5C687.253 82.8167 688.286 83.1333 689.07 83.45C689.87 83.75 690.545 84.2167 691.095 84.85C691.645 85.4667 691.92 86.3083 691.92 87.375C691.92 88.2583 691.678 89.0667 691.195 89.8C690.728 90.5167 690.003 91.0917 689.02 91.525C688.036 91.9417 686.828 92.15 685.395 92.15ZM699.106 76.1H692.956V74.5H707.106V76.1H700.956V92H699.106V76.1ZM717.468 92.15C715.734 92.15 714.159 91.7667 712.743 91C711.343 90.2167 710.243 89.15 709.443 87.8C708.659 86.45 708.268 84.9333 708.268 83.25C708.268 81.5667 708.659 80.05 709.443 78.7C710.243 77.35 711.343 76.2917 712.743 75.525C714.159 74.7417 715.734 74.35 717.468 74.35C719.201 74.35 720.759 74.7333 722.143 75.5C723.543 76.2667 724.643 77.3333 725.443 78.7C726.243 80.05 726.643 81.5667 726.643 83.25C726.643 84.9333 726.243 86.4583 725.443 87.825C724.643 89.175 723.543 90.2333 722.143 91C720.759 91.7667 719.201 92.15 717.468 92.15ZM717.468 90.5C718.851 90.5 720.101 90.1917 721.218 89.575C722.334 88.9417 723.209 88.075 723.843 86.975C724.476 85.8583 724.793 84.6167 724.793 83.25C724.793 81.8833 724.476 80.65 723.843 79.55C723.209 78.4333 722.334 77.5667 721.218 76.95C720.101 76.3167 718.851 76 717.468 76C716.084 76 714.826 76.3167 713.693 76.95C712.576 77.5667 711.693 78.4333 711.043 79.55C710.409 80.65 710.093 81.8833 710.093 83.25C710.093 84.6167 710.409 85.8583 711.043 86.975C711.693 88.075 712.576 88.9417 713.693 89.575C714.826 90.1917 716.084 90.5 717.468 90.5ZM748.964 74.5V92H747.189V78L740.314 89.775H739.439L732.564 78.075V92H730.789V74.5H732.314L739.914 87.475L747.439 74.5H748.964ZM767.041 90.4V92H754.666V74.5H766.666V76.1H756.516V82.325H765.566V83.9H756.516V90.4H767.041ZM783.34 92L779.34 86.375C778.89 86.425 778.423 86.45 777.94 86.45H773.24V92H771.39V74.5H777.94C780.173 74.5 781.923 75.0333 783.19 76.1C784.457 77.1667 785.09 78.6333 785.09 80.5C785.09 81.8667 784.74 83.025 784.04 83.975C783.357 84.9083 782.373 85.5833 781.09 86L785.365 92H783.34ZM777.89 84.875C779.623 84.875 780.948 84.4917 781.865 83.725C782.782 82.9583 783.24 81.8833 783.24 80.5C783.24 79.0833 782.782 78 781.865 77.25C780.948 76.4833 779.623 76.1 777.89 76.1H773.24V84.875H777.89ZM800.824 92.15C799.524 92.15 798.274 91.9417 797.074 91.525C795.891 91.1083 794.974 90.5583 794.324 89.875L795.049 88.45C795.683 89.0833 796.524 89.6 797.574 90C798.624 90.3833 799.708 90.575 800.824 90.575C802.391 90.575 803.566 90.2917 804.349 89.725C805.133 89.1417 805.524 88.3917 805.524 87.475C805.524 86.775 805.308 86.2167 804.874 85.8C804.458 85.3833 803.941 85.0667 803.324 84.85C802.708 84.6167 801.849 84.3667 800.749 84.1C799.433 83.7667 798.383 83.45 797.599 83.15C796.816 82.8333 796.141 82.3583 795.574 81.725C795.024 81.0917 794.749 80.2333 794.749 79.15C794.749 78.2667 794.983 77.4667 795.449 76.75C795.916 76.0167 796.633 75.4333 797.599 75C798.566 74.5667 799.766 74.35 801.199 74.35C802.199 74.35 803.174 74.4917 804.124 74.775C805.091 75.0417 805.924 75.4167 806.624 75.9L805.999 77.375C805.266 76.8917 804.483 76.5333 803.649 76.3C802.816 76.05 801.999 75.925 801.199 75.925C799.666 75.925 798.508 76.225 797.724 76.825C796.958 77.4083 796.574 78.1667 796.574 79.1C796.574 79.8 796.783 80.3667 797.199 80.8C797.633 81.2167 798.166 81.5417 798.799 81.775C799.449 81.9917 800.316 82.2333 801.399 82.5C802.683 82.8167 803.716 83.1333 804.499 83.45C805.299 83.75 805.974 84.2167 806.524 84.85C807.074 85.4667 807.349 86.3083 807.349 87.375C807.349 88.2583 807.108 89.0667 806.624 89.8C806.158 90.5167 805.433 91.0917 804.449 91.525C803.466 91.9417 802.258 92.15 800.824 92.15ZM818.43 92.15C816.164 92.15 814.397 91.5 813.13 90.2C811.864 88.9 811.23 87.0083 811.23 84.525V74.5H813.08V84.45C813.08 86.4833 813.539 88 814.455 89C815.372 90 816.697 90.5 818.43 90.5C820.18 90.5 821.514 90 822.43 89C823.347 88 823.805 86.4833 823.805 84.45V74.5H825.605V84.525C825.605 87.0083 824.972 88.9 823.705 90.2C822.455 91.5 820.697 92.15 818.43 92.15ZM838.78 92.15C837.047 92.15 835.48 91.7667 834.08 91C832.697 90.2333 831.605 89.175 830.805 87.825C830.022 86.4583 829.63 84.9333 829.63 83.25C829.63 81.5667 830.022 80.05 830.805 78.7C831.605 77.3333 832.705 76.2667 834.105 75.5C835.505 74.7333 837.072 74.35 838.805 74.35C840.105 74.35 841.305 74.5667 842.405 75C843.505 75.4333 844.438 76.0667 845.205 76.9L844.03 78.075C842.663 76.6917 840.938 76 838.855 76C837.472 76 836.213 76.3167 835.08 76.95C833.947 77.5833 833.055 78.45 832.405 79.55C831.772 80.65 831.455 81.8833 831.455 83.25C831.455 84.6167 831.772 85.85 832.405 86.95C833.055 88.05 833.947 88.9167 835.08 89.55C836.213 90.1833 837.472 90.5 838.855 90.5C840.955 90.5 842.68 89.8 844.03 88.4L845.205 89.575C844.438 90.4083 843.497 91.05 842.38 91.5C841.28 91.9333 840.08 92.15 838.78 92.15ZM856.383 92.15C854.649 92.15 853.083 91.7667 851.683 91C850.299 90.2333 849.208 89.175 848.408 87.825C847.624 86.4583 847.233 84.9333 847.233 83.25C847.233 81.5667 847.624 80.05 848.408 78.7C849.208 77.3333 850.308 76.2667 851.708 75.5C853.108 74.7333 854.674 74.35 856.408 74.35C857.708 74.35 858.908 74.5667 860.008 75C861.108 75.4333 862.041 76.0667 862.808 76.9L861.633 78.075C860.266 76.6917 858.541 76 856.458 76C855.074 76 853.816 76.3167 852.683 76.95C851.549 77.5833 850.658 78.45 850.008 79.55C849.374 80.65 849.058 81.8833 849.058 83.25C849.058 84.6167 849.374 85.85 850.008 86.95C850.658 88.05 851.549 88.9167 852.683 89.55C853.816 90.1833 855.074 90.5 856.458 90.5C858.558 90.5 860.283 89.8 861.633 88.4L862.808 89.575C862.041 90.4083 861.099 91.05 859.983 91.5C858.883 91.9333 857.683 92.15 856.383 92.15ZM879.126 90.4V92H866.751V74.5H878.751V76.1H868.601V82.325H877.651V83.9H868.601V90.4H879.126ZM888.3 92.15C887 92.15 885.75 91.9417 884.55 91.525C883.367 91.1083 882.45 90.5583 881.8 89.875L882.525 88.45C883.158 89.0833 884 89.6 885.05 90C886.1 90.3833 887.183 90.575 888.3 90.575C889.867 90.575 891.042 90.2917 891.825 89.725C892.608 89.1417 893 88.3917 893 87.475C893 86.775 892.783 86.2167 892.35 85.8C891.933 85.3833 891.417 85.0667 890.8 84.85C890.183 84.6167 889.325 84.3667 888.225 84.1C886.908 83.7667 885.858 83.45 885.075 83.15C884.292 82.8333 883.617 82.3583 883.05 81.725C882.5 81.0917 882.225 80.2333 882.225 79.15C882.225 78.2667 882.458 77.4667 882.925 76.75C883.392 76.0167 884.108 75.4333 885.075 75C886.042 74.5667 887.242 74.35 888.675 74.35C889.675 74.35 890.65 74.4917 891.6 74.775C892.567 75.0417 893.4 75.4167 894.1 75.9L893.475 77.375C892.742 76.8917 891.958 76.5333 891.125 76.3C890.292 76.05 889.475 75.925 888.675 75.925C887.142 75.925 885.983 76.225 885.2 76.825C884.433 77.4083 884.05 78.1667 884.05 79.1C884.05 79.8 884.258 80.3667 884.675 80.8C885.108 81.2167 885.642 81.5417 886.275 81.775C886.925 81.9917 887.792 82.2333 888.875 82.5C890.158 82.8167 891.192 83.1333 891.975 83.45C892.775 83.75 893.45 84.2167 894 84.85C894.55 85.4667 894.825 86.3083 894.825 87.375C894.825 88.2583 894.583 89.0667 894.1 89.8C893.633 90.5167 892.908 91.0917 891.925 91.525C890.942 91.9417 889.733 92.15 888.3 92.15ZM903.681 92.15C902.381 92.15 901.131 91.9417 899.931 91.525C898.748 91.1083 897.831 90.5583 897.181 89.875L897.906 88.45C898.539 89.0833 899.381 89.6 900.431 90C901.481 90.3833 902.564 90.575 903.681 90.575C905.248 90.575 906.423 90.2917 907.206 89.725C907.989 89.1417 908.381 88.3917 908.381 87.475C908.381 86.775 908.164 86.2167 907.731 85.8C907.314 85.3833 906.798 85.0667 906.181 84.85C905.564 84.6167 904.706 84.3667 903.606 84.1C902.289 83.7667 901.239 83.45 900.456 83.15C899.673 82.8333 898.998 82.3583 898.431 81.725C897.881 81.0917 897.606 80.2333 897.606 79.15C897.606 78.2667 897.839 77.4667 898.306 76.75C898.773 76.0167 899.489 75.4333 900.456 75C901.423 74.5667 902.623 74.35 904.056 74.35C905.056 74.35 906.031 74.4917 906.981 74.775C907.948 75.0417 908.781 75.4167 909.481 75.9L908.856 77.375C908.123 76.8917 907.339 76.5333 906.506 76.3C905.673 76.05 904.856 75.925 904.056 75.925C902.523 75.925 901.364 76.225 900.581 76.825C899.814 77.4083 899.431 78.1667 899.431 79.1C899.431 79.8 899.639 80.3667 900.056 80.8C900.489 81.2167 901.023 81.5417 901.656 81.775C902.306 81.9917 903.173 82.2333 904.256 82.5C905.539 82.8167 906.573 83.1333 907.356 83.45C908.156 83.75 908.831 84.2167 909.381 84.85C909.931 85.4667 910.206 86.3083 910.206 87.375C910.206 88.2583 909.964 89.0667 909.481 89.8C909.014 90.5167 908.289 91.0917 907.306 91.525C906.323 91.9417 905.114 92.15 903.681 92.15ZM920.78 74.5H927.905C929.755 74.5 931.388 74.875 932.805 75.625C934.221 76.3583 935.321 77.3917 936.105 78.725C936.888 80.0417 937.28 81.55 937.28 83.25C937.28 84.95 936.888 86.4667 936.105 87.8C935.321 89.1167 934.221 90.15 932.805 90.9C931.388 91.6333 929.755 92 927.905 92H920.78V74.5ZM927.805 90.4C929.338 90.4 930.68 90.1 931.83 89.5C932.98 88.8833 933.871 88.0417 934.505 86.975C935.138 85.8917 935.455 84.65 935.455 83.25C935.455 81.85 935.138 80.6167 934.505 79.55C933.871 78.4667 932.98 77.625 931.83 77.025C930.68 76.4083 929.338 76.1 927.805 76.1H922.63V90.4H927.805ZM952.165 87.325H942.415L940.315 92H938.39L946.39 74.5H948.215L956.215 92H954.265L952.165 87.325ZM951.49 85.825L947.29 76.425L943.09 85.825H951.49ZM963.935 92.15C962.635 92.15 961.385 91.9417 960.185 91.525C959.001 91.1083 958.085 90.5583 957.435 89.875L958.16 88.45C958.793 89.0833 959.635 89.6 960.685 90C961.735 90.3833 962.818 90.575 963.935 90.575C965.501 90.575 966.676 90.2917 967.46 89.725C968.243 89.1417 968.635 88.3917 968.635 87.475C968.635 86.775 968.418 86.2167 967.985 85.8C967.568 85.3833 967.051 85.0667 966.435 84.85C965.818 84.6167 964.96 84.3667 963.86 84.1C962.543 83.7667 961.493 83.45 960.71 83.15C959.926 82.8333 959.251 82.3583 958.685 81.725C958.135 81.0917 957.86 80.2333 957.86 79.15C957.86 78.2667 958.093 77.4667 958.56 76.75C959.026 76.0167 959.743 75.4333 960.71 75C961.676 74.5667 962.876 74.35 964.31 74.35C965.31 74.35 966.285 74.4917 967.235 74.775C968.201 75.0417 969.035 75.4167 969.735 75.9L969.11 77.375C968.376 76.8917 967.593 76.5333 966.76 76.3C965.926 76.05 965.11 75.925 964.31 75.925C962.776 75.925 961.618 76.225 960.835 76.825C960.068 77.4083 959.685 78.1667 959.685 79.1C959.685 79.8 959.893 80.3667 960.31 80.8C960.743 81.2167 961.276 81.5417 961.91 81.775C962.56 81.9917 963.426 82.2333 964.51 82.5C965.793 82.8167 966.826 83.1333 967.61 83.45C968.41 83.75 969.085 84.2167 969.635 84.85C970.185 85.4667 970.46 86.3083 970.46 87.375C970.46 88.2583 970.218 89.0667 969.735 89.8C969.268 90.5167 968.543 91.0917 967.56 91.525C966.576 91.9417 965.368 92.15 963.935 92.15ZM989.116 74.5V92H987.291V83.925H976.341V92H974.491V74.5H976.341V82.3H987.291V74.5H989.116ZM1005.85 82.975C1007 83.225 1007.89 83.725 1008.5 84.475C1009.14 85.2083 1009.45 86.1583 1009.45 87.325C1009.45 88.825 1008.89 89.9833 1007.78 90.8C1006.68 91.6 1005.04 92 1002.88 92H994.828V74.5H1002.38C1004.33 74.5 1005.84 74.8917 1006.9 75.675C1007.99 76.4583 1008.53 77.5667 1008.53 79C1008.53 79.9667 1008.29 80.7917 1007.8 81.475C1007.34 82.1417 1006.69 82.6417 1005.85 82.975ZM996.678 76.025V82.375H1002.25C1003.67 82.375 1004.76 82.1083 1005.53 81.575C1006.29 81.025 1006.68 80.2333 1006.68 79.2C1006.68 78.1667 1006.29 77.3833 1005.53 76.85C1004.76 76.3 1003.67 76.025 1002.25 76.025H996.678ZM1002.85 90.475C1004.42 90.475 1005.6 90.2083 1006.4 89.675C1007.2 89.1417 1007.6 88.3083 1007.6 87.175C1007.6 84.9917 1006.02 83.9 1002.85 83.9H996.678V90.475H1002.85ZM1021.33 92.15C1019.59 92.15 1018.02 91.7667 1016.6 91C1015.2 90.2167 1014.1 89.15 1013.3 87.8C1012.52 86.45 1012.13 84.9333 1012.13 83.25C1012.13 81.5667 1012.52 80.05 1013.3 78.7C1014.1 77.35 1015.2 76.2917 1016.6 75.525C1018.02 74.7417 1019.59 74.35 1021.33 74.35C1023.06 74.35 1024.62 74.7333 1026 75.5C1027.4 76.2667 1028.5 77.3333 1029.3 78.7C1030.1 80.05 1030.5 81.5667 1030.5 83.25C1030.5 84.9333 1030.1 86.4583 1029.3 87.825C1028.5 89.175 1027.4 90.2333 1026 91C1024.62 91.7667 1023.06 92.15 1021.33 92.15ZM1021.33 90.5C1022.71 90.5 1023.96 90.1917 1025.08 89.575C1026.19 88.9417 1027.07 88.075 1027.7 86.975C1028.33 85.8583 1028.65 84.6167 1028.65 83.25C1028.65 81.8833 1028.33 80.65 1027.7 79.55C1027.07 78.4333 1026.19 77.5667 1025.08 76.95C1023.96 76.3167 1022.71 76 1021.33 76C1019.94 76 1018.68 76.3167 1017.55 76.95C1016.43 77.5667 1015.55 78.4333 1014.9 79.55C1014.27 80.65 1013.95 81.8833 1013.95 83.25C1013.95 84.6167 1014.27 85.8583 1014.9 86.975C1015.55 88.075 1016.43 88.9417 1017.55 89.575C1018.68 90.1917 1019.94 90.5 1021.33 90.5ZM1045.38 87.325H1035.63L1033.53 92H1031.6L1039.6 74.5H1041.43L1049.43 92H1047.48L1045.38 87.325ZM1044.7 85.825L1040.5 76.425L1036.3 85.825H1044.7ZM1064.27 92L1060.27 86.375C1059.82 86.425 1059.36 86.45 1058.87 86.45H1054.17V92H1052.32V74.5H1058.87C1061.11 74.5 1062.86 75.0333 1064.12 76.1C1065.39 77.1667 1066.02 78.6333 1066.02 80.5C1066.02 81.8667 1065.67 83.025 1064.97 83.975C1064.29 84.9083 1063.31 85.5833 1062.02 86L1066.3 92H1064.27ZM1058.82 84.875C1060.56 84.875 1061.88 84.4917 1062.8 83.725C1063.71 82.9583 1064.17 81.8833 1064.17 80.5C1064.17 79.0833 1063.71 78 1062.8 77.25C1061.88 76.4833 1060.56 76.1 1058.82 76.1H1054.17V84.875H1058.82ZM1070.39 74.5H1077.51C1079.36 74.5 1081 74.875 1082.41 75.625C1083.83 76.3583 1084.93 77.3917 1085.71 78.725C1086.5 80.0417 1086.89 81.55 1086.89 83.25C1086.89 84.95 1086.5 86.4667 1085.71 87.8C1084.93 89.1167 1083.83 90.15 1082.41 90.9C1081 91.6333 1079.36 92 1077.51 92H1070.39V74.5ZM1077.41 90.4C1078.95 90.4 1080.29 90.1 1081.44 89.5C1082.59 88.8833 1083.48 88.0417 1084.11 86.975C1084.75 85.8917 1085.06 84.65 1085.06 83.25C1085.06 81.85 1084.75 80.6167 1084.11 79.55C1083.48 78.4667 1082.59 77.625 1081.44 77.025C1080.29 76.4083 1078.95 76.1 1077.41 76.1H1072.24V90.4H1077.41Z" fill="black"/>
<defs>
<filter id="filter0_d" x="408" y="222" width="252" height="202" filterUnits="userSpaceOnUse" color-interpolation-filters="sRGB">
<feFlood flood-opacity="0" result="BackgroundImageFix"/>
<feColorMatrix in="SourceAlpha" type="matrix" values="0 0 0 0 0 0 0 0 0 0 0 0 0 0 0 0 0 0 127 0"/>
<feOffset dy="4"/>
<feGaussianBlur stdDeviation="2"/>
<feColorMatrix type="matrix" values="0 0 0 0 0 0 0 0 0 0 0 0 0 0 0 0 0 0 0.25 0"/>
<feBlend mode="normal" in2="BackgroundImageFix" result="effect1_dropShadow"/>
<feBlend mode="normal" in="SourceGraphic" in2="effect1_dropShadow" result="shape"/>
</filter>
<filter id="filter1_d" x="716" y="222" width="252" height="202" filterUnits="userSpaceOnUse" color-interpolation-filters="sRGB">
<feFlood flood-opacity="0" result="BackgroundImageFix"/>
<feColorMatrix in="SourceAlpha" type="matrix" values="0 0 0 0 0 0 0 0 0 0 0 0 0 0 0 0 0 0 127 0"/>
<feOffset dy="4"/>
<feGaussianBlur stdDeviation="2"/>
<feColorMatrix type="matrix" values="0 0 0 0 0 0 0 0 0 0 0 0 0 0 0 0 0 0 0.25 0"/>
<feBlend mode="normal" in2="BackgroundImageFix" result="effect1_dropShadow"/>
<feBlend mode="normal" in="SourceGraphic" in2="effect1_dropShadow" result="shape"/>
</filter>
<filter id="filter2_d" x="1024" y="222" width="252" height="202" filterUnits="userSpaceOnUse" color-interpolation-filters="sRGB">
<feFlood flood-opacity="0" result="BackgroundImageFix"/>
<feColorMatrix in="SourceAlpha" type="matrix" values="0 0 0 0 0 0 0 0 0 0 0 0 0 0 0 0 0 0 127 0"/>
<feOffset dy="4"/>
<feGaussianBlur stdDeviation="2"/>
<feColorMatrix type="matrix" values="0 0 0 0 0 0 0 0 0 0 0 0 0 0 0 0 0 0 0.25 0"/>
<feBlend mode="normal" in2="BackgroundImageFix" result="effect1_dropShadow"/>
<feBlend mode="normal" in="SourceGraphic" in2="effect1_dropShadow" result="shape"/>
</filter>
</defs>
</svg>
