<svg width="1440" height="1024" viewBox="0 0 1440 1024" fill="none" xmlns="http://www.w3.org/2000/svg">
<g clip-path="url(#clip0)">
<rect width="1440" height="1024" fill="white"/>
<rect width="1440" height="1024" fill="white"/>
<rect x="720" width="1" height="1024" fill="#828181"/>
<path d="M118.63 422.42C116.133 422.42 113.87 421.883 111.84 420.81C109.833 419.713 108.247 418.208 107.08 416.295C105.937 414.358 105.365 412.177 105.365 409.75C105.365 407.323 105.937 405.153 107.08 403.24C108.247 401.303 109.833 399.798 111.84 398.725C113.87 397.628 116.145 397.08 118.665 397.08C120.788 397.08 122.702 397.453 124.405 398.2C126.132 398.947 127.578 400.02 128.745 401.42L125.105 404.78C123.448 402.867 121.395 401.91 118.945 401.91C117.428 401.91 116.075 402.248 114.885 402.925C113.695 403.578 112.762 404.5 112.085 405.69C111.432 406.88 111.105 408.233 111.105 409.75C111.105 411.267 111.432 412.62 112.085 413.81C112.762 415 113.695 415.933 114.885 416.61C116.075 417.263 117.428 417.59 118.945 417.59C121.395 417.59 123.448 416.622 125.105 414.685L128.745 418.045C127.578 419.468 126.132 420.553 124.405 421.3C122.678 422.047 120.753 422.42 118.63 422.42ZM143.254 422.42C139.754 422.42 137.024 421.452 135.064 419.515C133.127 417.578 132.159 414.813 132.159 411.22V397.5H137.829V411.01C137.829 415.397 139.649 417.59 143.289 417.59C145.062 417.59 146.416 417.065 147.349 416.015C148.282 414.942 148.749 413.273 148.749 411.01V397.5H154.349V411.22C154.349 414.813 153.369 417.578 151.409 419.515C149.472 421.452 146.754 422.42 143.254 422.42ZM168.002 422.42C166.065 422.42 164.187 422.163 162.367 421.65C160.57 421.113 159.124 420.425 158.027 419.585L159.952 415.315C161.002 416.085 162.25 416.703 163.697 417.17C165.144 417.637 166.59 417.87 168.037 417.87C169.647 417.87 170.837 417.637 171.607 417.17C172.377 416.68 172.762 416.038 172.762 415.245C172.762 414.662 172.529 414.183 172.062 413.81C171.619 413.413 171.035 413.098 170.312 412.865C169.612 412.632 168.655 412.375 167.442 412.095C165.575 411.652 164.047 411.208 162.857 410.765C161.667 410.322 160.64 409.61 159.777 408.63C158.937 407.65 158.517 406.343 158.517 404.71C158.517 403.287 158.902 402.003 159.672 400.86C160.442 399.693 161.597 398.772 163.137 398.095C164.7 397.418 166.602 397.08 168.842 397.08C170.405 397.08 171.934 397.267 173.427 397.64C174.92 398.013 176.227 398.55 177.347 399.25L175.597 403.555C173.334 402.272 171.07 401.63 168.807 401.63C167.22 401.63 166.042 401.887 165.272 402.4C164.525 402.913 164.152 403.59 164.152 404.43C164.152 405.27 164.584 405.9 165.447 406.32C166.334 406.717 167.675 407.113 169.472 407.51C171.339 407.953 172.867 408.397 174.057 408.84C175.247 409.283 176.262 409.983 177.102 410.94C177.965 411.897 178.397 413.192 178.397 414.825C178.397 416.225 178 417.508 177.207 418.675C176.437 419.818 175.27 420.728 173.707 421.405C172.144 422.082 170.242 422.42 168.002 422.42ZM187.004 402.12H179.164V397.5H200.514V402.12H192.674V422H187.004V402.12ZM215.088 422.42C212.545 422.42 210.247 421.872 208.193 420.775C206.163 419.678 204.565 418.173 203.398 416.26C202.255 414.323 201.683 412.153 201.683 409.75C201.683 407.347 202.255 405.188 203.398 403.275C204.565 401.338 206.163 399.822 208.193 398.725C210.247 397.628 212.545 397.08 215.088 397.08C217.632 397.08 219.918 397.628 221.948 398.725C223.978 399.822 225.577 401.338 226.743 403.275C227.91 405.188 228.493 407.347 228.493 409.75C228.493 412.153 227.91 414.323 226.743 416.26C225.577 418.173 223.978 419.678 221.948 420.775C219.918 421.872 217.632 422.42 215.088 422.42ZM215.088 417.59C216.535 417.59 217.842 417.263 219.008 416.61C220.175 415.933 221.085 415 221.738 413.81C222.415 412.62 222.753 411.267 222.753 409.75C222.753 408.233 222.415 406.88 221.738 405.69C221.085 404.5 220.175 403.578 219.008 402.925C217.842 402.248 216.535 401.91 215.088 401.91C213.642 401.91 212.335 402.248 211.168 402.925C210.002 403.578 209.08 404.5 208.403 405.69C207.75 406.88 207.423 408.233 207.423 409.75C207.423 411.267 207.75 412.62 208.403 413.81C209.08 415 210.002 415.933 211.168 416.61C212.335 417.263 213.642 417.59 215.088 417.59ZM255.05 422L255.015 407.3L247.805 419.41H245.25L238.075 407.615V422H232.755V397.5H237.445L246.615 412.725L255.645 397.5H260.3L260.37 422H255.05ZM285.152 417.45V422H266.182V397.5H284.697V402.05H271.817V407.37H283.192V411.78H271.817V417.45H285.152ZM305.274 422L300.549 415.175H300.269H295.334V422H289.664V397.5H300.269C302.439 397.5 304.317 397.862 305.904 398.585C307.514 399.308 308.75 400.335 309.614 401.665C310.477 402.995 310.909 404.57 310.909 406.39C310.909 408.21 310.465 409.785 309.579 411.115C308.715 412.422 307.479 413.425 305.869 414.125L311.364 422H305.274ZM305.169 406.39C305.169 405.013 304.725 403.963 303.839 403.24C302.952 402.493 301.657 402.12 299.954 402.12H295.334V410.66H299.954C301.657 410.66 302.952 410.287 303.839 409.54C304.725 408.793 305.169 407.743 305.169 406.39ZM333.363 422.42C331.427 422.42 329.548 422.163 327.728 421.65C325.932 421.113 324.485 420.425 323.388 419.585L325.313 415.315C326.363 416.085 327.612 416.703 329.058 417.17C330.505 417.637 331.952 417.87 333.398 417.87C335.008 417.87 336.198 417.637 336.968 417.17C337.738 416.68 338.123 416.038 338.123 415.245C338.123 414.662 337.89 414.183 337.423 413.81C336.98 413.413 336.397 413.098 335.673 412.865C334.973 412.632 334.017 412.375 332.803 412.095C330.937 411.652 329.408 411.208 328.218 410.765C327.028 410.322 326.002 409.61 325.138 408.63C324.298 407.65 323.878 406.343 323.878 404.71C323.878 403.287 324.263 402.003 325.033 400.86C325.803 399.693 326.958 398.772 328.498 398.095C330.062 397.418 331.963 397.08 334.203 397.08C335.767 397.08 337.295 397.267 338.788 397.64C340.282 398.013 341.588 398.55 342.708 399.25L340.958 403.555C338.695 402.272 336.432 401.63 334.168 401.63C332.582 401.63 331.403 401.887 330.633 402.4C329.887 402.913 329.513 403.59 329.513 404.43C329.513 405.27 329.945 405.9 330.808 406.32C331.695 406.717 333.037 407.113 334.833 407.51C336.7 407.953 338.228 408.397 339.418 408.84C340.608 409.283 341.623 409.983 342.463 410.94C343.327 411.897 343.758 413.192 343.758 414.825C343.758 416.225 343.362 417.508 342.568 418.675C341.798 419.818 340.632 420.728 339.068 421.405C337.505 422.082 335.603 422.42 333.363 422.42ZM358.518 422.42C355.018 422.42 352.288 421.452 350.328 419.515C348.391 417.578 347.423 414.813 347.423 411.22V397.5H353.093V411.01C353.093 415.397 354.913 417.59 358.553 417.59C360.326 417.59 361.679 417.065 362.613 416.015C363.546 414.942 364.013 413.273 364.013 411.01V397.5H369.613V411.22C369.613 414.813 368.633 417.578 366.673 419.515C364.736 421.452 362.018 422.42 358.518 422.42ZM386.941 422.42C384.444 422.42 382.181 421.883 380.151 420.81C378.144 419.713 376.557 418.208 375.391 416.295C374.247 414.358 373.676 412.177 373.676 409.75C373.676 407.323 374.247 405.153 375.391 403.24C376.557 401.303 378.144 399.798 380.151 398.725C382.181 397.628 384.456 397.08 386.976 397.08C389.099 397.08 391.012 397.453 392.716 398.2C394.442 398.947 395.889 400.02 397.056 401.42L393.416 404.78C391.759 402.867 389.706 401.91 387.256 401.91C385.739 401.91 384.386 402.248 383.196 402.925C382.006 403.578 381.072 404.5 380.396 405.69C379.742 406.88 379.416 408.233 379.416 409.75C379.416 411.267 379.742 412.62 380.396 413.81C381.072 415 382.006 415.933 383.196 416.61C384.386 417.263 385.739 417.59 387.256 417.59C389.706 417.59 391.759 416.622 393.416 414.685L397.056 418.045C395.889 419.468 394.442 420.553 392.716 421.3C390.989 422.047 389.064 422.42 386.941 422.42ZM412.097 422.42C409.6 422.42 407.337 421.883 405.307 420.81C403.3 419.713 401.713 418.208 400.547 416.295C399.403 414.358 398.832 412.177 398.832 409.75C398.832 407.323 399.403 405.153 400.547 403.24C401.713 401.303 403.3 399.798 405.307 398.725C407.337 397.628 409.612 397.08 412.132 397.08C414.255 397.08 416.168 397.453 417.872 398.2C419.598 398.947 421.045 400.02 422.212 401.42L418.572 404.78C416.915 402.867 414.862 401.91 412.412 401.91C410.895 401.91 409.542 402.248 408.352 402.925C407.162 403.578 406.228 404.5 405.552 405.69C404.898 406.88 404.572 408.233 404.572 409.75C404.572 411.267 404.898 412.62 405.552 413.81C406.228 415 407.162 415.933 408.352 416.61C409.542 417.263 410.895 417.59 412.412 417.59C414.862 417.59 416.915 416.622 418.572 414.685L422.212 418.045C421.045 419.468 419.598 420.553 417.872 421.3C416.145 422.047 414.22 422.42 412.097 422.42ZM445.011 417.45V422H426.041V397.5H444.556V402.05H431.676V407.37H443.051V411.78H431.676V417.45H445.011ZM457.572 422.42C455.636 422.42 453.757 422.163 451.937 421.65C450.141 421.113 448.694 420.425 447.597 419.585L449.522 415.315C450.572 416.085 451.821 416.703 453.267 417.17C454.714 417.637 456.161 417.87 457.607 417.87C459.217 417.87 460.407 417.637 461.177 417.17C461.947 416.68 462.332 416.038 462.332 415.245C462.332 414.662 462.099 414.183 461.632 413.81C461.189 413.413 460.606 413.098 459.882 412.865C459.182 412.632 458.226 412.375 457.012 412.095C455.146 411.652 453.617 411.208 452.427 410.765C451.237 410.322 450.211 409.61 449.347 408.63C448.507 407.65 448.087 406.343 448.087 404.71C448.087 403.287 448.472 402.003 449.242 400.86C450.012 399.693 451.167 398.772 452.707 398.095C454.271 397.418 456.172 397.08 458.412 397.08C459.976 397.08 461.504 397.267 462.997 397.64C464.491 398.013 465.797 398.55 466.917 399.25L465.167 403.555C462.904 402.272 460.641 401.63 458.377 401.63C456.791 401.63 455.612 401.887 454.842 402.4C454.096 402.913 453.722 403.59 453.722 404.43C453.722 405.27 454.154 405.9 455.017 406.32C455.904 406.717 457.246 407.113 459.042 407.51C460.909 407.953 462.437 408.397 463.627 408.84C464.817 409.283 465.832 409.983 466.672 410.94C467.536 411.897 467.967 413.192 467.967 414.825C467.967 416.225 467.571 417.508 466.777 418.675C466.007 419.818 464.841 420.728 463.277 421.405C461.714 422.082 459.812 422.42 457.572 422.42ZM479.892 422.42C477.955 422.42 476.077 422.163 474.257 421.65C472.46 421.113 471.013 420.425 469.917 419.585L471.842 415.315C472.892 416.085 474.14 416.703 475.587 417.17C477.033 417.637 478.48 417.87 479.927 417.87C481.537 417.87 482.727 417.637 483.497 417.17C484.267 416.68 484.652 416.038 484.652 415.245C484.652 414.662 484.418 414.183 483.952 413.81C483.508 413.413 482.925 413.098 482.202 412.865C481.502 412.632 480.545 412.375 479.332 412.095C477.465 411.652 475.937 411.208 474.747 410.765C473.557 410.322 472.53 409.61 471.667 408.63C470.827 407.65 470.407 406.343 470.407 404.71C470.407 403.287 470.792 402.003 471.562 400.86C472.332 399.693 473.487 398.772 475.027 398.095C476.59 397.418 478.492 397.08 480.732 397.08C482.295 397.08 483.823 397.267 485.317 397.64C486.81 398.013 488.117 398.55 489.237 399.25L487.487 403.555C485.223 402.272 482.96 401.63 480.697 401.63C479.11 401.63 477.932 401.887 477.162 402.4C476.415 402.913 476.042 403.59 476.042 404.43C476.042 405.27 476.473 405.9 477.337 406.32C478.223 406.717 479.565 407.113 481.362 407.51C483.228 407.953 484.757 408.397 485.947 408.84C487.137 409.283 488.152 409.983 488.992 410.94C489.855 411.897 490.287 413.192 490.287 414.825C490.287 416.225 489.89 417.508 489.097 418.675C488.327 419.818 487.16 420.728 485.597 421.405C484.033 422.082 482.132 422.42 479.892 422.42ZM514.678 397.5C516.848 397.5 518.726 397.862 520.313 398.585C521.923 399.308 523.16 400.335 524.023 401.665C524.886 402.995 525.318 404.57 525.318 406.39C525.318 408.187 524.886 409.762 524.023 411.115C523.16 412.445 521.923 413.472 520.313 414.195C518.726 414.895 516.848 415.245 514.678 415.245H509.743V422H504.073V397.5H514.678ZM514.363 410.625C516.066 410.625 517.361 410.263 518.248 409.54C519.135 408.793 519.578 407.743 519.578 406.39C519.578 405.013 519.135 403.963 518.248 403.24C517.361 402.493 516.066 402.12 514.363 402.12H509.743V410.625H514.363ZM541.573 422.42C539.029 422.42 536.731 421.872 534.678 420.775C532.648 419.678 531.049 418.173 529.883 416.26C528.739 414.323 528.168 412.153 528.168 409.75C528.168 407.347 528.739 405.188 529.883 403.275C531.049 401.338 532.648 399.822 534.678 398.725C536.731 397.628 539.029 397.08 541.573 397.08C544.116 397.08 546.403 397.628 548.433 398.725C550.463 399.822 552.061 401.338 553.228 403.275C554.394 405.188 554.978 407.347 554.978 409.75C554.978 412.153 554.394 414.323 553.228 416.26C552.061 418.173 550.463 419.678 548.433 420.775C546.403 421.872 544.116 422.42 541.573 422.42ZM541.573 417.59C543.019 417.59 544.326 417.263 545.493 416.61C546.659 415.933 547.569 415 548.223 413.81C548.899 412.62 549.238 411.267 549.238 409.75C549.238 408.233 548.899 406.88 548.223 405.69C547.569 404.5 546.659 403.578 545.493 402.925C544.326 402.248 543.019 401.91 541.573 401.91C540.126 401.91 538.819 402.248 537.653 402.925C536.486 403.578 535.564 404.5 534.888 405.69C534.234 406.88 533.908 408.233 533.908 409.75C533.908 411.267 534.234 412.62 534.888 413.81C535.564 415 536.486 415.933 537.653 416.61C538.819 417.263 540.126 417.59 541.573 417.59ZM574.849 422L570.124 415.175H569.844H564.909V422H559.239V397.5H569.844C572.014 397.5 573.892 397.862 575.479 398.585C577.089 399.308 578.326 400.335 579.189 401.665C580.052 402.995 580.484 404.57 580.484 406.39C580.484 408.21 580.041 409.785 579.154 411.115C578.291 412.422 577.054 413.425 575.444 414.125L580.939 422H574.849ZM574.744 406.39C574.744 405.013 574.301 403.963 573.414 403.24C572.527 402.493 571.232 402.12 569.529 402.12H564.909V410.66H569.529C571.232 410.66 572.527 410.287 573.414 409.54C574.301 408.793 574.744 407.743 574.744 406.39ZM589.709 402.12H581.869V397.5H603.219V402.12H595.379V422H589.709V402.12ZM621.175 416.75H609.8L607.63 422H601.82L612.74 397.5H618.34L629.295 422H623.345L621.175 416.75ZM619.39 412.445L615.505 403.065L611.62 412.445H619.39ZM631.837 397.5H637.507V417.38H649.792V422H631.837V397.5Z" fill="#34495E"/>
<path d="M828.905 223.5H834.575V243.38H846.86V248H828.905V223.5ZM858.466 248.28C856.483 248.28 854.698 247.872 853.111 247.055C851.548 246.215 850.323 245.06 849.436 243.59C848.55 242.12 848.106 240.452 848.106 238.585C848.106 236.718 848.55 235.05 849.436 233.58C850.323 232.11 851.548 230.967 853.111 230.15C854.698 229.31 856.483 228.89 858.466 228.89C860.45 228.89 862.223 229.31 863.786 230.15C865.35 230.967 866.575 232.11 867.461 233.58C868.348 235.05 868.791 236.718 868.791 238.585C868.791 240.452 868.348 242.12 867.461 243.59C866.575 245.06 865.35 246.215 863.786 247.055C862.223 247.872 860.45 248.28 858.466 248.28ZM858.466 243.8C859.866 243.8 861.01 243.333 861.896 242.4C862.806 241.443 863.261 240.172 863.261 238.585C863.261 236.998 862.806 235.738 861.896 234.805C861.01 233.848 859.866 233.37 858.466 233.37C857.066 233.37 855.911 233.848 855.001 234.805C854.091 235.738 853.636 236.998 853.636 238.585C853.636 240.172 854.091 241.443 855.001 242.4C855.911 243.333 857.066 243.8 858.466 243.8ZM891.866 229.17V244.85C891.866 248.303 890.968 250.87 889.171 252.55C887.374 254.23 884.749 255.07 881.296 255.07C879.476 255.07 877.749 254.848 876.116 254.405C874.483 253.962 873.129 253.32 872.056 252.48L874.226 248.56C875.019 249.213 876.023 249.727 877.236 250.1C878.449 250.497 879.663 250.695 880.876 250.695C882.766 250.695 884.154 250.263 885.041 249.4C885.951 248.56 886.406 247.277 886.406 245.55V244.745C884.983 246.308 882.999 247.09 880.456 247.09C878.729 247.09 877.143 246.717 875.696 245.97C874.273 245.2 873.141 244.127 872.301 242.75C871.461 241.373 871.041 239.787 871.041 237.99C871.041 236.193 871.461 234.607 872.301 233.23C873.141 231.853 874.273 230.792 875.696 230.045C877.143 229.275 878.729 228.89 880.456 228.89C883.186 228.89 885.263 229.788 886.686 231.585V229.17H891.866ZM881.541 242.61C882.988 242.61 884.166 242.19 885.076 241.35C886.009 240.487 886.476 239.367 886.476 237.99C886.476 236.613 886.009 235.505 885.076 234.665C884.166 233.802 882.988 233.37 881.541 233.37C880.094 233.37 878.904 233.802 877.971 234.665C877.038 235.505 876.571 236.613 876.571 237.99C876.571 239.367 877.038 240.487 877.971 241.35C878.904 242.19 880.094 242.61 881.541 242.61ZM907.245 223.5H912.915V248H907.245V223.5ZM929.789 228.89C932.123 228.89 934.001 229.59 935.424 230.99C936.871 232.39 937.594 234.467 937.594 237.22V248H932.134V238.06C932.134 236.567 931.808 235.458 931.154 234.735C930.501 233.988 929.556 233.615 928.319 233.615C926.943 233.615 925.846 234.047 925.029 234.91C924.213 235.75 923.804 237.01 923.804 238.69V248H918.344V229.17H923.559V231.375C924.283 230.582 925.181 229.975 926.254 229.555C927.328 229.112 928.506 228.89 929.789 228.89ZM964.601 247.09C964.064 247.487 963.399 247.79 962.606 248C961.836 248.187 961.019 248.28 960.156 248.28C957.916 248.28 956.177 247.708 954.941 246.565C953.727 245.422 953.121 243.742 953.121 241.525V233.79H950.216V229.59H953.121V225.005H958.581V229.59H963.271V233.79H958.581V241.455C958.581 242.248 958.779 242.867 959.176 243.31C959.596 243.73 960.179 243.94 960.926 243.94C961.789 243.94 962.524 243.707 963.131 243.24L964.601 247.09ZM976.044 248.28C974.061 248.28 972.276 247.872 970.689 247.055C969.126 246.215 967.901 245.06 967.014 243.59C966.128 242.12 965.684 240.452 965.684 238.585C965.684 236.718 966.128 235.05 967.014 233.58C967.901 232.11 969.126 230.967 970.689 230.15C972.276 229.31 974.061 228.89 976.044 228.89C978.028 228.89 979.801 229.31 981.364 230.15C982.928 230.967 984.153 232.11 985.039 233.58C985.926 235.05 986.369 236.718 986.369 238.585C986.369 240.452 985.926 242.12 985.039 243.59C984.153 245.06 982.928 246.215 981.364 247.055C979.801 247.872 978.028 248.28 976.044 248.28ZM976.044 243.8C977.444 243.8 978.588 243.333 979.474 242.4C980.384 241.443 980.839 240.172 980.839 238.585C980.839 236.998 980.384 235.738 979.474 234.805C978.588 233.848 977.444 233.37 976.044 233.37C974.644 233.37 973.489 233.848 972.579 234.805C971.669 235.738 971.214 236.998 971.214 238.585C971.214 240.172 971.669 241.443 972.579 242.4C973.489 243.333 974.644 243.8 976.044 243.8ZM1007.53 228.89C1010.44 228.89 1012.68 229.59 1014.25 230.99C1015.81 232.367 1016.59 234.455 1016.59 237.255V248H1011.48V245.655C1010.45 247.405 1008.54 248.28 1005.74 248.28C1004.29 248.28 1003.03 248.035 1001.96 247.545C1000.91 247.055 1000.11 246.378 999.546 245.515C998.986 244.652 998.706 243.672 998.706 242.575C998.706 240.825 999.359 239.448 1000.67 238.445C1002 237.442 1004.04 236.94 1006.79 236.94H1011.13C1011.13 235.75 1010.77 234.84 1010.05 234.21C1009.32 233.557 1008.24 233.23 1006.79 233.23C1005.79 233.23 1004.8 233.393 1003.82 233.72C1002.86 234.023 1002.04 234.443 1001.37 234.98L999.406 231.165C1000.43 230.442 1001.66 229.882 1003.08 229.485C1004.53 229.088 1006.01 228.89 1007.53 228.89ZM1007.11 244.605C1008.04 244.605 1008.87 244.395 1009.59 243.975C1010.31 243.532 1010.83 242.89 1011.13 242.05V240.125H1007.39C1005.15 240.125 1004.03 240.86 1004.03 242.33C1004.03 243.03 1004.29 243.59 1004.83 244.01C1005.39 244.407 1006.15 244.605 1007.11 244.605ZM1030.84 248.28C1028.83 248.28 1027.02 247.872 1025.41 247.055C1023.83 246.215 1022.58 245.06 1021.67 243.59C1020.78 242.12 1020.34 240.452 1020.34 238.585C1020.34 236.718 1020.78 235.05 1021.67 233.58C1022.58 232.11 1023.83 230.967 1025.41 230.15C1027.02 229.31 1028.83 228.89 1030.84 228.89C1032.82 228.89 1034.55 229.31 1036.02 230.15C1037.51 230.967 1038.6 232.145 1039.27 233.685L1035.04 235.96C1034.06 234.233 1032.65 233.37 1030.8 233.37C1029.38 233.37 1028.2 233.837 1027.27 234.77C1026.33 235.703 1025.87 236.975 1025.87 238.585C1025.87 240.195 1026.33 241.467 1027.27 242.4C1028.2 243.333 1029.38 243.8 1030.8 243.8C1032.67 243.8 1034.08 242.937 1035.04 241.21L1039.27 243.52C1038.6 245.013 1037.51 246.18 1036.02 247.02C1034.55 247.86 1032.82 248.28 1030.84 248.28ZM1051.28 248.28C1049.27 248.28 1047.46 247.872 1045.85 247.055C1044.27 246.215 1043.02 245.06 1042.11 243.59C1041.22 242.12 1040.78 240.452 1040.78 238.585C1040.78 236.718 1041.22 235.05 1042.11 233.58C1043.02 232.11 1044.27 230.967 1045.85 230.15C1047.46 229.31 1049.27 228.89 1051.28 228.89C1053.26 228.89 1054.99 229.31 1056.46 230.15C1057.95 230.967 1059.04 232.145 1059.71 233.685L1055.48 235.96C1054.5 234.233 1053.09 233.37 1051.24 233.37C1049.82 233.37 1048.64 233.837 1047.71 234.77C1046.77 235.703 1046.31 236.975 1046.31 238.585C1046.31 240.195 1046.77 241.467 1047.71 242.4C1048.64 243.333 1049.82 243.8 1051.24 243.8C1053.11 243.8 1054.52 242.937 1055.48 241.21L1059.71 243.52C1059.04 245.013 1057.95 246.18 1056.46 247.02C1054.99 247.86 1053.26 248.28 1051.28 248.28ZM1081.06 238.655C1081.06 238.725 1081.03 239.215 1080.96 240.125H1066.71C1066.97 241.292 1067.58 242.213 1068.53 242.89C1069.49 243.567 1070.68 243.905 1072.1 243.905C1073.08 243.905 1073.95 243.765 1074.69 243.485C1075.46 243.182 1076.17 242.715 1076.83 242.085L1079.73 245.235C1077.96 247.265 1075.37 248.28 1071.96 248.28C1069.84 248.28 1067.96 247.872 1066.33 247.055C1064.69 246.215 1063.43 245.06 1062.55 243.59C1061.66 242.12 1061.22 240.452 1061.22 238.585C1061.22 236.742 1061.65 235.085 1062.51 233.615C1063.4 232.122 1064.6 230.967 1066.12 230.15C1067.66 229.31 1069.37 228.89 1071.26 228.89C1073.11 228.89 1074.77 229.287 1076.27 230.08C1077.76 230.873 1078.93 232.017 1079.77 233.51C1080.63 234.98 1081.06 236.695 1081.06 238.655ZM1071.3 233.02C1070.06 233.02 1069.02 233.37 1068.18 234.07C1067.34 234.77 1066.83 235.727 1066.64 236.94H1075.92C1075.73 235.75 1075.22 234.805 1074.38 234.105C1073.54 233.382 1072.51 233.02 1071.3 233.02ZM1091.03 248.28C1089.47 248.28 1087.94 248.093 1086.45 247.72C1084.95 247.323 1083.76 246.833 1082.88 246.25L1084.7 242.33C1085.54 242.867 1086.55 243.31 1087.74 243.66C1088.93 243.987 1090.1 244.15 1091.24 244.15C1093.55 244.15 1094.71 243.578 1094.71 242.435C1094.71 241.898 1094.39 241.513 1093.76 241.28C1093.13 241.047 1092.16 240.848 1090.86 240.685C1089.32 240.452 1088.05 240.183 1087.04 239.88C1086.04 239.577 1085.16 239.04 1084.42 238.27C1083.69 237.5 1083.33 236.403 1083.33 234.98C1083.33 233.79 1083.67 232.74 1084.35 231.83C1085.05 230.897 1086.05 230.173 1087.36 229.66C1088.69 229.147 1090.25 228.89 1092.05 228.89C1093.38 228.89 1094.7 229.042 1096 229.345C1097.33 229.625 1098.43 230.022 1099.29 230.535L1097.47 234.42C1095.82 233.487 1094.01 233.02 1092.05 233.02C1090.88 233.02 1090.01 233.183 1089.42 233.51C1088.84 233.837 1088.55 234.257 1088.55 234.77C1088.55 235.353 1088.86 235.762 1089.49 235.995C1090.12 236.228 1091.13 236.45 1092.5 236.66C1094.04 236.917 1095.3 237.197 1096.28 237.5C1097.26 237.78 1098.11 238.305 1098.84 239.075C1099.56 239.845 1099.92 240.918 1099.92 242.295C1099.92 243.462 1099.57 244.5 1098.87 245.41C1098.17 246.32 1097.15 247.032 1095.79 247.545C1094.46 248.035 1092.88 248.28 1091.03 248.28ZM1109.63 248.28C1108.06 248.28 1106.53 248.093 1105.04 247.72C1103.55 247.323 1102.36 246.833 1101.47 246.25L1103.29 242.33C1104.13 242.867 1105.15 243.31 1106.34 243.66C1107.53 243.987 1108.69 244.15 1109.84 244.15C1112.15 244.15 1113.3 243.578 1113.3 242.435C1113.3 241.898 1112.99 241.513 1112.36 241.28C1111.73 241.047 1110.76 240.848 1109.45 240.685C1107.91 240.452 1106.64 240.183 1105.64 239.88C1104.63 239.577 1103.76 239.04 1103.01 238.27C1102.29 237.5 1101.93 236.403 1101.93 234.98C1101.93 233.79 1102.26 232.74 1102.94 231.83C1103.64 230.897 1104.64 230.173 1105.95 229.66C1107.28 229.147 1108.84 228.89 1110.64 228.89C1111.97 228.89 1113.29 229.042 1114.6 229.345C1115.93 229.625 1117.02 230.022 1117.89 230.535L1116.07 234.42C1114.41 233.487 1112.6 233.02 1110.64 233.02C1109.47 233.02 1108.6 233.183 1108.02 233.51C1107.43 233.837 1107.14 234.257 1107.14 234.77C1107.14 235.353 1107.46 235.762 1108.09 235.995C1108.72 236.228 1109.72 236.45 1111.1 236.66C1112.64 236.917 1113.9 237.197 1114.88 237.5C1115.86 237.78 1116.71 238.305 1117.43 239.075C1118.15 239.845 1118.52 240.918 1118.52 242.295C1118.52 243.462 1118.17 244.5 1117.47 245.41C1116.77 246.32 1115.74 247.032 1114.39 247.545C1113.06 248.035 1111.47 248.28 1109.63 248.28ZM1132.18 223.5H1143.31C1145.97 223.5 1148.32 224.013 1150.35 225.04C1152.4 226.043 1153.99 227.467 1155.11 229.31C1156.25 231.153 1156.82 233.3 1156.82 235.75C1156.82 238.2 1156.25 240.347 1155.11 242.19C1153.99 244.033 1152.4 245.468 1150.35 246.495C1148.32 247.498 1145.97 248 1143.31 248H1132.18V223.5ZM1143.03 243.345C1145.48 243.345 1147.43 242.668 1148.88 241.315C1150.35 239.938 1151.08 238.083 1151.08 235.75C1151.08 233.417 1150.35 231.573 1148.88 230.22C1147.43 228.843 1145.48 228.155 1143.03 228.155H1137.85V243.345H1143.03ZM1168.31 228.89C1171.22 228.89 1173.46 229.59 1175.03 230.99C1176.59 232.367 1177.37 234.455 1177.37 237.255V248H1172.26V245.655C1171.24 247.405 1169.32 248.28 1166.52 248.28C1165.08 248.28 1163.82 248.035 1162.74 247.545C1161.69 247.055 1160.89 246.378 1160.33 245.515C1159.77 244.652 1159.49 243.672 1159.49 242.575C1159.49 240.825 1160.14 239.448 1161.45 238.445C1162.78 237.442 1164.82 236.94 1167.57 236.94H1171.91C1171.91 235.75 1171.55 234.84 1170.83 234.21C1170.1 233.557 1169.02 233.23 1167.57 233.23C1166.57 233.23 1165.58 233.393 1164.6 233.72C1163.64 234.023 1162.82 234.443 1162.15 234.98L1160.19 231.165C1161.21 230.442 1162.44 229.882 1163.86 229.485C1165.31 229.088 1166.79 228.89 1168.31 228.89ZM1167.89 244.605C1168.82 244.605 1169.65 244.395 1170.37 243.975C1171.1 243.532 1171.61 242.89 1171.91 242.05V240.125H1168.17C1165.93 240.125 1164.81 240.86 1164.81 242.33C1164.81 243.03 1165.08 243.59 1165.61 244.01C1166.17 244.407 1166.93 244.605 1167.89 244.605ZM1188.65 248.28C1187.09 248.28 1185.56 248.093 1184.06 247.72C1182.57 247.323 1181.38 246.833 1180.49 246.25L1182.31 242.33C1183.15 242.867 1184.17 243.31 1185.36 243.66C1186.55 243.987 1187.72 244.15 1188.86 244.15C1191.17 244.15 1192.32 243.578 1192.32 242.435C1192.32 241.898 1192.01 241.513 1191.38 241.28C1190.75 241.047 1189.78 240.848 1188.47 240.685C1186.93 240.452 1185.66 240.183 1184.66 239.88C1183.66 239.577 1182.78 239.04 1182.03 238.27C1181.31 237.5 1180.95 236.403 1180.95 234.98C1180.95 233.79 1181.29 232.74 1181.96 231.83C1182.66 230.897 1183.67 230.173 1184.97 229.66C1186.3 229.147 1187.87 228.89 1189.66 228.89C1190.99 228.89 1192.31 229.042 1193.62 229.345C1194.95 229.625 1196.05 230.022 1196.91 230.535L1195.09 234.42C1193.43 233.487 1191.62 233.02 1189.66 233.02C1188.5 233.02 1187.62 233.183 1187.04 233.51C1186.46 233.837 1186.16 234.257 1186.16 234.77C1186.16 235.353 1186.48 235.762 1187.11 235.995C1187.74 236.228 1188.74 236.45 1190.12 236.66C1191.66 236.917 1192.92 237.197 1193.9 237.5C1194.88 237.78 1195.73 238.305 1196.45 239.075C1197.18 239.845 1197.54 240.918 1197.54 242.295C1197.54 243.462 1197.19 244.5 1196.49 245.41C1195.79 246.32 1194.76 247.032 1193.41 247.545C1192.08 248.035 1190.49 248.28 1188.65 248.28ZM1212.35 228.89C1214.69 228.89 1216.56 229.59 1217.99 230.99C1219.43 232.39 1220.16 234.467 1220.16 237.22V248H1214.7V238.06C1214.7 236.567 1214.37 235.458 1213.72 234.735C1213.06 233.988 1212.12 233.615 1210.88 233.615C1209.51 233.615 1208.41 234.047 1207.59 234.91C1206.78 235.75 1206.37 237.01 1206.37 238.69V248H1200.91V222.03H1206.37V231.13C1207.09 230.407 1207.97 229.858 1208.99 229.485C1210.02 229.088 1211.14 228.89 1212.35 228.89ZM1236.24 228.89C1237.99 228.89 1239.57 229.298 1241 230.115C1242.44 230.908 1243.58 232.04 1244.39 233.51C1245.21 234.957 1245.62 236.648 1245.62 238.585C1245.62 240.522 1245.21 242.225 1244.39 243.695C1243.58 245.142 1242.44 246.273 1241 247.09C1239.57 247.883 1237.99 248.28 1236.24 248.28C1233.65 248.28 1231.68 247.463 1230.32 245.83V248H1225.11V222.03H1230.57V231.165C1231.94 229.648 1233.83 228.89 1236.24 228.89ZM1235.29 243.8C1236.69 243.8 1237.84 243.333 1238.72 242.4C1239.63 241.443 1240.09 240.172 1240.09 238.585C1240.09 236.998 1239.63 235.738 1238.72 234.805C1237.84 233.848 1236.69 233.37 1235.29 233.37C1233.89 233.37 1232.74 233.848 1231.83 234.805C1230.94 235.738 1230.5 236.998 1230.5 238.585C1230.5 240.172 1230.94 241.443 1231.83 242.4C1232.74 243.333 1233.89 243.8 1235.29 243.8ZM1258.23 248.28C1256.25 248.28 1254.46 247.872 1252.88 247.055C1251.31 246.215 1250.09 245.06 1249.2 243.59C1248.32 242.12 1247.87 240.452 1247.87 238.585C1247.87 236.718 1248.32 235.05 1249.2 233.58C1250.09 232.11 1251.31 230.967 1252.88 230.15C1254.46 229.31 1256.25 228.89 1258.23 228.89C1260.22 228.89 1261.99 229.31 1263.55 230.15C1265.12 230.967 1266.34 232.11 1267.23 233.58C1268.11 235.05 1268.56 236.718 1268.56 238.585C1268.56 240.452 1268.11 242.12 1267.23 243.59C1266.34 245.06 1265.12 246.215 1263.55 247.055C1261.99 247.872 1260.22 248.28 1258.23 248.28ZM1258.23 243.8C1259.63 243.8 1260.78 243.333 1261.66 242.4C1262.57 241.443 1263.03 240.172 1263.03 238.585C1263.03 236.998 1262.57 235.738 1261.66 234.805C1260.78 233.848 1259.63 233.37 1258.23 233.37C1256.83 233.37 1255.68 233.848 1254.77 234.805C1253.86 235.738 1253.4 236.998 1253.4 238.585C1253.4 240.172 1253.86 241.443 1254.77 242.4C1255.68 243.333 1256.83 243.8 1258.23 243.8ZM1279.49 228.89C1282.41 228.89 1284.65 229.59 1286.21 230.99C1287.78 232.367 1288.56 234.455 1288.56 237.255V248H1283.45V245.655C1282.42 247.405 1280.51 248.28 1277.71 248.28C1276.26 248.28 1275 248.035 1273.93 247.545C1272.88 247.055 1272.07 246.378 1271.51 245.515C1270.95 244.652 1270.67 243.672 1270.67 242.575C1270.67 240.825 1271.33 239.448 1272.63 238.445C1273.96 237.442 1276.01 236.94 1278.76 236.94H1283.1C1283.1 235.75 1282.74 234.84 1282.01 234.21C1281.29 233.557 1280.21 233.23 1278.76 233.23C1277.76 233.23 1276.76 233.393 1275.78 233.72C1274.83 234.023 1274.01 234.443 1273.33 234.98L1271.37 231.165C1272.4 230.442 1273.63 229.882 1275.05 229.485C1276.5 229.088 1277.98 228.89 1279.49 228.89ZM1279.07 244.605C1280.01 244.605 1280.84 244.395 1281.56 243.975C1282.28 243.532 1282.8 242.89 1283.1 242.05V240.125H1279.35C1277.11 240.125 1275.99 240.86 1275.99 242.33C1275.99 243.03 1276.26 243.59 1276.8 244.01C1277.36 244.407 1278.12 244.605 1279.07 244.605ZM1298.72 231.655C1299.37 230.745 1300.24 230.057 1301.34 229.59C1302.46 229.123 1303.74 228.89 1305.19 228.89V233.93C1304.58 233.883 1304.18 233.86 1303.97 233.86C1302.4 233.86 1301.18 234.303 1300.29 235.19C1299.4 236.053 1298.96 237.36 1298.96 239.11V248H1293.5V229.17H1298.72V231.655ZM1327.45 222.03V248H1322.23V245.83C1320.88 247.463 1318.92 248.28 1316.35 248.28C1314.58 248.28 1312.97 247.883 1311.52 247.09C1310.1 246.297 1308.98 245.165 1308.16 243.695C1307.34 242.225 1306.94 240.522 1306.94 238.585C1306.94 236.648 1307.34 234.945 1308.16 233.475C1308.98 232.005 1310.1 230.873 1311.52 230.08C1312.97 229.287 1314.58 228.89 1316.35 228.89C1318.75 228.89 1320.63 229.648 1321.99 231.165V222.03H1327.45ZM1317.3 243.8C1318.67 243.8 1319.82 243.333 1320.73 242.4C1321.64 241.443 1322.09 240.172 1322.09 238.585C1322.09 236.998 1321.64 235.738 1320.73 234.805C1319.82 233.848 1318.67 233.37 1317.3 233.37C1315.9 233.37 1314.74 233.848 1313.83 234.805C1312.92 235.738 1312.47 236.998 1312.47 238.585C1312.47 240.172 1312.92 241.443 1313.83 242.4C1314.74 243.333 1315.9 243.8 1317.3 243.8Z" fill="black"/>
<rect x="824" y="356" width="494" height="3" fill="#C4C4C4"/>
<path d="M833.504 339.144C831.328 339.144 829.632 338.52 828.416 337.272C827.2 336.024 826.592 334.208 826.592 331.824V322.2H828.368V331.752C828.368 333.704 828.808 335.16 829.688 336.12C830.568 337.08 831.84 337.56 833.504 337.56C835.184 337.56 836.464 337.08 837.344 336.12C838.224 335.16 838.664 333.704 838.664 331.752V322.2H840.392V331.824C840.392 334.208 839.784 336.024 838.568 337.272C837.368 338.52 835.68 339.144 833.504 339.144ZM848.768 339.12C847.744 339.12 846.76 338.976 845.816 338.688C844.888 338.384 844.16 338.008 843.632 337.56L844.4 336.216C844.928 336.632 845.592 336.976 846.392 337.248C847.192 337.504 848.024 337.632 848.888 337.632C850.04 337.632 850.888 337.456 851.432 337.104C851.992 336.736 852.272 336.224 852.272 335.568C852.272 335.104 852.12 334.744 851.816 334.488C851.512 334.216 851.128 334.016 850.664 333.888C850.2 333.744 849.584 333.608 848.816 333.48C847.792 333.288 846.968 333.096 846.344 332.904C845.72 332.696 845.184 332.352 844.736 331.872C844.304 331.392 844.088 330.728 844.088 329.88C844.088 328.824 844.528 327.96 845.408 327.288C846.288 326.616 847.512 326.28 849.08 326.28C849.896 326.28 850.712 326.392 851.528 326.616C852.344 326.824 853.016 327.104 853.544 327.456L852.8 328.824C851.76 328.104 850.52 327.744 849.08 327.744C847.992 327.744 847.168 327.936 846.608 328.32C846.064 328.704 845.792 329.208 845.792 329.832C845.792 330.312 845.944 330.696 846.248 330.984C846.568 331.272 846.96 331.488 847.424 331.632C847.888 331.76 848.528 331.896 849.344 332.04C850.352 332.232 851.16 332.424 851.768 332.616C852.376 332.808 852.896 333.136 853.328 333.6C853.76 334.064 853.976 334.704 853.976 335.52C853.976 336.624 853.512 337.504 852.584 338.16C851.672 338.8 850.4 339.12 848.768 339.12ZM868.118 333.216H857.558C857.654 334.528 858.158 335.592 859.07 336.408C859.982 337.208 861.134 337.608 862.526 337.608C863.31 337.608 864.03 337.472 864.686 337.2C865.342 336.912 865.91 336.496 866.39 335.952L867.35 337.056C866.79 337.728 866.086 338.24 865.238 338.592C864.406 338.944 863.486 339.12 862.478 339.12C861.182 339.12 860.03 338.848 859.022 338.304C858.03 337.744 857.254 336.976 856.694 336C856.134 335.024 855.854 333.92 855.854 332.688C855.854 331.456 856.118 330.352 856.646 329.376C857.19 328.4 857.926 327.64 858.854 327.096C859.798 326.552 860.854 326.28 862.022 326.28C863.19 326.28 864.238 326.552 865.166 327.096C866.094 327.64 866.822 328.4 867.35 329.376C867.878 330.336 868.142 331.44 868.142 332.688L868.118 333.216ZM862.022 327.744C860.806 327.744 859.782 328.136 858.95 328.92C858.134 329.688 857.67 330.696 857.558 331.944H866.51C866.398 330.696 865.926 329.688 865.094 328.92C864.278 328.136 863.254 327.744 862.022 327.744ZM873.242 328.848C873.642 328 874.234 327.36 875.018 326.928C875.818 326.496 876.802 326.28 877.97 326.28V327.936L877.562 327.912C876.234 327.912 875.194 328.32 874.442 329.136C873.69 329.952 873.314 331.096 873.314 332.568V339H871.61V326.376H873.242V328.848ZM887.488 326.28C889.072 326.28 890.328 326.744 891.256 327.672C892.2 328.584 892.672 329.92 892.672 331.68V339H890.968V331.848C890.968 330.536 890.64 329.536 889.984 328.848C889.328 328.16 888.392 327.816 887.176 327.816C885.816 327.816 884.736 328.224 883.936 329.04C883.152 329.84 882.76 330.952 882.76 332.376V339H881.056V326.376H882.688V328.704C883.152 327.936 883.792 327.344 884.608 326.928C885.44 326.496 886.4 326.28 887.488 326.28ZM901.714 326.28C903.362 326.28 904.626 326.696 905.506 327.528C906.386 328.344 906.826 329.56 906.826 331.176V339H905.194V337.032C904.81 337.688 904.242 338.2 903.49 338.568C902.754 338.936 901.874 339.12 900.85 339.12C899.442 339.12 898.322 338.784 897.49 338.112C896.658 337.44 896.242 336.552 896.242 335.448C896.242 334.376 896.626 333.512 897.394 332.856C898.178 332.2 899.418 331.872 901.114 331.872H905.122V331.104C905.122 330.016 904.818 329.192 904.21 328.632C903.602 328.056 902.714 327.768 901.546 327.768C900.746 327.768 899.978 327.904 899.242 328.176C898.506 328.432 897.874 328.792 897.346 329.256L896.578 327.984C897.218 327.44 897.986 327.024 898.882 326.736C899.778 326.432 900.722 326.28 901.714 326.28ZM901.114 337.776C902.074 337.776 902.898 337.56 903.586 337.128C904.274 336.68 904.786 336.04 905.122 335.208V333.144H901.162C899.002 333.144 897.922 333.896 897.922 335.4C897.922 336.136 898.202 336.72 898.762 337.152C899.322 337.568 900.106 337.776 901.114 337.776ZM927.198 326.28C928.782 326.28 930.022 326.736 930.918 327.648C931.83 328.56 932.286 329.904 932.286 331.68V339H930.582V331.848C930.582 330.536 930.262 329.536 929.622 328.848C928.998 328.16 928.11 327.816 926.958 327.816C925.646 327.816 924.614 328.224 923.862 329.04C923.11 329.84 922.734 330.952 922.734 332.376V339H921.03V331.848C921.03 330.536 920.71 329.536 920.07 328.848C919.446 328.16 918.55 327.816 917.382 327.816C916.086 327.816 915.054 328.224 914.286 329.04C913.534 329.84 913.158 330.952 913.158 332.376V339H911.454V326.376H913.086V328.68C913.534 327.912 914.158 327.32 914.958 326.904C915.758 326.488 916.678 326.28 917.718 326.28C918.774 326.28 919.686 326.504 920.454 326.952C921.238 327.4 921.822 328.064 922.206 328.944C922.67 328.112 923.334 327.464 924.198 327C925.078 326.52 926.078 326.28 927.198 326.28ZM947.946 333.216H937.386C937.482 334.528 937.986 335.592 938.898 336.408C939.81 337.208 940.962 337.608 942.354 337.608C943.138 337.608 943.858 337.472 944.514 337.2C945.17 336.912 945.738 336.496 946.218 335.952L947.178 337.056C946.618 337.728 945.914 338.24 945.066 338.592C944.234 338.944 943.314 339.12 942.306 339.12C941.01 339.12 939.858 338.848 938.85 338.304C937.858 337.744 937.082 336.976 936.522 336C935.962 335.024 935.682 333.92 935.682 332.688C935.682 331.456 935.946 330.352 936.474 329.376C937.018 328.4 937.754 327.64 938.682 327.096C939.626 326.552 940.682 326.28 941.85 326.28C943.018 326.28 944.066 326.552 944.994 327.096C945.922 327.64 946.65 328.4 947.178 329.376C947.706 330.336 947.97 331.44 947.97 332.688L947.946 333.216ZM941.85 327.744C940.634 327.744 939.61 328.136 938.778 328.92C937.962 329.688 937.498 330.696 937.386 331.944H946.338C946.226 330.696 945.754 329.688 944.922 328.92C944.106 328.136 943.082 327.744 941.85 327.744Z" fill="black"/>
<rect x="826" y="490" width="494" height="3" fill="#C4C4C4"/>
<path d="M835.024 456.2C837.168 456.2 838.848 456.712 840.064 457.736C841.28 458.76 841.888 460.168 841.888 461.96C841.888 463.752 841.28 465.16 840.064 466.184C838.848 467.192 837.168 467.696 835.024 467.696H830.512V473H828.736V456.2H835.024ZM834.976 466.136C836.64 466.136 837.912 465.776 838.792 465.056C839.672 464.32 840.112 463.288 840.112 461.96C840.112 460.6 839.672 459.56 838.792 458.84C837.912 458.104 836.64 457.736 834.976 457.736H830.512V466.136H834.976ZM849.667 460.28C851.315 460.28 852.579 460.696 853.459 461.528C854.339 462.344 854.779 463.56 854.779 465.176V473H853.147V471.032C852.763 471.688 852.195 472.2 851.443 472.568C850.707 472.936 849.827 473.12 848.803 473.12C847.395 473.12 846.275 472.784 845.443 472.112C844.611 471.44 844.195 470.552 844.195 469.448C844.195 468.376 844.579 467.512 845.347 466.856C846.131 466.2 847.371 465.872 849.067 465.872H853.075V465.104C853.075 464.016 852.771 463.192 852.163 462.632C851.555 462.056 850.667 461.768 849.499 461.768C848.699 461.768 847.931 461.904 847.195 462.176C846.459 462.432 845.827 462.792 845.299 463.256L844.531 461.984C845.171 461.44 845.939 461.024 846.835 460.736C847.731 460.432 848.675 460.28 849.667 460.28ZM849.067 471.776C850.027 471.776 850.851 471.56 851.539 471.128C852.227 470.68 852.739 470.04 853.075 469.208V467.144H849.115C846.955 467.144 845.875 467.896 845.875 469.4C845.875 470.136 846.155 470.72 846.715 471.152C847.275 471.568 848.059 471.776 849.067 471.776ZM862.791 473.12C861.767 473.12 860.783 472.976 859.839 472.688C858.911 472.384 858.183 472.008 857.655 471.56L858.423 470.216C858.951 470.632 859.615 470.976 860.415 471.248C861.215 471.504 862.047 471.632 862.911 471.632C864.063 471.632 864.911 471.456 865.455 471.104C866.015 470.736 866.295 470.224 866.295 469.568C866.295 469.104 866.143 468.744 865.839 468.488C865.535 468.216 865.151 468.016 864.687 467.888C864.223 467.744 863.607 467.608 862.839 467.48C861.815 467.288 860.991 467.096 860.367 466.904C859.743 466.696 859.207 466.352 858.759 465.872C858.327 465.392 858.111 464.728 858.111 463.88C858.111 462.824 858.551 461.96 859.431 461.288C860.311 460.616 861.535 460.28 863.103 460.28C863.919 460.28 864.735 460.392 865.551 460.616C866.367 460.824 867.039 461.104 867.567 461.456L866.823 462.824C865.783 462.104 864.543 461.744 863.103 461.744C862.015 461.744 861.191 461.936 860.631 462.32C860.087 462.704 859.815 463.208 859.815 463.832C859.815 464.312 859.967 464.696 860.271 464.984C860.591 465.272 860.983 465.488 861.447 465.632C861.911 465.76 862.551 465.896 863.367 466.04C864.375 466.232 865.183 466.424 865.791 466.616C866.399 466.808 866.919 467.136 867.351 467.6C867.783 468.064 867.999 468.704 867.999 469.52C867.999 470.624 867.535 471.504 866.607 472.16C865.695 472.8 864.423 473.12 862.791 473.12ZM874.533 473.12C873.509 473.12 872.525 472.976 871.581 472.688C870.653 472.384 869.925 472.008 869.397 471.56L870.165 470.216C870.693 470.632 871.357 470.976 872.157 471.248C872.957 471.504 873.789 471.632 874.653 471.632C875.805 471.632 876.653 471.456 877.197 471.104C877.757 470.736 878.037 470.224 878.037 469.568C878.037 469.104 877.885 468.744 877.581 468.488C877.277 468.216 876.893 468.016 876.429 467.888C875.965 467.744 875.349 467.608 874.581 467.48C873.557 467.288 872.733 467.096 872.109 466.904C871.485 466.696 870.949 466.352 870.501 465.872C870.069 465.392 869.853 464.728 869.853 463.88C869.853 462.824 870.293 461.96 871.173 461.288C872.053 460.616 873.277 460.28 874.845 460.28C875.661 460.28 876.477 460.392 877.293 460.616C878.109 460.824 878.781 461.104 879.309 461.456L878.565 462.824C877.525 462.104 876.285 461.744 874.845 461.744C873.757 461.744 872.933 461.936 872.373 462.32C871.829 462.704 871.557 463.208 871.557 463.832C871.557 464.312 871.709 464.696 872.013 464.984C872.333 465.272 872.725 465.488 873.189 465.632C873.653 465.76 874.293 465.896 875.109 466.04C876.117 466.232 876.925 466.424 877.533 466.616C878.141 466.808 878.661 467.136 879.093 467.6C879.525 468.064 879.741 468.704 879.741 469.52C879.741 470.624 879.277 471.504 878.349 472.16C877.437 472.8 876.165 473.12 874.533 473.12ZM901.185 460.376L896.409 473H894.801L890.817 462.656L886.833 473H885.225L880.473 460.376H882.105L886.065 471.104L890.121 460.376H891.585L895.617 471.104L899.625 460.376H901.185ZM908.559 473.12C907.343 473.12 906.247 472.848 905.271 472.304C904.295 471.744 903.527 470.976 902.967 470C902.407 469.024 902.127 467.92 902.127 466.688C902.127 465.456 902.407 464.352 902.967 463.376C903.527 462.4 904.295 461.64 905.271 461.096C906.247 460.552 907.343 460.28 908.559 460.28C909.775 460.28 910.871 460.552 911.847 461.096C912.823 461.64 913.583 462.4 914.127 463.376C914.687 464.352 914.967 465.456 914.967 466.688C914.967 467.92 914.687 469.024 914.127 470C913.583 470.976 912.823 471.744 911.847 472.304C910.871 472.848 909.775 473.12 908.559 473.12ZM908.559 471.608C909.455 471.608 910.255 471.408 910.959 471.008C911.679 470.592 912.239 470.008 912.639 469.256C913.039 468.504 913.239 467.648 913.239 466.688C913.239 465.728 913.039 464.872 912.639 464.12C912.239 463.368 911.679 462.792 910.959 462.392C910.255 461.976 909.455 461.768 908.559 461.768C907.663 461.768 906.855 461.976 906.135 462.392C905.431 462.792 904.871 463.368 904.455 464.12C904.055 464.872 903.855 465.728 903.855 466.688C903.855 467.648 904.055 468.504 904.455 469.256C904.871 470.008 905.431 470.592 906.135 471.008C906.855 471.408 907.663 471.608 908.559 471.608ZM920.078 462.848C920.478 462 921.07 461.36 921.854 460.928C922.654 460.496 923.638 460.28 924.806 460.28V461.936L924.398 461.912C923.07 461.912 922.03 462.32 921.278 463.136C920.526 463.952 920.15 465.096 920.15 466.568V473H918.446V460.376H920.078V462.848ZM939.294 455.192V473H937.662V470.504C937.15 471.352 936.47 472 935.622 472.448C934.79 472.896 933.846 473.12 932.79 473.12C931.606 473.12 930.534 472.848 929.574 472.304C928.614 471.76 927.862 471 927.318 470.024C926.774 469.048 926.502 467.936 926.502 466.688C926.502 465.44 926.774 464.328 927.318 463.352C927.862 462.376 928.614 461.624 929.574 461.096C930.534 460.552 931.606 460.28 932.79 460.28C933.814 460.28 934.734 460.496 935.55 460.928C936.382 461.344 937.062 461.96 937.59 462.776V455.192H939.294ZM932.934 471.608C933.814 471.608 934.606 471.408 935.31 471.008C936.03 470.592 936.59 470.008 936.99 469.256C937.406 468.504 937.614 467.648 937.614 466.688C937.614 465.728 937.406 464.872 936.99 464.12C936.59 463.368 936.03 462.792 935.31 462.392C934.606 461.976 933.814 461.768 932.934 461.768C932.038 461.768 931.23 461.976 930.51 462.392C929.806 462.792 929.246 463.368 928.83 464.12C928.43 464.872 928.23 465.728 928.23 466.688C928.23 467.648 928.43 468.504 928.83 469.256C929.246 470.008 929.806 470.592 930.51 471.008C931.23 471.408 932.038 471.608 932.934 471.608Z" fill="black"/>
<path d="M814.736 925.2H821.576C823.352 925.2 824.92 925.56 826.28 926.28C827.64 926.984 828.696 927.976 829.448 929.256C830.2 930.52 830.576 931.968 830.576 933.6C830.576 935.232 830.2 936.688 829.448 937.968C828.696 939.232 827.64 940.224 826.28 940.944C824.92 941.648 823.352 942 821.576 942H814.736V925.2ZM821.48 940.464C822.952 940.464 824.24 940.176 825.344 939.6C826.448 939.008 827.304 938.2 827.912 937.176C828.52 936.136 828.824 934.944 828.824 933.6C828.824 932.256 828.52 931.072 827.912 930.048C827.304 929.008 826.448 928.2 825.344 927.624C824.24 927.032 822.952 926.736 821.48 926.736H816.512V940.464H821.48ZM839.364 942.12C838.148 942.12 837.052 941.848 836.076 941.304C835.1 940.744 834.332 939.976 833.772 939C833.212 938.024 832.932 936.92 832.932 935.688C832.932 934.456 833.212 933.352 833.772 932.376C834.332 931.4 835.1 930.64 836.076 930.096C837.052 929.552 838.148 929.28 839.364 929.28C840.58 929.28 841.676 929.552 842.652 930.096C843.628 930.64 844.388 931.4 844.932 932.376C845.492 933.352 845.772 934.456 845.772 935.688C845.772 936.92 845.492 938.024 844.932 939C844.388 939.976 843.628 940.744 842.652 941.304C841.676 941.848 840.58 942.12 839.364 942.12ZM839.364 940.608C840.26 940.608 841.06 940.408 841.764 940.008C842.484 939.592 843.044 939.008 843.444 938.256C843.844 937.504 844.044 936.648 844.044 935.688C844.044 934.728 843.844 933.872 843.444 933.12C843.044 932.368 842.484 931.792 841.764 931.392C841.06 930.976 840.26 930.768 839.364 930.768C838.468 930.768 837.66 930.976 836.94 931.392C836.236 931.792 835.676 932.368 835.26 933.12C834.86 933.872 834.66 934.728 834.66 935.688C834.66 936.648 834.86 937.504 835.26 938.256C835.676 939.008 836.236 939.592 836.94 940.008C837.66 940.408 838.468 940.608 839.364 940.608ZM855.683 929.28C857.267 929.28 858.523 929.744 859.451 930.672C860.395 931.584 860.867 932.92 860.867 934.68V942H859.163V934.848C859.163 933.536 858.835 932.536 858.179 931.848C857.523 931.16 856.587 930.816 855.371 930.816C854.011 930.816 852.931 931.224 852.131 932.04C851.347 932.84 850.955 933.952 850.955 935.376V942H849.251V929.376H850.883V931.704C851.347 930.936 851.987 930.344 852.803 929.928C853.635 929.496 854.595 929.28 855.683 929.28ZM865.498 924.072C865.866 924.072 866.17 924.2 866.41 924.456C866.65 924.696 866.77 925 866.77 925.368C866.77 925.56 866.738 925.768 866.674 925.992C866.626 926.2 866.554 926.448 866.458 926.736L865.426 930.048H864.274L865.114 926.592C864.842 926.512 864.626 926.368 864.466 926.16C864.306 925.936 864.226 925.672 864.226 925.368C864.226 924.984 864.346 924.672 864.586 924.432C864.826 924.192 865.13 924.072 865.498 924.072ZM877.087 941.232C876.767 941.52 876.367 941.744 875.887 941.904C875.423 942.048 874.935 942.12 874.423 942.12C873.239 942.12 872.327 941.8 871.687 941.16C871.047 940.52 870.727 939.616 870.727 938.448V930.816H868.471V929.376H870.727V926.616H872.431V929.376H876.271V930.816H872.431V938.352C872.431 939.104 872.615 939.68 872.983 940.08C873.367 940.464 873.911 940.656 874.615 940.656C874.967 940.656 875.303 940.6 875.623 940.488C875.959 940.376 876.247 940.216 876.487 940.008L877.087 941.232ZM892.902 929.28C894.486 929.28 895.742 929.744 896.67 930.672C897.614 931.584 898.086 932.92 898.086 934.68V942H896.382V934.848C896.382 933.536 896.054 932.536 895.398 931.848C894.742 931.16 893.806 930.816 892.59 930.816C891.23 930.816 890.15 931.224 889.35 932.04C888.566 932.84 888.174 933.952 888.174 935.376V942H886.47V924.192H888.174V931.584C888.638 930.848 889.278 930.28 890.094 929.88C890.91 929.48 891.846 929.28 892.902 929.28ZM907.128 929.28C908.776 929.28 910.04 929.696 910.92 930.528C911.8 931.344 912.24 932.56 912.24 934.176V942H910.608V940.032C910.224 940.688 909.656 941.2 908.904 941.568C908.168 941.936 907.288 942.12 906.264 942.12C904.856 942.12 903.736 941.784 902.904 941.112C902.072 940.44 901.656 939.552 901.656 938.448C901.656 937.376 902.04 936.512 902.808 935.856C903.592 935.2 904.832 934.872 906.528 934.872H910.536V934.104C910.536 933.016 910.232 932.192 909.624 931.632C909.016 931.056 908.128 930.768 906.96 930.768C906.16 930.768 905.392 930.904 904.656 931.176C903.92 931.432 903.288 931.792 902.76 932.256L901.992 930.984C902.632 930.44 903.4 930.024 904.296 929.736C905.192 929.432 906.136 929.28 907.128 929.28ZM906.528 940.776C907.488 940.776 908.312 940.56 909 940.128C909.688 939.68 910.2 939.04 910.536 938.208V936.144H906.576C904.416 936.144 903.336 936.896 903.336 938.4C903.336 939.136 903.616 939.72 904.176 940.152C904.736 940.568 905.52 940.776 906.528 940.776ZM927.242 929.376L921.626 942H919.874L914.282 929.376H916.058L920.786 940.128L925.562 929.376H927.242ZM940.282 936.216H929.722C929.818 937.528 930.322 938.592 931.234 939.408C932.146 940.208 933.298 940.608 934.69 940.608C935.474 940.608 936.194 940.472 936.85 940.2C937.506 939.912 938.074 939.496 938.554 938.952L939.514 940.056C938.954 940.728 938.25 941.24 937.402 941.592C936.57 941.944 935.65 942.12 934.642 942.12C933.346 942.12 932.194 941.848 931.186 941.304C930.194 940.744 929.418 939.976 928.858 939C928.298 938.024 928.018 936.92 928.018 935.688C928.018 934.456 928.282 933.352 928.81 932.376C929.354 931.4 930.09 930.64 931.018 930.096C931.962 929.552 933.018 929.28 934.186 929.28C935.354 929.28 936.402 929.552 937.33 930.096C938.258 930.64 938.986 931.4 939.514 932.376C940.042 933.336 940.306 934.44 940.306 935.688L940.282 936.216ZM934.186 930.744C932.97 930.744 931.946 931.136 931.114 931.92C930.298 932.688 929.834 933.696 929.722 934.944H938.674C938.562 933.696 938.09 932.688 937.258 931.92C936.442 931.136 935.418 930.744 934.186 930.744ZM954.472 929.28C956.12 929.28 957.384 929.696 958.264 930.528C959.144 931.344 959.584 932.56 959.584 934.176V942H957.952V940.032C957.568 940.688 957 941.2 956.248 941.568C955.512 941.936 954.632 942.12 953.608 942.12C952.2 942.12 951.08 941.784 950.248 941.112C949.416 940.44 949 939.552 949 938.448C949 937.376 949.384 936.512 950.152 935.856C950.936 935.2 952.176 934.872 953.872 934.872H957.88V934.104C957.88 933.016 957.576 932.192 956.968 931.632C956.36 931.056 955.472 930.768 954.304 930.768C953.504 930.768 952.736 930.904 952 931.176C951.264 931.432 950.632 931.792 950.104 932.256L949.336 930.984C949.976 930.44 950.744 930.024 951.64 929.736C952.536 929.432 953.48 929.28 954.472 929.28ZM953.872 940.776C954.832 940.776 955.656 940.56 956.344 940.128C957.032 939.68 957.544 939.04 957.88 938.208V936.144H953.92C951.76 936.144 950.68 936.896 950.68 938.4C950.68 939.136 950.96 939.72 951.52 940.152C952.08 940.568 952.864 940.776 953.872 940.776ZM970.644 929.28C972.228 929.28 973.484 929.744 974.412 930.672C975.356 931.584 975.828 932.92 975.828 934.68V942H974.124V934.848C974.124 933.536 973.796 932.536 973.14 931.848C972.484 931.16 971.548 930.816 970.332 930.816C968.972 930.816 967.892 931.224 967.092 932.04C966.308 932.84 965.916 933.952 965.916 935.376V942H964.212V929.376H965.844V931.704C966.308 930.936 966.948 930.344 967.764 929.928C968.596 929.496 969.556 929.28 970.644 929.28ZM991.151 929.28C992.799 929.28 994.063 929.696 994.943 930.528C995.823 931.344 996.263 932.56 996.263 934.176V942H994.631V940.032C994.247 940.688 993.679 941.2 992.927 941.568C992.191 941.936 991.311 942.12 990.287 942.12C988.879 942.12 987.759 941.784 986.927 941.112C986.095 940.44 985.679 939.552 985.679 938.448C985.679 937.376 986.063 936.512 986.831 935.856C987.615 935.2 988.855 934.872 990.551 934.872H994.559V934.104C994.559 933.016 994.255 932.192 993.647 931.632C993.039 931.056 992.151 930.768 990.983 930.768C990.183 930.768 989.415 930.904 988.679 931.176C987.943 931.432 987.311 931.792 986.783 932.256L986.015 930.984C986.655 930.44 987.423 930.024 988.319 929.736C989.215 929.432 990.159 929.28 991.151 929.28ZM990.551 940.776C991.511 940.776 992.335 940.56 993.023 940.128C993.711 939.68 994.223 939.04 994.559 938.208V936.144H990.599C988.439 936.144 987.359 936.896 987.359 938.4C987.359 939.136 987.639 939.72 988.199 940.152C988.759 940.568 989.543 940.776 990.551 940.776ZM1006.17 942.12C1004.92 942.12 1003.8 941.848 1002.81 941.304C1001.83 940.76 1001.07 940 1000.51 939.024C999.947 938.032 999.667 936.92 999.667 935.688C999.667 934.456 999.947 933.352 1000.51 932.376C1001.07 931.4 1001.83 930.64 1002.81 930.096C1003.8 929.552 1004.92 929.28 1006.17 929.28C1007.26 929.28 1008.23 929.496 1009.07 929.928C1009.94 930.344 1010.62 930.96 1011.11 931.776L1009.84 932.64C1009.43 932.016 1008.9 931.552 1008.26 931.248C1007.62 930.928 1006.92 930.768 1006.17 930.768C1005.26 930.768 1004.43 930.976 1003.7 931.392C1002.98 931.792 1002.41 932.368 1001.99 933.12C1001.59 933.872 1001.39 934.728 1001.39 935.688C1001.39 936.664 1001.59 937.528 1001.99 938.28C1002.41 939.016 1002.98 939.592 1003.7 940.008C1004.43 940.408 1005.26 940.608 1006.17 940.608C1006.92 940.608 1007.62 940.456 1008.26 940.152C1008.9 939.848 1009.43 939.384 1009.84 938.76L1011.11 939.624C1010.62 940.44 1009.94 941.064 1009.07 941.496C1008.21 941.912 1007.24 942.12 1006.17 942.12ZM1019.48 942.12C1018.24 942.12 1017.12 941.848 1016.12 941.304C1015.15 940.76 1014.38 940 1013.82 939.024C1013.26 938.032 1012.98 936.92 1012.98 935.688C1012.98 934.456 1013.26 933.352 1013.82 932.376C1014.38 931.4 1015.15 930.64 1016.12 930.096C1017.12 929.552 1018.24 929.28 1019.48 929.28C1020.57 929.28 1021.54 929.496 1022.39 929.928C1023.25 930.344 1023.93 930.96 1024.43 931.776L1023.16 932.64C1022.74 932.016 1022.21 931.552 1021.57 931.248C1020.93 930.928 1020.24 930.768 1019.48 930.768C1018.57 930.768 1017.75 930.976 1017.01 931.392C1016.29 931.792 1015.72 932.368 1015.31 933.12C1014.91 933.872 1014.71 934.728 1014.71 935.688C1014.71 936.664 1014.91 937.528 1015.31 938.28C1015.72 939.016 1016.29 939.592 1017.01 940.008C1017.75 940.408 1018.57 940.608 1019.48 940.608C1020.24 940.608 1020.93 940.456 1021.57 940.152C1022.21 939.848 1022.74 939.384 1023.16 938.76L1024.43 939.624C1023.93 940.44 1023.25 941.064 1022.39 941.496C1021.52 941.912 1020.56 942.12 1019.48 942.12ZM1032.72 942.12C1031.51 942.12 1030.41 941.848 1029.44 941.304C1028.46 940.744 1027.69 939.976 1027.13 939C1026.57 938.024 1026.29 936.92 1026.29 935.688C1026.29 934.456 1026.57 933.352 1027.13 932.376C1027.69 931.4 1028.46 930.64 1029.44 930.096C1030.41 929.552 1031.51 929.28 1032.72 929.28C1033.94 929.28 1035.04 929.552 1036.01 930.096C1036.99 930.64 1037.75 931.4 1038.29 932.376C1038.85 933.352 1039.13 934.456 1039.13 935.688C1039.13 936.92 1038.85 938.024 1038.29 939C1037.75 939.976 1036.99 940.744 1036.01 941.304C1035.04 941.848 1033.94 942.12 1032.72 942.12ZM1032.72 940.608C1033.62 940.608 1034.42 940.408 1035.12 940.008C1035.84 939.592 1036.4 939.008 1036.8 938.256C1037.2 937.504 1037.4 936.648 1037.4 935.688C1037.4 934.728 1037.2 933.872 1036.8 933.12C1036.4 932.368 1035.84 931.792 1035.12 931.392C1034.42 930.976 1033.62 930.768 1032.72 930.768C1031.83 930.768 1031.02 930.976 1030.3 931.392C1029.6 931.792 1029.04 932.368 1028.62 933.12C1028.22 933.872 1028.02 934.728 1028.02 935.688C1028.02 936.648 1028.22 937.504 1028.62 938.256C1029.04 939.008 1029.6 939.592 1030.3 940.008C1031.02 940.408 1031.83 940.608 1032.72 940.608ZM1053.99 929.376V942H1052.35V939.696C1051.91 940.464 1051.29 941.064 1050.51 941.496C1049.72 941.912 1048.83 942.12 1047.82 942.12C1046.17 942.12 1044.87 941.664 1043.91 940.752C1042.96 939.824 1042.49 938.472 1042.49 936.696V929.376H1044.19V936.528C1044.19 937.856 1044.52 938.864 1045.18 939.552C1045.83 940.24 1046.77 940.584 1047.99 940.584C1049.31 940.584 1050.36 940.184 1051.13 939.384C1051.9 938.568 1052.28 937.44 1052.28 936V929.376H1053.99ZM1065.19 929.28C1066.77 929.28 1068.03 929.744 1068.96 930.672C1069.9 931.584 1070.37 932.92 1070.37 934.68V942H1068.67V934.848C1068.67 933.536 1068.34 932.536 1067.69 931.848C1067.03 931.16 1066.09 930.816 1064.88 930.816C1063.52 930.816 1062.44 931.224 1061.64 932.04C1060.85 932.84 1060.46 933.952 1060.46 935.376V942H1058.76V929.376H1060.39V931.704C1060.85 930.936 1061.49 930.344 1062.31 929.928C1063.14 929.496 1064.1 929.28 1065.19 929.28ZM1081.65 941.232C1081.33 941.52 1080.93 941.744 1080.45 941.904C1079.99 942.048 1079.5 942.12 1078.99 942.12C1077.8 942.12 1076.89 941.8 1076.25 941.16C1075.61 940.52 1075.29 939.616 1075.29 938.448V930.816H1073.03V929.376H1075.29V926.616H1076.99V929.376H1080.83V930.816H1076.99V938.352C1076.99 939.104 1077.18 939.68 1077.55 940.08C1077.93 940.464 1078.47 940.656 1079.18 940.656C1079.53 940.656 1079.87 940.6 1080.19 940.488C1080.52 940.376 1080.81 940.216 1081.05 940.008L1081.65 941.232ZM1087.59 936.96C1087.59 936.304 1087.7 935.728 1087.91 935.232C1088.13 934.736 1088.4 934.312 1088.72 933.96C1089.04 933.608 1089.46 933.208 1089.97 932.76C1090.66 932.152 1091.16 931.624 1091.48 931.176C1091.82 930.712 1091.99 930.152 1091.99 929.496C1091.99 928.616 1091.64 927.912 1090.95 927.384C1090.27 926.84 1089.32 926.568 1088.12 926.568C1086.14 926.568 1084.61 927.216 1083.54 928.512L1082.27 927.552C1083.63 925.888 1085.62 925.056 1088.24 925.056C1089.92 925.056 1091.26 925.432 1092.25 926.184C1093.26 926.936 1093.76 927.952 1093.76 929.232C1093.76 929.888 1093.65 930.472 1093.43 930.984C1093.22 931.48 1092.95 931.904 1092.63 932.256C1092.33 932.608 1091.92 933.016 1091.41 933.48C1090.72 934.104 1090.21 934.664 1089.87 935.16C1089.54 935.64 1089.37 936.24 1089.37 936.96H1087.59ZM1088.48 942.12C1088.13 942.12 1087.83 942 1087.59 941.76C1087.35 941.504 1087.23 941.208 1087.23 940.872C1087.23 940.52 1087.35 940.232 1087.59 940.008C1087.83 939.768 1088.13 939.648 1088.48 939.648C1088.85 939.648 1089.15 939.768 1089.39 940.008C1089.63 940.232 1089.75 940.52 1089.75 940.872C1089.75 941.208 1089.63 941.504 1089.37 941.76C1089.13 942 1088.83 942.12 1088.48 942.12ZM1102.94 942.12C1101.7 942.12 1100.58 941.848 1099.58 941.304C1098.61 940.76 1097.84 940 1097.28 939.024C1096.72 938.032 1096.44 936.92 1096.44 935.688C1096.44 934.456 1096.72 933.352 1097.28 932.376C1097.84 931.4 1098.61 930.64 1099.58 930.096C1100.58 929.552 1101.7 929.28 1102.94 929.28C1104.03 929.28 1105 929.496 1105.85 929.928C1106.71 930.344 1107.39 930.96 1107.89 931.776L1106.62 932.64C1106.2 932.016 1105.67 931.552 1105.03 931.248C1104.39 930.928 1103.7 930.768 1102.94 930.768C1102.03 930.768 1101.21 930.976 1100.47 931.392C1099.75 931.792 1099.18 932.368 1098.77 933.12C1098.37 933.872 1098.17 934.728 1098.17 935.688C1098.17 936.664 1098.37 937.528 1098.77 938.28C1099.18 939.016 1099.75 939.592 1100.47 940.008C1101.21 940.408 1102.03 940.608 1102.94 940.608C1103.7 940.608 1104.39 940.456 1105.03 940.152C1105.67 939.848 1106.2 939.384 1106.62 938.76L1107.89 939.624C1107.39 940.44 1106.71 941.064 1105.85 941.496C1104.98 941.912 1104.02 942.12 1102.94 942.12ZM1112.87 931.848C1113.27 931 1113.86 930.36 1114.64 929.928C1115.44 929.496 1116.43 929.28 1117.6 929.28V930.936L1117.19 930.912C1115.86 930.912 1114.82 931.32 1114.07 932.136C1113.32 932.952 1112.94 934.096 1112.94 935.568V942H1111.24V929.376H1112.87V931.848ZM1131.56 936.216H1121C1121.09 937.528 1121.6 938.592 1122.51 939.408C1123.42 940.208 1124.57 940.608 1125.96 940.608C1126.75 940.608 1127.47 940.472 1128.12 940.2C1128.78 939.912 1129.35 939.496 1129.83 938.952L1130.79 940.056C1130.23 940.728 1129.52 941.24 1128.68 941.592C1127.84 941.944 1126.92 942.12 1125.92 942.12C1124.62 942.12 1123.47 941.848 1122.46 941.304C1121.47 940.744 1120.69 939.976 1120.13 939C1119.57 938.024 1119.29 936.92 1119.29 935.688C1119.29 934.456 1119.56 933.352 1120.08 932.376C1120.63 931.4 1121.36 930.64 1122.29 930.096C1123.24 929.552 1124.29 929.28 1125.46 929.28C1126.63 929.28 1127.68 929.552 1128.6 930.096C1129.53 930.64 1130.26 931.4 1130.79 932.376C1131.32 933.336 1131.58 934.44 1131.58 935.688L1131.56 936.216ZM1125.46 930.744C1124.24 930.744 1123.22 931.136 1122.39 931.92C1121.57 932.688 1121.11 933.696 1121 934.944H1129.95C1129.84 933.696 1129.36 932.688 1128.53 931.92C1127.72 931.136 1126.69 930.744 1125.46 930.744ZM1139.11 929.28C1140.76 929.28 1142.02 929.696 1142.9 930.528C1143.78 931.344 1144.22 932.56 1144.22 934.176V942H1142.59V940.032C1142.21 940.688 1141.64 941.2 1140.89 941.568C1140.15 941.936 1139.27 942.12 1138.25 942.12C1136.84 942.12 1135.72 941.784 1134.89 941.112C1134.06 940.44 1133.64 939.552 1133.64 938.448C1133.64 937.376 1134.02 936.512 1134.79 935.856C1135.58 935.2 1136.82 934.872 1138.51 934.872H1142.52V934.104C1142.52 933.016 1142.22 932.192 1141.61 931.632C1141 931.056 1140.11 930.768 1138.94 930.768C1138.14 930.768 1137.38 930.904 1136.64 931.176C1135.9 931.432 1135.27 931.792 1134.74 932.256L1133.98 930.984C1134.62 930.44 1135.38 930.024 1136.28 929.736C1137.18 929.432 1138.12 929.28 1139.11 929.28ZM1138.51 940.776C1139.47 940.776 1140.3 940.56 1140.98 940.128C1141.67 939.68 1142.18 939.04 1142.52 938.208V936.144H1138.56C1136.4 936.144 1135.32 936.896 1135.32 938.4C1135.32 939.136 1135.6 939.72 1136.16 940.152C1136.72 940.568 1137.5 940.776 1138.51 940.776ZM1155.5 941.232C1155.18 941.52 1154.78 941.744 1154.3 941.904C1153.84 942.048 1153.35 942.12 1152.84 942.12C1151.65 942.12 1150.74 941.8 1150.1 941.16C1149.46 940.52 1149.14 939.616 1149.14 938.448V930.816H1146.88V929.376H1149.14V926.616H1150.84V929.376H1154.68V930.816H1150.84V938.352C1150.84 939.104 1151.03 939.68 1151.4 940.08C1151.78 940.464 1152.32 940.656 1153.03 940.656C1153.38 940.656 1153.72 940.6 1154.04 940.488C1154.37 940.376 1154.66 940.216 1154.9 940.008L1155.5 941.232ZM1169.15 936.216H1158.59C1158.69 937.528 1159.19 938.592 1160.1 939.408C1161.01 940.208 1162.17 940.608 1163.56 940.608C1164.34 940.608 1165.06 940.472 1165.72 940.2C1166.37 939.912 1166.94 939.496 1167.42 938.952L1168.38 940.056C1167.82 940.728 1167.12 941.24 1166.27 941.592C1165.44 941.944 1164.52 942.12 1163.51 942.12C1162.21 942.12 1161.06 941.848 1160.05 941.304C1159.06 940.744 1158.29 939.976 1157.73 939C1157.17 938.024 1156.89 936.92 1156.89 935.688C1156.89 934.456 1157.15 933.352 1157.68 932.376C1158.22 931.4 1158.96 930.64 1159.89 930.096C1160.83 929.552 1161.89 929.28 1163.05 929.28C1164.22 929.28 1165.27 929.552 1166.2 930.096C1167.13 930.64 1167.85 931.4 1168.38 932.376C1168.91 933.336 1169.17 934.44 1169.17 935.688L1169.15 936.216ZM1163.05 930.744C1161.84 930.744 1160.81 931.136 1159.98 931.92C1159.17 932.688 1158.7 933.696 1158.59 934.944H1167.54C1167.43 933.696 1166.96 932.688 1166.13 931.92C1165.31 931.136 1164.29 930.744 1163.05 930.744ZM1183.34 929.28C1184.99 929.28 1186.25 929.696 1187.13 930.528C1188.01 931.344 1188.45 932.56 1188.45 934.176V942H1186.82V940.032C1186.43 940.688 1185.87 941.2 1185.11 941.568C1184.38 941.936 1183.5 942.12 1182.47 942.12C1181.07 942.12 1179.95 941.784 1179.11 941.112C1178.28 940.44 1177.87 939.552 1177.87 938.448C1177.87 937.376 1178.25 936.512 1179.02 935.856C1179.8 935.2 1181.04 934.872 1182.74 934.872H1186.75V934.104C1186.75 933.016 1186.44 932.192 1185.83 931.632C1185.23 931.056 1184.34 930.768 1183.17 930.768C1182.37 930.768 1181.6 930.904 1180.87 931.176C1180.13 931.432 1179.5 931.792 1178.97 932.256L1178.2 930.984C1178.84 930.44 1179.61 930.024 1180.51 929.736C1181.4 929.432 1182.35 929.28 1183.34 929.28ZM1182.74 940.776C1183.7 940.776 1184.52 940.56 1185.21 940.128C1185.9 939.68 1186.41 939.04 1186.75 938.208V936.144H1182.79C1180.63 936.144 1179.55 936.896 1179.55 938.4C1179.55 939.136 1179.83 939.72 1180.39 940.152C1180.95 940.568 1181.73 940.776 1182.74 940.776ZM1199.51 929.28C1201.1 929.28 1202.35 929.744 1203.28 930.672C1204.22 931.584 1204.7 932.92 1204.7 934.68V942H1202.99V934.848C1202.99 933.536 1202.66 932.536 1202.01 931.848C1201.35 931.16 1200.42 930.816 1199.2 930.816C1197.84 930.816 1196.76 931.224 1195.96 932.04C1195.18 932.84 1194.78 933.952 1194.78 935.376V942H1193.08V929.376H1194.71V931.704C1195.18 930.936 1195.82 930.344 1196.63 929.928C1197.46 929.496 1198.42 929.28 1199.51 929.28ZM1220.02 929.28C1221.67 929.28 1222.93 929.696 1223.81 930.528C1224.69 931.344 1225.13 932.56 1225.13 934.176V942H1223.5V940.032C1223.11 940.688 1222.55 941.2 1221.79 941.568C1221.06 941.936 1220.18 942.12 1219.15 942.12C1217.75 942.12 1216.63 941.784 1215.79 941.112C1214.96 940.44 1214.55 939.552 1214.55 938.448C1214.55 937.376 1214.93 936.512 1215.7 935.856C1216.48 935.2 1217.72 934.872 1219.42 934.872H1223.43V934.104C1223.43 933.016 1223.12 932.192 1222.51 931.632C1221.91 931.056 1221.02 930.768 1219.85 930.768C1219.05 930.768 1218.28 930.904 1217.55 931.176C1216.81 931.432 1216.18 931.792 1215.65 932.256L1214.88 930.984C1215.52 930.44 1216.29 930.024 1217.19 929.736C1218.08 929.432 1219.03 929.28 1220.02 929.28ZM1219.42 940.776C1220.38 940.776 1221.2 940.56 1221.89 940.128C1222.58 939.68 1223.09 939.04 1223.43 938.208V936.144H1219.47C1217.31 936.144 1216.23 936.896 1216.23 938.4C1216.23 939.136 1216.51 939.72 1217.07 940.152C1217.63 940.568 1218.41 940.776 1219.42 940.776ZM1235.04 942.12C1233.79 942.12 1232.67 941.848 1231.68 941.304C1230.7 940.76 1229.93 940 1229.37 939.024C1228.81 938.032 1228.53 936.92 1228.53 935.688C1228.53 934.456 1228.81 933.352 1229.37 932.376C1229.93 931.4 1230.7 930.64 1231.68 930.096C1232.67 929.552 1233.79 929.28 1235.04 929.28C1236.13 929.28 1237.09 929.496 1237.94 929.928C1238.81 930.344 1239.49 930.96 1239.98 931.776L1238.71 932.64C1238.29 932.016 1237.77 931.552 1237.13 931.248C1236.49 930.928 1235.79 930.768 1235.04 930.768C1234.13 930.768 1233.3 930.976 1232.57 931.392C1231.85 931.792 1231.28 932.368 1230.86 933.12C1230.46 933.872 1230.26 934.728 1230.26 935.688C1230.26 936.664 1230.46 937.528 1230.86 938.28C1231.28 939.016 1231.85 939.592 1232.57 940.008C1233.3 940.408 1234.13 940.608 1235.04 940.608C1235.79 940.608 1236.49 940.456 1237.13 940.152C1237.77 939.848 1238.29 939.384 1238.71 938.76L1239.98 939.624C1239.49 940.44 1238.81 941.064 1237.94 941.496C1237.08 941.912 1236.11 942.12 1235.04 942.12ZM1248.35 942.12C1247.1 942.12 1245.98 941.848 1244.99 941.304C1244.01 940.76 1243.25 940 1242.69 939.024C1242.13 938.032 1241.85 936.92 1241.85 935.688C1241.85 934.456 1242.13 933.352 1242.69 932.376C1243.25 931.4 1244.01 930.64 1244.99 930.096C1245.98 929.552 1247.1 929.28 1248.35 929.28C1249.44 929.28 1250.41 929.496 1251.25 929.928C1252.12 930.344 1252.8 930.96 1253.29 931.776L1252.02 932.64C1251.61 932.016 1251.08 931.552 1250.44 931.248C1249.8 930.928 1249.1 930.768 1248.35 930.768C1247.44 930.768 1246.61 930.976 1245.88 931.392C1245.16 931.792 1244.59 932.368 1244.17 933.12C1243.77 933.872 1243.57 934.728 1243.57 935.688C1243.57 936.664 1243.77 937.528 1244.17 938.28C1244.59 939.016 1245.16 939.592 1245.88 940.008C1246.61 940.408 1247.44 940.608 1248.35 940.608C1249.1 940.608 1249.8 940.456 1250.44 940.152C1251.08 939.848 1251.61 939.384 1252.02 938.76L1253.29 939.624C1252.8 940.44 1252.12 941.064 1251.25 941.496C1250.39 941.912 1249.42 942.12 1248.35 942.12ZM1261.59 942.12C1260.37 942.12 1259.28 941.848 1258.3 941.304C1257.33 940.744 1256.56 939.976 1256 939C1255.44 938.024 1255.16 936.92 1255.16 935.688C1255.16 934.456 1255.44 933.352 1256 932.376C1256.56 931.4 1257.33 930.64 1258.3 930.096C1259.28 929.552 1260.37 929.28 1261.59 929.28C1262.81 929.28 1263.9 929.552 1264.88 930.096C1265.85 930.64 1266.61 931.4 1267.16 932.376C1267.72 933.352 1268 934.456 1268 935.688C1268 936.92 1267.72 938.024 1267.16 939C1266.61 939.976 1265.85 940.744 1264.88 941.304C1263.9 941.848 1262.81 942.12 1261.59 942.12ZM1261.59 940.608C1262.49 940.608 1263.29 940.408 1263.99 940.008C1264.71 939.592 1265.27 939.008 1265.67 938.256C1266.07 937.504 1266.27 936.648 1266.27 935.688C1266.27 934.728 1266.07 933.872 1265.67 933.12C1265.27 932.368 1264.71 931.792 1263.99 931.392C1263.29 930.976 1262.49 930.768 1261.59 930.768C1260.69 930.768 1259.89 930.976 1259.17 931.392C1258.46 931.792 1257.9 932.368 1257.49 933.12C1257.09 933.872 1256.89 934.728 1256.89 935.688C1256.89 936.648 1257.09 937.504 1257.49 938.256C1257.9 939.008 1258.46 939.592 1259.17 940.008C1259.89 940.408 1260.69 940.608 1261.59 940.608ZM1282.85 929.376V942H1281.22V939.696C1280.77 940.464 1280.16 941.064 1279.37 941.496C1278.59 941.912 1277.69 942.12 1276.69 942.12C1275.04 942.12 1273.73 941.664 1272.77 940.752C1271.83 939.824 1271.36 938.472 1271.36 936.696V929.376H1273.06V936.528C1273.06 937.856 1273.39 938.864 1274.05 939.552C1274.7 940.24 1275.64 940.584 1276.85 940.584C1278.18 940.584 1279.23 940.184 1280 939.384C1280.77 938.568 1281.15 937.44 1281.15 936V929.376H1282.85ZM1294.06 929.28C1295.64 929.28 1296.9 929.744 1297.83 930.672C1298.77 931.584 1299.24 932.92 1299.24 934.68V942H1297.54V934.848C1297.54 933.536 1297.21 932.536 1296.55 931.848C1295.9 931.16 1294.96 930.816 1293.75 930.816C1292.39 930.816 1291.31 931.224 1290.51 932.04C1289.72 932.84 1289.33 933.952 1289.33 935.376V942H1287.63V929.376H1289.26V931.704C1289.72 930.936 1290.36 930.344 1291.18 929.928C1292.01 929.496 1292.97 929.28 1294.06 929.28ZM1310.52 941.232C1310.2 941.52 1309.8 941.744 1309.32 941.904C1308.85 942.048 1308.36 942.12 1307.85 942.12C1306.67 942.12 1305.76 941.8 1305.12 941.16C1304.48 940.52 1304.16 939.616 1304.16 938.448V930.816H1301.9V929.376H1304.16V926.616H1305.86V929.376H1309.7V930.816H1305.86V938.352C1305.86 939.104 1306.04 939.68 1306.41 940.08C1306.8 940.464 1307.34 940.656 1308.04 940.656C1308.4 940.656 1308.73 940.6 1309.05 940.488C1309.39 940.376 1309.68 940.216 1309.92 940.008L1310.52 941.232Z" fill="black"/>
<path d="M1129.38 508.552V513.502H1135.9V514.654H1129.38V520H1128.05V507.4H1136.69V508.552H1129.38ZM1142.73 520.09C1141.81 520.09 1140.99 519.886 1140.26 519.478C1139.53 519.058 1138.95 518.482 1138.53 517.75C1138.11 517.018 1137.9 516.19 1137.9 515.266C1137.9 514.342 1138.11 513.514 1138.53 512.782C1138.95 512.05 1139.53 511.48 1140.26 511.072C1140.99 510.664 1141.81 510.46 1142.73 510.46C1143.64 510.46 1144.46 510.664 1145.19 511.072C1145.92 511.48 1146.49 512.05 1146.9 512.782C1147.32 513.514 1147.53 514.342 1147.53 515.266C1147.53 516.19 1147.32 517.018 1146.9 517.75C1146.49 518.482 1145.92 519.058 1145.19 519.478C1144.46 519.886 1143.64 520.09 1142.73 520.09ZM1142.73 518.956C1143.4 518.956 1144 518.806 1144.53 518.506C1145.07 518.194 1145.49 517.756 1145.79 517.192C1146.09 516.628 1146.24 515.986 1146.24 515.266C1146.24 514.546 1146.09 513.904 1145.79 513.34C1145.49 512.776 1145.07 512.344 1144.53 512.044C1144 511.732 1143.4 511.576 1142.73 511.576C1142.05 511.576 1141.45 511.732 1140.91 512.044C1140.38 512.344 1139.96 512.776 1139.65 513.34C1139.35 513.904 1139.2 514.546 1139.2 515.266C1139.2 515.986 1139.35 516.628 1139.65 517.192C1139.96 517.756 1140.38 518.194 1140.91 518.506C1141.45 518.806 1142.05 518.956 1142.73 518.956ZM1151.37 512.386C1151.67 511.75 1152.11 511.27 1152.7 510.946C1153.3 510.622 1154.04 510.46 1154.91 510.46V511.702L1154.61 511.684C1153.61 511.684 1152.83 511.99 1152.27 512.602C1151.7 513.214 1151.42 514.072 1151.42 515.176V520H1150.14V510.532H1151.37V512.386ZM1165.9 510.532V518.848C1165.9 520.456 1165.51 521.644 1164.72 522.412C1163.94 523.192 1162.75 523.582 1161.17 523.582C1160.29 523.582 1159.46 523.45 1158.67 523.186C1157.89 522.934 1157.25 522.58 1156.76 522.124L1157.41 521.152C1157.86 521.56 1158.42 521.878 1159.06 522.106C1159.72 522.334 1160.41 522.448 1161.13 522.448C1162.33 522.448 1163.22 522.166 1163.78 521.602C1164.34 521.05 1164.63 520.186 1164.63 519.01V517.804C1164.23 518.404 1163.71 518.86 1163.06 519.172C1162.42 519.484 1161.72 519.64 1160.94 519.64C1160.05 519.64 1159.24 519.448 1158.51 519.064C1157.79 518.668 1157.22 518.122 1156.8 517.426C1156.39 516.718 1156.18 515.92 1156.18 515.032C1156.18 514.144 1156.39 513.352 1156.8 512.656C1157.22 511.96 1157.79 511.42 1158.51 511.036C1159.23 510.652 1160.04 510.46 1160.94 510.46C1161.74 510.46 1162.47 510.622 1163.11 510.946C1163.76 511.27 1164.28 511.738 1164.68 512.35V510.532H1165.9ZM1161.06 518.506C1161.75 518.506 1162.36 518.362 1162.92 518.074C1163.47 517.774 1163.89 517.36 1164.19 516.832C1164.51 516.304 1164.66 515.704 1164.66 515.032C1164.66 514.36 1164.51 513.766 1164.19 513.25C1163.89 512.722 1163.47 512.314 1162.92 512.026C1162.38 511.726 1161.76 511.576 1161.06 511.576C1160.38 511.576 1159.76 511.72 1159.21 512.008C1158.67 512.296 1158.24 512.704 1157.93 513.232C1157.63 513.76 1157.48 514.36 1157.48 515.032C1157.48 515.704 1157.63 516.304 1157.93 516.832C1158.24 517.36 1158.67 517.774 1159.21 518.074C1159.76 518.362 1160.38 518.506 1161.06 518.506ZM1173.35 520.09C1172.44 520.09 1171.61 519.886 1170.88 519.478C1170.15 519.058 1169.57 518.482 1169.15 517.75C1168.73 517.018 1168.52 516.19 1168.52 515.266C1168.52 514.342 1168.73 513.514 1169.15 512.782C1169.57 512.05 1170.15 511.48 1170.88 511.072C1171.61 510.664 1172.44 510.46 1173.35 510.46C1174.26 510.46 1175.08 510.664 1175.81 511.072C1176.55 511.48 1177.12 512.05 1177.52 512.782C1177.94 513.514 1178.15 514.342 1178.15 515.266C1178.15 516.19 1177.94 517.018 1177.52 517.75C1177.12 518.482 1176.55 519.058 1175.81 519.478C1175.08 519.886 1174.26 520.09 1173.35 520.09ZM1173.35 518.956C1174.02 518.956 1174.62 518.806 1175.15 518.506C1175.69 518.194 1176.11 517.756 1176.41 517.192C1176.71 516.628 1176.86 515.986 1176.86 515.266C1176.86 514.546 1176.71 513.904 1176.41 513.34C1176.11 512.776 1175.69 512.344 1175.15 512.044C1174.62 511.732 1174.02 511.576 1173.35 511.576C1172.68 511.576 1172.07 511.732 1171.53 512.044C1171 512.344 1170.58 512.776 1170.27 513.34C1169.97 513.904 1169.82 514.546 1169.82 515.266C1169.82 515.986 1169.97 516.628 1170.27 517.192C1170.58 517.756 1171 518.194 1171.53 518.506C1172.07 518.806 1172.68 518.956 1173.35 518.956ZM1185.75 519.424C1185.51 519.64 1185.21 519.808 1184.85 519.928C1184.5 520.036 1184.13 520.09 1183.75 520.09C1182.86 520.09 1182.18 519.85 1181.7 519.37C1181.22 518.89 1180.98 518.212 1180.98 517.336V511.612H1179.29V510.532H1180.98V508.462H1182.26V510.532H1185.14V511.612H1182.26V517.264C1182.26 517.828 1182.39 518.26 1182.67 518.56C1182.96 518.848 1183.37 518.992 1183.89 518.992C1184.16 518.992 1184.41 518.95 1184.65 518.866C1184.9 518.782 1185.12 518.662 1185.3 518.506L1185.75 519.424ZM1192.81 519.424C1192.57 519.64 1192.27 519.808 1191.91 519.928C1191.57 520.036 1191.2 520.09 1190.82 520.09C1189.93 520.09 1189.24 519.85 1188.76 519.37C1188.28 518.89 1188.04 518.212 1188.04 517.336V511.612H1186.35V510.532H1188.04V508.462H1189.32V510.532H1192.2V511.612H1189.32V517.264C1189.32 517.828 1189.46 518.26 1189.74 518.56C1190.02 518.848 1190.43 518.992 1190.96 518.992C1191.22 518.992 1191.48 518.95 1191.72 518.866C1191.97 518.782 1192.18 518.662 1192.36 518.506L1192.81 519.424ZM1203.05 515.662H1195.13C1195.2 516.646 1195.58 517.444 1196.27 518.056C1196.95 518.656 1197.81 518.956 1198.86 518.956C1199.45 518.956 1199.99 518.854 1200.48 518.65C1200.97 518.434 1201.4 518.122 1201.76 517.714L1202.48 518.542C1202.06 519.046 1201.53 519.43 1200.89 519.694C1200.27 519.958 1199.58 520.09 1198.82 520.09C1197.85 520.09 1196.99 519.886 1196.23 519.478C1195.49 519.058 1194.9 518.482 1194.48 517.75C1194.06 517.018 1193.85 516.19 1193.85 515.266C1193.85 514.342 1194.05 513.514 1194.45 512.782C1194.86 512.05 1195.41 511.48 1196.1 511.072C1196.81 510.664 1197.6 510.46 1198.48 510.46C1199.36 510.46 1200.14 510.664 1200.84 511.072C1201.53 511.48 1202.08 512.05 1202.48 512.782C1202.87 513.502 1203.07 514.33 1203.07 515.266L1203.05 515.662ZM1198.48 511.558C1197.57 511.558 1196.8 511.852 1196.18 512.44C1195.56 513.016 1195.22 513.772 1195.13 514.708H1201.85C1201.76 513.772 1201.41 513.016 1200.78 512.44C1200.17 511.852 1199.4 511.558 1198.48 511.558ZM1210.49 510.46C1211.68 510.46 1212.62 510.808 1213.32 511.504C1214.03 512.188 1214.38 513.19 1214.38 514.51V520H1213.1V514.636C1213.1 513.652 1212.86 512.902 1212.37 512.386C1211.87 511.87 1211.17 511.612 1210.26 511.612C1209.24 511.612 1208.43 511.918 1207.83 512.53C1207.24 513.13 1206.95 513.964 1206.95 515.032V520H1205.67V510.532H1206.89V512.278C1207.24 511.702 1207.72 511.258 1208.33 510.946C1208.96 510.622 1209.68 510.46 1210.49 510.46ZM1227.55 507.4C1229.16 507.4 1230.42 507.784 1231.33 508.552C1232.24 509.32 1232.7 510.376 1232.7 511.72C1232.7 513.064 1232.24 514.12 1231.33 514.888C1230.42 515.644 1229.16 516.022 1227.55 516.022H1224.17V520H1222.83V507.4H1227.55ZM1227.51 514.852C1228.76 514.852 1229.72 514.582 1230.38 514.042C1231.04 513.49 1231.37 512.716 1231.37 511.72C1231.37 510.7 1231.04 509.92 1230.38 509.38C1229.72 508.828 1228.76 508.552 1227.51 508.552H1224.17V514.852H1227.51ZM1238.53 510.46C1239.77 510.46 1240.72 510.772 1241.38 511.396C1242.04 512.008 1242.37 512.92 1242.37 514.132V520H1241.14V518.524C1240.85 519.016 1240.43 519.4 1239.86 519.676C1239.31 519.952 1238.65 520.09 1237.88 520.09C1236.83 520.09 1235.99 519.838 1235.36 519.334C1234.74 518.83 1234.43 518.164 1234.43 517.336C1234.43 516.532 1234.72 515.884 1235.29 515.392C1235.88 514.9 1236.81 514.654 1238.08 514.654H1241.09V514.078C1241.09 513.262 1240.86 512.644 1240.4 512.224C1239.95 511.792 1239.28 511.576 1238.41 511.576C1237.81 511.576 1237.23 511.678 1236.68 511.882C1236.13 512.074 1235.65 512.344 1235.26 512.692L1234.68 511.738C1235.16 511.33 1235.74 511.018 1236.41 510.802C1237.08 510.574 1237.79 510.46 1238.53 510.46ZM1238.08 519.082C1238.8 519.082 1239.42 518.92 1239.94 518.596C1240.45 518.26 1240.84 517.78 1241.09 517.156V515.608H1238.12C1236.5 515.608 1235.69 516.172 1235.69 517.3C1235.69 517.852 1235.9 518.29 1236.32 518.614C1236.74 518.926 1237.33 519.082 1238.08 519.082ZM1248.37 520.09C1247.61 520.09 1246.87 519.982 1246.16 519.766C1245.46 519.538 1244.92 519.256 1244.52 518.92L1245.1 517.912C1245.49 518.224 1245.99 518.482 1246.59 518.686C1247.19 518.878 1247.82 518.974 1248.46 518.974C1249.33 518.974 1249.96 518.842 1250.37 518.578C1250.79 518.302 1251 517.918 1251 517.426C1251 517.078 1250.89 516.808 1250.66 516.616C1250.43 516.412 1250.14 516.262 1249.8 516.166C1249.45 516.058 1248.99 515.956 1248.41 515.86C1247.64 515.716 1247.02 515.572 1246.56 515.428C1246.09 515.272 1245.69 515.014 1245.35 514.654C1245.03 514.294 1244.86 513.796 1244.86 513.16C1244.86 512.368 1245.19 511.72 1245.85 511.216C1246.51 510.712 1247.43 510.46 1248.61 510.46C1249.22 510.46 1249.83 510.544 1250.44 510.712C1251.06 510.868 1251.56 511.078 1251.96 511.342L1251.4 512.368C1250.62 511.828 1249.69 511.558 1248.61 511.558C1247.79 511.558 1247.17 511.702 1246.75 511.99C1246.35 512.278 1246.14 512.656 1246.14 513.124C1246.14 513.484 1246.26 513.772 1246.48 513.988C1246.72 514.204 1247.02 514.366 1247.37 514.474C1247.71 514.57 1248.19 514.672 1248.81 514.78C1249.56 514.924 1250.17 515.068 1250.62 515.212C1251.08 515.356 1251.47 515.602 1251.79 515.95C1252.12 516.298 1252.28 516.778 1252.28 517.39C1252.28 518.218 1251.93 518.878 1251.24 519.37C1250.55 519.85 1249.6 520.09 1248.37 520.09ZM1257.18 520.09C1256.41 520.09 1255.68 519.982 1254.97 519.766C1254.27 519.538 1253.73 519.256 1253.33 518.92L1253.91 517.912C1254.3 518.224 1254.8 518.482 1255.4 518.686C1256 518.878 1256.62 518.974 1257.27 518.974C1258.14 518.974 1258.77 518.842 1259.18 518.578C1259.6 518.302 1259.81 517.918 1259.81 517.426C1259.81 517.078 1259.7 516.808 1259.47 516.616C1259.24 516.412 1258.95 516.262 1258.6 516.166C1258.26 516.058 1257.79 515.956 1257.22 515.86C1256.45 515.716 1255.83 515.572 1255.36 515.428C1254.9 515.272 1254.49 515.014 1254.16 514.654C1253.83 514.294 1253.67 513.796 1253.67 513.16C1253.67 512.368 1254 511.72 1254.66 511.216C1255.32 510.712 1256.24 510.46 1257.42 510.46C1258.03 510.46 1258.64 510.544 1259.25 510.712C1259.86 510.868 1260.37 511.078 1260.76 511.342L1260.21 512.368C1259.43 511.828 1258.5 511.558 1257.42 511.558C1256.6 511.558 1255.98 511.702 1255.56 511.99C1255.15 512.278 1254.95 512.656 1254.95 513.124C1254.95 513.484 1255.06 513.772 1255.29 513.988C1255.53 514.204 1255.83 514.366 1256.17 514.474C1256.52 514.57 1257 514.672 1257.61 514.78C1258.37 514.924 1258.98 515.068 1259.43 515.212C1259.89 515.356 1260.28 515.602 1260.6 515.95C1260.93 516.298 1261.09 516.778 1261.09 517.39C1261.09 518.218 1260.74 518.878 1260.04 519.37C1259.36 519.85 1258.41 520.09 1257.18 520.09ZM1277.17 510.532L1273.59 520H1272.38L1269.39 512.242L1266.41 520H1265.2L1261.64 510.532H1262.86L1265.83 518.578L1268.87 510.532H1269.97L1272.99 518.578L1276 510.532H1277.17ZM1282.7 520.09C1281.79 520.09 1280.97 519.886 1280.23 519.478C1279.5 519.058 1278.93 518.482 1278.51 517.75C1278.09 517.018 1277.88 516.19 1277.88 515.266C1277.88 514.342 1278.09 513.514 1278.51 512.782C1278.93 512.05 1279.5 511.48 1280.23 511.072C1280.97 510.664 1281.79 510.46 1282.7 510.46C1283.61 510.46 1284.43 510.664 1285.17 511.072C1285.9 511.48 1286.47 512.05 1286.88 512.782C1287.3 513.514 1287.51 514.342 1287.51 515.266C1287.51 516.19 1287.3 517.018 1286.88 517.75C1286.47 518.482 1285.9 519.058 1285.17 519.478C1284.43 519.886 1283.61 520.09 1282.7 520.09ZM1282.7 518.956C1283.37 518.956 1283.97 518.806 1284.5 518.506C1285.04 518.194 1285.46 517.756 1285.76 517.192C1286.06 516.628 1286.21 515.986 1286.21 515.266C1286.21 514.546 1286.06 513.904 1285.76 513.34C1285.46 512.776 1285.04 512.344 1284.5 512.044C1283.97 511.732 1283.37 511.576 1282.7 511.576C1282.03 511.576 1281.42 511.732 1280.88 512.044C1280.35 512.344 1279.93 512.776 1279.62 513.34C1279.32 513.904 1279.17 514.546 1279.17 515.266C1279.17 515.986 1279.32 516.628 1279.62 517.192C1279.93 517.756 1280.35 518.194 1280.88 518.506C1281.42 518.806 1282.03 518.956 1282.7 518.956ZM1291.34 512.386C1291.64 511.75 1292.08 511.27 1292.67 510.946C1293.27 510.622 1294.01 510.46 1294.89 510.46V511.702L1294.58 511.684C1293.58 511.684 1292.8 511.99 1292.24 512.602C1291.68 513.214 1291.39 514.072 1291.39 515.176V520H1290.12V510.532H1291.34V512.386ZM1305.75 506.644V520H1304.53V518.128C1304.14 518.764 1303.63 519.25 1303 519.586C1302.37 519.922 1301.67 520.09 1300.87 520.09C1299.99 520.09 1299.18 519.886 1298.46 519.478C1297.74 519.07 1297.18 518.5 1296.77 517.768C1296.36 517.036 1296.16 516.202 1296.16 515.266C1296.16 514.33 1296.36 513.496 1296.77 512.764C1297.18 512.032 1297.74 511.468 1298.46 511.072C1299.18 510.664 1299.99 510.46 1300.87 510.46C1301.64 510.46 1302.33 510.622 1302.94 510.946C1303.57 511.258 1304.08 511.72 1304.47 512.332V506.644H1305.75ZM1300.98 518.956C1301.64 518.956 1302.24 518.806 1302.76 518.506C1303.3 518.194 1303.72 517.756 1304.02 517.192C1304.34 516.628 1304.49 515.986 1304.49 515.266C1304.49 514.546 1304.34 513.904 1304.02 513.34C1303.72 512.776 1303.3 512.344 1302.76 512.044C1302.24 511.732 1301.64 511.576 1300.98 511.576C1300.31 511.576 1299.7 511.732 1299.16 512.044C1298.64 512.344 1298.22 512.776 1297.9 513.34C1297.6 513.904 1297.45 514.546 1297.45 515.266C1297.45 515.986 1297.6 516.628 1297.9 517.192C1298.22 517.756 1298.64 518.194 1299.16 518.506C1299.7 518.806 1300.31 518.956 1300.98 518.956ZM1311.76 516.22C1311.76 515.728 1311.84 515.296 1311.99 514.924C1312.16 514.552 1312.37 514.234 1312.61 513.97C1312.85 513.706 1313.16 513.406 1313.54 513.07C1314.06 512.614 1314.44 512.218 1314.68 511.882C1314.93 511.534 1315.05 511.114 1315.05 510.622C1315.05 509.962 1314.8 509.434 1314.28 509.038C1313.76 508.63 1313.06 508.426 1312.16 508.426C1310.67 508.426 1309.52 508.912 1308.72 509.884L1307.76 509.164C1308.78 507.916 1310.28 507.292 1312.25 507.292C1313.51 507.292 1314.51 507.574 1315.25 508.138C1316.01 508.702 1316.39 509.464 1316.39 510.424C1316.39 510.916 1316.3 511.354 1316.13 511.738C1315.98 512.11 1315.78 512.428 1315.54 512.692C1315.31 512.956 1315.01 513.262 1314.62 513.61C1314.11 514.078 1313.72 514.498 1313.47 514.87C1313.22 515.23 1313.09 515.68 1313.09 516.22H1311.76ZM1312.43 520.09C1312.16 520.09 1311.94 520 1311.76 519.82C1311.58 519.628 1311.49 519.406 1311.49 519.154C1311.49 518.89 1311.58 518.674 1311.76 518.506C1311.94 518.326 1312.16 518.236 1312.43 518.236C1312.7 518.236 1312.93 518.326 1313.11 518.506C1313.29 518.674 1313.38 518.89 1313.38 519.154C1313.38 519.406 1313.28 519.628 1313.09 519.82C1312.91 520 1312.69 520.09 1312.43 520.09Z" fill="#5682C4"/>
<rect x="826" y="579" width="267" height="60" rx="5" fill="#EE8E39"/>
<path d="M895.656 595.6H900.84V613.776H912.072V618H895.656V595.6ZM922.684 618.256C920.87 618.256 919.238 617.883 917.788 617.136C916.358 616.368 915.238 615.312 914.428 613.968C913.617 612.624 913.212 611.099 913.212 609.392C913.212 607.685 913.617 606.16 914.428 604.816C915.238 603.472 916.358 602.427 917.788 601.68C919.238 600.912 920.87 600.528 922.684 600.528C924.497 600.528 926.118 600.912 927.548 601.68C928.977 602.427 930.097 603.472 930.908 604.816C931.718 606.16 932.124 607.685 932.124 609.392C932.124 611.099 931.718 612.624 930.908 613.968C930.097 615.312 928.977 616.368 927.548 617.136C926.118 617.883 924.497 618.256 922.684 618.256ZM922.684 614.16C923.964 614.16 925.009 613.733 925.82 612.88C926.652 612.005 927.068 610.843 927.068 609.392C927.068 607.941 926.652 606.789 925.82 605.936C925.009 605.061 923.964 604.624 922.684 604.624C921.404 604.624 920.348 605.061 919.516 605.936C918.684 606.789 918.268 607.941 918.268 609.392C918.268 610.843 918.684 612.005 919.516 612.88C920.348 613.733 921.404 614.16 922.684 614.16ZM953.22 600.784V615.12C953.22 618.277 952.399 620.624 950.756 622.16C949.114 623.696 946.714 624.464 943.556 624.464C941.892 624.464 940.314 624.261 938.82 623.856C937.327 623.451 936.09 622.864 935.108 622.096L937.092 618.512C937.818 619.109 938.735 619.579 939.844 619.92C940.954 620.283 942.063 620.464 943.172 620.464C944.9 620.464 946.17 620.069 946.98 619.28C947.812 618.512 948.228 617.339 948.228 615.76V615.024C946.927 616.453 945.114 617.168 942.788 617.168C941.21 617.168 939.759 616.827 938.436 616.144C937.135 615.44 936.1 614.459 935.332 613.2C934.564 611.941 934.18 610.491 934.18 608.848C934.18 607.205 934.564 605.755 935.332 604.496C936.1 603.237 937.135 602.267 938.436 601.584C939.759 600.88 941.21 600.528 942.788 600.528C945.284 600.528 947.183 601.349 948.484 602.992V600.784H953.22ZM943.78 613.072C945.103 613.072 946.18 612.688 947.012 611.92C947.866 611.131 948.292 610.107 948.292 608.848C948.292 607.589 947.866 606.576 947.012 605.808C946.18 605.019 945.103 604.624 943.78 604.624C942.458 604.624 941.37 605.019 940.516 605.808C939.663 606.576 939.236 607.589 939.236 608.848C939.236 610.107 939.663 611.131 940.516 611.92C941.37 612.688 942.458 613.072 943.78 613.072ZM966.929 600.784H971.921V618H966.929V600.784ZM969.425 598.384C968.508 598.384 967.761 598.117 967.185 597.584C966.609 597.051 966.321 596.389 966.321 595.6C966.321 594.811 966.609 594.149 967.185 593.616C967.761 593.083 968.508 592.816 969.425 592.816C970.342 592.816 971.089 593.072 971.665 593.584C972.241 594.096 972.529 594.736 972.529 595.504C972.529 596.336 972.241 597.029 971.665 597.584C971.089 598.117 970.342 598.384 969.425 598.384ZM987.018 600.528C989.151 600.528 990.869 601.168 992.17 602.448C993.493 603.728 994.154 605.627 994.154 608.144V618H989.162V608.912C989.162 607.547 988.863 606.533 988.266 605.872C987.669 605.189 986.805 604.848 985.674 604.848C984.415 604.848 983.413 605.243 982.666 606.032C981.919 606.8 981.546 607.952 981.546 609.488V618H976.554V600.784H981.322V602.8C981.983 602.075 982.805 601.52 983.786 601.136C984.767 600.731 985.845 600.528 987.018 600.528Z" fill="white"/>
</g>
<defs>
<clipPath id="clip0">
<rect width="1440" height="1024" fill="white"/>
</clipPath>
</defs>
</svg>
