<svg width="1440" height="1024" viewBox="0 0 1440 1024" fill="none" xmlns="http://www.w3.org/2000/svg">
<rect width="1440" height="1024" fill="white"/>
<rect width="1440" height="1024" fill="white"/>
<rect x="720" width="1" height="1024" fill="#828181"/>
<path d="M118.63 422.42C116.133 422.42 113.87 421.883 111.84 420.81C109.833 419.713 108.247 418.208 107.08 416.295C105.937 414.358 105.365 412.177 105.365 409.75C105.365 407.323 105.937 405.153 107.08 403.24C108.247 401.303 109.833 399.798 111.84 398.725C113.87 397.628 116.145 397.08 118.665 397.08C120.788 397.08 122.702 397.453 124.405 398.2C126.132 398.947 127.578 400.02 128.745 401.42L125.105 404.78C123.448 402.867 121.395 401.91 118.945 401.91C117.428 401.91 116.075 402.248 114.885 402.925C113.695 403.578 112.762 404.5 112.085 405.69C111.432 406.88 111.105 408.233 111.105 409.75C111.105 411.267 111.432 412.62 112.085 413.81C112.762 415 113.695 415.933 114.885 416.61C116.075 417.263 117.428 417.59 118.945 417.59C121.395 417.59 123.448 416.622 125.105 414.685L128.745 418.045C127.578 419.468 126.132 420.553 124.405 421.3C122.678 422.047 120.753 422.42 118.63 422.42ZM143.254 422.42C139.754 422.42 137.024 421.452 135.064 419.515C133.127 417.578 132.159 414.813 132.159 411.22V397.5H137.829V411.01C137.829 415.397 139.649 417.59 143.289 417.59C145.062 417.59 146.416 417.065 147.349 416.015C148.282 414.942 148.749 413.273 148.749 411.01V397.5H154.349V411.22C154.349 414.813 153.369 417.578 151.409 419.515C149.472 421.452 146.754 422.42 143.254 422.42ZM168.002 422.42C166.065 422.42 164.187 422.163 162.367 421.65C160.57 421.113 159.124 420.425 158.027 419.585L159.952 415.315C161.002 416.085 162.25 416.703 163.697 417.17C165.144 417.637 166.59 417.87 168.037 417.87C169.647 417.87 170.837 417.637 171.607 417.17C172.377 416.68 172.762 416.038 172.762 415.245C172.762 414.662 172.529 414.183 172.062 413.81C171.619 413.413 171.035 413.098 170.312 412.865C169.612 412.632 168.655 412.375 167.442 412.095C165.575 411.652 164.047 411.208 162.857 410.765C161.667 410.322 160.64 409.61 159.777 408.63C158.937 407.65 158.517 406.343 158.517 404.71C158.517 403.287 158.902 402.003 159.672 400.86C160.442 399.693 161.597 398.772 163.137 398.095C164.7 397.418 166.602 397.08 168.842 397.08C170.405 397.08 171.934 397.267 173.427 397.64C174.92 398.013 176.227 398.55 177.347 399.25L175.597 403.555C173.334 402.272 171.07 401.63 168.807 401.63C167.22 401.63 166.042 401.887 165.272 402.4C164.525 402.913 164.152 403.59 164.152 404.43C164.152 405.27 164.584 405.9 165.447 406.32C166.334 406.717 167.675 407.113 169.472 407.51C171.339 407.953 172.867 408.397 174.057 408.84C175.247 409.283 176.262 409.983 177.102 410.94C177.965 411.897 178.397 413.192 178.397 414.825C178.397 416.225 178 417.508 177.207 418.675C176.437 419.818 175.27 420.728 173.707 421.405C172.144 422.082 170.242 422.42 168.002 422.42ZM187.004 402.12H179.164V397.5H200.514V402.12H192.674V422H187.004V402.12ZM215.088 422.42C212.545 422.42 210.247 421.872 208.193 420.775C206.163 419.678 204.565 418.173 203.398 416.26C202.255 414.323 201.683 412.153 201.683 409.75C201.683 407.347 202.255 405.188 203.398 403.275C204.565 401.338 206.163 399.822 208.193 398.725C210.247 397.628 212.545 397.08 215.088 397.08C217.632 397.08 219.918 397.628 221.948 398.725C223.978 399.822 225.577 401.338 226.743 403.275C227.91 405.188 228.493 407.347 228.493 409.75C228.493 412.153 227.91 414.323 226.743 416.26C225.577 418.173 223.978 419.678 221.948 420.775C219.918 421.872 217.632 422.42 215.088 422.42ZM215.088 417.59C216.535 417.59 217.842 417.263 219.008 416.61C220.175 415.933 221.085 415 221.738 413.81C222.415 412.62 222.753 411.267 222.753 409.75C222.753 408.233 222.415 406.88 221.738 405.69C221.085 404.5 220.175 403.578 219.008 402.925C217.842 402.248 216.535 401.91 215.088 401.91C213.642 401.91 212.335 402.248 211.168 402.925C210.002 403.578 209.08 404.5 208.403 405.69C207.75 406.88 207.423 408.233 207.423 409.75C207.423 411.267 207.75 412.62 208.403 413.81C209.08 415 210.002 415.933 211.168 416.61C212.335 417.263 213.642 417.59 215.088 417.59ZM255.05 422L255.015 407.3L247.805 419.41H245.25L238.075 407.615V422H232.755V397.5H237.445L246.615 412.725L255.645 397.5H260.3L260.37 422H255.05ZM285.152 417.45V422H266.182V397.5H284.697V402.05H271.817V407.37H283.192V411.78H271.817V417.45H285.152ZM305.274 422L300.549 415.175H300.269H295.334V422H289.664V397.5H300.269C302.439 397.5 304.317 397.862 305.904 398.585C307.514 399.308 308.75 400.335 309.614 401.665C310.477 402.995 310.909 404.57 310.909 406.39C310.909 408.21 310.465 409.785 309.579 411.115C308.715 412.422 307.479 413.425 305.869 414.125L311.364 422H305.274ZM305.169 406.39C305.169 405.013 304.725 403.963 303.839 403.24C302.952 402.493 301.657 402.12 299.954 402.12H295.334V410.66H299.954C301.657 410.66 302.952 410.287 303.839 409.54C304.725 408.793 305.169 407.743 305.169 406.39ZM333.363 422.42C331.427 422.42 329.548 422.163 327.728 421.65C325.932 421.113 324.485 420.425 323.388 419.585L325.313 415.315C326.363 416.085 327.612 416.703 329.058 417.17C330.505 417.637 331.952 417.87 333.398 417.87C335.008 417.87 336.198 417.637 336.968 417.17C337.738 416.68 338.123 416.038 338.123 415.245C338.123 414.662 337.89 414.183 337.423 413.81C336.98 413.413 336.397 413.098 335.673 412.865C334.973 412.632 334.017 412.375 332.803 412.095C330.937 411.652 329.408 411.208 328.218 410.765C327.028 410.322 326.002 409.61 325.138 408.63C324.298 407.65 323.878 406.343 323.878 404.71C323.878 403.287 324.263 402.003 325.033 400.86C325.803 399.693 326.958 398.772 328.498 398.095C330.062 397.418 331.963 397.08 334.203 397.08C335.767 397.08 337.295 397.267 338.788 397.64C340.282 398.013 341.588 398.55 342.708 399.25L340.958 403.555C338.695 402.272 336.432 401.63 334.168 401.63C332.582 401.63 331.403 401.887 330.633 402.4C329.887 402.913 329.513 403.59 329.513 404.43C329.513 405.27 329.945 405.9 330.808 406.32C331.695 406.717 333.037 407.113 334.833 407.51C336.7 407.953 338.228 408.397 339.418 408.84C340.608 409.283 341.623 409.983 342.463 410.94C343.327 411.897 343.758 413.192 343.758 414.825C343.758 416.225 343.362 417.508 342.568 418.675C341.798 419.818 340.632 420.728 339.068 421.405C337.505 422.082 335.603 422.42 333.363 422.42ZM358.518 422.42C355.018 422.42 352.288 421.452 350.328 419.515C348.391 417.578 347.423 414.813 347.423 411.22V397.5H353.093V411.01C353.093 415.397 354.913 417.59 358.553 417.59C360.326 417.59 361.679 417.065 362.613 416.015C363.546 414.942 364.013 413.273 364.013 411.01V397.5H369.613V411.22C369.613 414.813 368.633 417.578 366.673 419.515C364.736 421.452 362.018 422.42 358.518 422.42ZM386.941 422.42C384.444 422.42 382.181 421.883 380.151 420.81C378.144 419.713 376.557 418.208 375.391 416.295C374.247 414.358 373.676 412.177 373.676 409.75C373.676 407.323 374.247 405.153 375.391 403.24C376.557 401.303 378.144 399.798 380.151 398.725C382.181 397.628 384.456 397.08 386.976 397.08C389.099 397.08 391.012 397.453 392.716 398.2C394.442 398.947 395.889 400.02 397.056 401.42L393.416 404.78C391.759 402.867 389.706 401.91 387.256 401.91C385.739 401.91 384.386 402.248 383.196 402.925C382.006 403.578 381.072 404.5 380.396 405.69C379.742 406.88 379.416 408.233 379.416 409.75C379.416 411.267 379.742 412.62 380.396 413.81C381.072 415 382.006 415.933 383.196 416.61C384.386 417.263 385.739 417.59 387.256 417.59C389.706 417.59 391.759 416.622 393.416 414.685L397.056 418.045C395.889 419.468 394.442 420.553 392.716 421.3C390.989 422.047 389.064 422.42 386.941 422.42ZM412.097 422.42C409.6 422.42 407.337 421.883 405.307 420.81C403.3 419.713 401.713 418.208 400.547 416.295C399.403 414.358 398.832 412.177 398.832 409.75C398.832 407.323 399.403 405.153 400.547 403.24C401.713 401.303 403.3 399.798 405.307 398.725C407.337 397.628 409.612 397.08 412.132 397.08C414.255 397.08 416.168 397.453 417.872 398.2C419.598 398.947 421.045 400.02 422.212 401.42L418.572 404.78C416.915 402.867 414.862 401.91 412.412 401.91C410.895 401.91 409.542 402.248 408.352 402.925C407.162 403.578 406.228 404.5 405.552 405.69C404.898 406.88 404.572 408.233 404.572 409.75C404.572 411.267 404.898 412.62 405.552 413.81C406.228 415 407.162 415.933 408.352 416.61C409.542 417.263 410.895 417.59 412.412 417.59C414.862 417.59 416.915 416.622 418.572 414.685L422.212 418.045C421.045 419.468 419.598 420.553 417.872 421.3C416.145 422.047 414.22 422.42 412.097 422.42ZM445.011 417.45V422H426.041V397.5H444.556V402.05H431.676V407.37H443.051V411.78H431.676V417.45H445.011ZM457.572 422.42C455.636 422.42 453.757 422.163 451.937 421.65C450.141 421.113 448.694 420.425 447.597 419.585L449.522 415.315C450.572 416.085 451.821 416.703 453.267 417.17C454.714 417.637 456.161 417.87 457.607 417.87C459.217 417.87 460.407 417.637 461.177 417.17C461.947 416.68 462.332 416.038 462.332 415.245C462.332 414.662 462.099 414.183 461.632 413.81C461.189 413.413 460.606 413.098 459.882 412.865C459.182 412.632 458.226 412.375 457.012 412.095C455.146 411.652 453.617 411.208 452.427 410.765C451.237 410.322 450.211 409.61 449.347 408.63C448.507 407.65 448.087 406.343 448.087 404.71C448.087 403.287 448.472 402.003 449.242 400.86C450.012 399.693 451.167 398.772 452.707 398.095C454.271 397.418 456.172 397.08 458.412 397.08C459.976 397.08 461.504 397.267 462.997 397.64C464.491 398.013 465.797 398.55 466.917 399.25L465.167 403.555C462.904 402.272 460.641 401.63 458.377 401.63C456.791 401.63 455.612 401.887 454.842 402.4C454.096 402.913 453.722 403.59 453.722 404.43C453.722 405.27 454.154 405.9 455.017 406.32C455.904 406.717 457.246 407.113 459.042 407.51C460.909 407.953 462.437 408.397 463.627 408.84C464.817 409.283 465.832 409.983 466.672 410.94C467.536 411.897 467.967 413.192 467.967 414.825C467.967 416.225 467.571 417.508 466.777 418.675C466.007 419.818 464.841 420.728 463.277 421.405C461.714 422.082 459.812 422.42 457.572 422.42ZM479.892 422.42C477.955 422.42 476.077 422.163 474.257 421.65C472.46 421.113 471.013 420.425 469.917 419.585L471.842 415.315C472.892 416.085 474.14 416.703 475.587 417.17C477.033 417.637 478.48 417.87 479.927 417.87C481.537 417.87 482.727 417.637 483.497 417.17C484.267 416.68 484.652 416.038 484.652 415.245C484.652 414.662 484.418 414.183 483.952 413.81C483.508 413.413 482.925 413.098 482.202 412.865C481.502 412.632 480.545 412.375 479.332 412.095C477.465 411.652 475.937 411.208 474.747 410.765C473.557 410.322 472.53 409.61 471.667 408.63C470.827 407.65 470.407 406.343 470.407 404.71C470.407 403.287 470.792 402.003 471.562 400.86C472.332 399.693 473.487 398.772 475.027 398.095C476.59 397.418 478.492 397.08 480.732 397.08C482.295 397.08 483.823 397.267 485.317 397.64C486.81 398.013 488.117 398.55 489.237 399.25L487.487 403.555C485.223 402.272 482.96 401.63 480.697 401.63C479.11 401.63 477.932 401.887 477.162 402.4C476.415 402.913 476.042 403.59 476.042 404.43C476.042 405.27 476.473 405.9 477.337 406.32C478.223 406.717 479.565 407.113 481.362 407.51C483.228 407.953 484.757 408.397 485.947 408.84C487.137 409.283 488.152 409.983 488.992 410.94C489.855 411.897 490.287 413.192 490.287 414.825C490.287 416.225 489.89 417.508 489.097 418.675C488.327 419.818 487.16 420.728 485.597 421.405C484.033 422.082 482.132 422.42 479.892 422.42ZM514.678 397.5C516.848 397.5 518.726 397.862 520.313 398.585C521.923 399.308 523.16 400.335 524.023 401.665C524.886 402.995 525.318 404.57 525.318 406.39C525.318 408.187 524.886 409.762 524.023 411.115C523.16 412.445 521.923 413.472 520.313 414.195C518.726 414.895 516.848 415.245 514.678 415.245H509.743V422H504.073V397.5H514.678ZM514.363 410.625C516.066 410.625 517.361 410.263 518.248 409.54C519.135 408.793 519.578 407.743 519.578 406.39C519.578 405.013 519.135 403.963 518.248 403.24C517.361 402.493 516.066 402.12 514.363 402.12H509.743V410.625H514.363ZM541.573 422.42C539.029 422.42 536.731 421.872 534.678 420.775C532.648 419.678 531.049 418.173 529.883 416.26C528.739 414.323 528.168 412.153 528.168 409.75C528.168 407.347 528.739 405.188 529.883 403.275C531.049 401.338 532.648 399.822 534.678 398.725C536.731 397.628 539.029 397.08 541.573 397.08C544.116 397.08 546.403 397.628 548.433 398.725C550.463 399.822 552.061 401.338 553.228 403.275C554.394 405.188 554.978 407.347 554.978 409.75C554.978 412.153 554.394 414.323 553.228 416.26C552.061 418.173 550.463 419.678 548.433 420.775C546.403 421.872 544.116 422.42 541.573 422.42ZM541.573 417.59C543.019 417.59 544.326 417.263 545.493 416.61C546.659 415.933 547.569 415 548.223 413.81C548.899 412.62 549.238 411.267 549.238 409.75C549.238 408.233 548.899 406.88 548.223 405.69C547.569 404.5 546.659 403.578 545.493 402.925C544.326 402.248 543.019 401.91 541.573 401.91C540.126 401.91 538.819 402.248 537.653 402.925C536.486 403.578 535.564 404.5 534.888 405.69C534.234 406.88 533.908 408.233 533.908 409.75C533.908 411.267 534.234 412.62 534.888 413.81C535.564 415 536.486 415.933 537.653 416.61C538.819 417.263 540.126 417.59 541.573 417.59ZM574.849 422L570.124 415.175H569.844H564.909V422H559.239V397.5H569.844C572.014 397.5 573.892 397.862 575.479 398.585C577.089 399.308 578.326 400.335 579.189 401.665C580.052 402.995 580.484 404.57 580.484 406.39C580.484 408.21 580.041 409.785 579.154 411.115C578.291 412.422 577.054 413.425 575.444 414.125L580.939 422H574.849ZM574.744 406.39C574.744 405.013 574.301 403.963 573.414 403.24C572.527 402.493 571.232 402.12 569.529 402.12H564.909V410.66H569.529C571.232 410.66 572.527 410.287 573.414 409.54C574.301 408.793 574.744 407.743 574.744 406.39ZM589.709 402.12H581.869V397.5H603.219V402.12H595.379V422H589.709V402.12ZM621.175 416.75H609.8L607.63 422H601.82L612.74 397.5H618.34L629.295 422H623.345L621.175 416.75ZM619.39 412.445L615.505 403.065L611.62 412.445H619.39ZM631.837 397.5H637.507V417.38H649.792V422H631.837V397.5Z" fill="#34495E"/>
<path d="M828.905 223.5H834.575V243.38H846.86V248H828.905V223.5ZM858.466 248.28C856.483 248.28 854.698 247.872 853.111 247.055C851.548 246.215 850.323 245.06 849.436 243.59C848.55 242.12 848.106 240.452 848.106 238.585C848.106 236.718 848.55 235.05 849.436 233.58C850.323 232.11 851.548 230.967 853.111 230.15C854.698 229.31 856.483 228.89 858.466 228.89C860.45 228.89 862.223 229.31 863.786 230.15C865.35 230.967 866.575 232.11 867.461 233.58C868.348 235.05 868.791 236.718 868.791 238.585C868.791 240.452 868.348 242.12 867.461 243.59C866.575 245.06 865.35 246.215 863.786 247.055C862.223 247.872 860.45 248.28 858.466 248.28ZM858.466 243.8C859.866 243.8 861.01 243.333 861.896 242.4C862.806 241.443 863.261 240.172 863.261 238.585C863.261 236.998 862.806 235.738 861.896 234.805C861.01 233.848 859.866 233.37 858.466 233.37C857.066 233.37 855.911 233.848 855.001 234.805C854.091 235.738 853.636 236.998 853.636 238.585C853.636 240.172 854.091 241.443 855.001 242.4C855.911 243.333 857.066 243.8 858.466 243.8ZM891.866 229.17V244.85C891.866 248.303 890.968 250.87 889.171 252.55C887.374 254.23 884.749 255.07 881.296 255.07C879.476 255.07 877.749 254.848 876.116 254.405C874.483 253.962 873.129 253.32 872.056 252.48L874.226 248.56C875.019 249.213 876.023 249.727 877.236 250.1C878.449 250.497 879.663 250.695 880.876 250.695C882.766 250.695 884.154 250.263 885.041 249.4C885.951 248.56 886.406 247.277 886.406 245.55V244.745C884.983 246.308 882.999 247.09 880.456 247.09C878.729 247.09 877.143 246.717 875.696 245.97C874.273 245.2 873.141 244.127 872.301 242.75C871.461 241.373 871.041 239.787 871.041 237.99C871.041 236.193 871.461 234.607 872.301 233.23C873.141 231.853 874.273 230.792 875.696 230.045C877.143 229.275 878.729 228.89 880.456 228.89C883.186 228.89 885.263 229.788 886.686 231.585V229.17H891.866ZM881.541 242.61C882.988 242.61 884.166 242.19 885.076 241.35C886.009 240.487 886.476 239.367 886.476 237.99C886.476 236.613 886.009 235.505 885.076 234.665C884.166 233.802 882.988 233.37 881.541 233.37C880.094 233.37 878.904 233.802 877.971 234.665C877.038 235.505 876.571 236.613 876.571 237.99C876.571 239.367 877.038 240.487 877.971 241.35C878.904 242.19 880.094 242.61 881.541 242.61ZM907.245 223.5H912.915V248H907.245V223.5ZM929.789 228.89C932.123 228.89 934.001 229.59 935.424 230.99C936.871 232.39 937.594 234.467 937.594 237.22V248H932.134V238.06C932.134 236.567 931.808 235.458 931.154 234.735C930.501 233.988 929.556 233.615 928.319 233.615C926.943 233.615 925.846 234.047 925.029 234.91C924.213 235.75 923.804 237.01 923.804 238.69V248H918.344V229.17H923.559V231.375C924.283 230.582 925.181 229.975 926.254 229.555C927.328 229.112 928.506 228.89 929.789 228.89ZM964.601 247.09C964.064 247.487 963.399 247.79 962.606 248C961.836 248.187 961.019 248.28 960.156 248.28C957.916 248.28 956.177 247.708 954.941 246.565C953.727 245.422 953.121 243.742 953.121 241.525V233.79H950.216V229.59H953.121V225.005H958.581V229.59H963.271V233.79H958.581V241.455C958.581 242.248 958.779 242.867 959.176 243.31C959.596 243.73 960.179 243.94 960.926 243.94C961.789 243.94 962.524 243.707 963.131 243.24L964.601 247.09ZM976.044 248.28C974.061 248.28 972.276 247.872 970.689 247.055C969.126 246.215 967.901 245.06 967.014 243.59C966.128 242.12 965.684 240.452 965.684 238.585C965.684 236.718 966.128 235.05 967.014 233.58C967.901 232.11 969.126 230.967 970.689 230.15C972.276 229.31 974.061 228.89 976.044 228.89C978.028 228.89 979.801 229.31 981.364 230.15C982.928 230.967 984.153 232.11 985.039 233.58C985.926 235.05 986.369 236.718 986.369 238.585C986.369 240.452 985.926 242.12 985.039 243.59C984.153 245.06 982.928 246.215 981.364 247.055C979.801 247.872 978.028 248.28 976.044 248.28ZM976.044 243.8C977.444 243.8 978.588 243.333 979.474 242.4C980.384 241.443 980.839 240.172 980.839 238.585C980.839 236.998 980.384 235.738 979.474 234.805C978.588 233.848 977.444 233.37 976.044 233.37C974.644 233.37 973.489 233.848 972.579 234.805C971.669 235.738 971.214 236.998 971.214 238.585C971.214 240.172 971.669 241.443 972.579 242.4C973.489 243.333 974.644 243.8 976.044 243.8ZM1007.53 228.89C1010.44 228.89 1012.68 229.59 1014.25 230.99C1015.81 232.367 1016.59 234.455 1016.59 237.255V248H1011.48V245.655C1010.45 247.405 1008.54 248.28 1005.74 248.28C1004.29 248.28 1003.03 248.035 1001.96 247.545C1000.91 247.055 1000.11 246.378 999.546 245.515C998.986 244.652 998.706 243.672 998.706 242.575C998.706 240.825 999.359 239.448 1000.67 238.445C1002 237.442 1004.04 236.94 1006.79 236.94H1011.13C1011.13 235.75 1010.77 234.84 1010.05 234.21C1009.32 233.557 1008.24 233.23 1006.79 233.23C1005.79 233.23 1004.8 233.393 1003.82 233.72C1002.86 234.023 1002.04 234.443 1001.37 234.98L999.406 231.165C1000.43 230.442 1001.66 229.882 1003.08 229.485C1004.53 229.088 1006.01 228.89 1007.53 228.89ZM1007.11 244.605C1008.04 244.605 1008.87 244.395 1009.59 243.975C1010.31 243.532 1010.83 242.89 1011.13 242.05V240.125H1007.39C1005.15 240.125 1004.03 240.86 1004.03 242.33C1004.03 243.03 1004.29 243.59 1004.83 244.01C1005.39 244.407 1006.15 244.605 1007.11 244.605ZM1030.84 248.28C1028.83 248.28 1027.02 247.872 1025.41 247.055C1023.83 246.215 1022.58 245.06 1021.67 243.59C1020.78 242.12 1020.34 240.452 1020.34 238.585C1020.34 236.718 1020.78 235.05 1021.67 233.58C1022.58 232.11 1023.83 230.967 1025.41 230.15C1027.02 229.31 1028.83 228.89 1030.84 228.89C1032.82 228.89 1034.55 229.31 1036.02 230.15C1037.51 230.967 1038.6 232.145 1039.27 233.685L1035.04 235.96C1034.06 234.233 1032.65 233.37 1030.8 233.37C1029.38 233.37 1028.2 233.837 1027.27 234.77C1026.33 235.703 1025.87 236.975 1025.87 238.585C1025.87 240.195 1026.33 241.467 1027.27 242.4C1028.2 243.333 1029.38 243.8 1030.8 243.8C1032.67 243.8 1034.08 242.937 1035.04 241.21L1039.27 243.52C1038.6 245.013 1037.51 246.18 1036.02 247.02C1034.55 247.86 1032.82 248.28 1030.84 248.28ZM1051.28 248.28C1049.27 248.28 1047.46 247.872 1045.85 247.055C1044.27 246.215 1043.02 245.06 1042.11 243.59C1041.22 242.12 1040.78 240.452 1040.78 238.585C1040.78 236.718 1041.22 235.05 1042.11 233.58C1043.02 232.11 1044.27 230.967 1045.85 230.15C1047.46 229.31 1049.27 228.89 1051.28 228.89C1053.26 228.89 1054.99 229.31 1056.46 230.15C1057.95 230.967 1059.04 232.145 1059.71 233.685L1055.48 235.96C1054.5 234.233 1053.09 233.37 1051.24 233.37C1049.82 233.37 1048.64 233.837 1047.71 234.77C1046.77 235.703 1046.31 236.975 1046.31 238.585C1046.31 240.195 1046.77 241.467 1047.71 242.4C1048.64 243.333 1049.82 243.8 1051.24 243.8C1053.11 243.8 1054.52 242.937 1055.48 241.21L1059.71 243.52C1059.04 245.013 1057.95 246.18 1056.46 247.02C1054.99 247.86 1053.26 248.28 1051.28 248.28ZM1081.06 238.655C1081.06 238.725 1081.03 239.215 1080.96 240.125H1066.71C1066.97 241.292 1067.58 242.213 1068.53 242.89C1069.49 243.567 1070.68 243.905 1072.1 243.905C1073.08 243.905 1073.95 243.765 1074.69 243.485C1075.46 243.182 1076.17 242.715 1076.83 242.085L1079.73 245.235C1077.96 247.265 1075.37 248.28 1071.96 248.28C1069.84 248.28 1067.96 247.872 1066.33 247.055C1064.69 246.215 1063.43 245.06 1062.55 243.59C1061.66 242.12 1061.22 240.452 1061.22 238.585C1061.22 236.742 1061.65 235.085 1062.51 233.615C1063.4 232.122 1064.6 230.967 1066.12 230.15C1067.66 229.31 1069.37 228.89 1071.26 228.89C1073.11 228.89 1074.77 229.287 1076.27 230.08C1077.76 230.873 1078.93 232.017 1079.77 233.51C1080.63 234.98 1081.06 236.695 1081.06 238.655ZM1071.3 233.02C1070.06 233.02 1069.02 233.37 1068.18 234.07C1067.34 234.77 1066.83 235.727 1066.64 236.94H1075.92C1075.73 235.75 1075.22 234.805 1074.38 234.105C1073.54 233.382 1072.51 233.02 1071.3 233.02ZM1091.03 248.28C1089.47 248.28 1087.94 248.093 1086.45 247.72C1084.95 247.323 1083.76 246.833 1082.88 246.25L1084.7 242.33C1085.54 242.867 1086.55 243.31 1087.74 243.66C1088.93 243.987 1090.1 244.15 1091.24 244.15C1093.55 244.15 1094.71 243.578 1094.71 242.435C1094.71 241.898 1094.39 241.513 1093.76 241.28C1093.13 241.047 1092.16 240.848 1090.86 240.685C1089.32 240.452 1088.05 240.183 1087.04 239.88C1086.04 239.577 1085.16 239.04 1084.42 238.27C1083.69 237.5 1083.33 236.403 1083.33 234.98C1083.33 233.79 1083.67 232.74 1084.35 231.83C1085.05 230.897 1086.05 230.173 1087.36 229.66C1088.69 229.147 1090.25 228.89 1092.05 228.89C1093.38 228.89 1094.7 229.042 1096 229.345C1097.33 229.625 1098.43 230.022 1099.29 230.535L1097.47 234.42C1095.82 233.487 1094.01 233.02 1092.05 233.02C1090.88 233.02 1090.01 233.183 1089.42 233.51C1088.84 233.837 1088.55 234.257 1088.55 234.77C1088.55 235.353 1088.86 235.762 1089.49 235.995C1090.12 236.228 1091.13 236.45 1092.5 236.66C1094.04 236.917 1095.3 237.197 1096.28 237.5C1097.26 237.78 1098.11 238.305 1098.84 239.075C1099.56 239.845 1099.92 240.918 1099.92 242.295C1099.92 243.462 1099.57 244.5 1098.87 245.41C1098.17 246.32 1097.15 247.032 1095.79 247.545C1094.46 248.035 1092.88 248.28 1091.03 248.28ZM1109.63 248.28C1108.06 248.28 1106.53 248.093 1105.04 247.72C1103.55 247.323 1102.36 246.833 1101.47 246.25L1103.29 242.33C1104.13 242.867 1105.15 243.31 1106.34 243.66C1107.53 243.987 1108.69 244.15 1109.84 244.15C1112.15 244.15 1113.3 243.578 1113.3 242.435C1113.3 241.898 1112.99 241.513 1112.36 241.28C1111.73 241.047 1110.76 240.848 1109.45 240.685C1107.91 240.452 1106.64 240.183 1105.64 239.88C1104.63 239.577 1103.76 239.04 1103.01 238.27C1102.29 237.5 1101.93 236.403 1101.93 234.98C1101.93 233.79 1102.26 232.74 1102.94 231.83C1103.64 230.897 1104.64 230.173 1105.95 229.66C1107.28 229.147 1108.84 228.89 1110.64 228.89C1111.97 228.89 1113.29 229.042 1114.6 229.345C1115.93 229.625 1117.02 230.022 1117.89 230.535L1116.07 234.42C1114.41 233.487 1112.6 233.02 1110.64 233.02C1109.47 233.02 1108.6 233.183 1108.02 233.51C1107.43 233.837 1107.14 234.257 1107.14 234.77C1107.14 235.353 1107.46 235.762 1108.09 235.995C1108.72 236.228 1109.72 236.45 1111.1 236.66C1112.64 236.917 1113.9 237.197 1114.88 237.5C1115.86 237.78 1116.71 238.305 1117.43 239.075C1118.15 239.845 1118.52 240.918 1118.52 242.295C1118.52 243.462 1118.17 244.5 1117.47 245.41C1116.77 246.32 1115.74 247.032 1114.39 247.545C1113.06 248.035 1111.47 248.28 1109.63 248.28ZM1132.18 223.5H1143.31C1145.97 223.5 1148.32 224.013 1150.35 225.04C1152.4 226.043 1153.99 227.467 1155.11 229.31C1156.25 231.153 1156.82 233.3 1156.82 235.75C1156.82 238.2 1156.25 240.347 1155.11 242.19C1153.99 244.033 1152.4 245.468 1150.35 246.495C1148.32 247.498 1145.97 248 1143.31 248H1132.18V223.5ZM1143.03 243.345C1145.48 243.345 1147.43 242.668 1148.88 241.315C1150.35 239.938 1151.08 238.083 1151.08 235.75C1151.08 233.417 1150.35 231.573 1148.88 230.22C1147.43 228.843 1145.48 228.155 1143.03 228.155H1137.85V243.345H1143.03ZM1168.31 228.89C1171.22 228.89 1173.46 229.59 1175.03 230.99C1176.59 232.367 1177.37 234.455 1177.37 237.255V248H1172.26V245.655C1171.24 247.405 1169.32 248.28 1166.52 248.28C1165.08 248.28 1163.82 248.035 1162.74 247.545C1161.69 247.055 1160.89 246.378 1160.33 245.515C1159.77 244.652 1159.49 243.672 1159.49 242.575C1159.49 240.825 1160.14 239.448 1161.45 238.445C1162.78 237.442 1164.82 236.94 1167.57 236.94H1171.91C1171.91 235.75 1171.55 234.84 1170.83 234.21C1170.1 233.557 1169.02 233.23 1167.57 233.23C1166.57 233.23 1165.58 233.393 1164.6 233.72C1163.64 234.023 1162.82 234.443 1162.15 234.98L1160.19 231.165C1161.21 230.442 1162.44 229.882 1163.86 229.485C1165.31 229.088 1166.79 228.89 1168.31 228.89ZM1167.89 244.605C1168.82 244.605 1169.65 244.395 1170.37 243.975C1171.1 243.532 1171.61 242.89 1171.91 242.05V240.125H1168.17C1165.93 240.125 1164.81 240.86 1164.81 242.33C1164.81 243.03 1165.08 243.59 1165.61 244.01C1166.17 244.407 1166.93 244.605 1167.89 244.605ZM1188.65 248.28C1187.09 248.28 1185.56 248.093 1184.06 247.72C1182.57 247.323 1181.38 246.833 1180.49 246.25L1182.31 242.33C1183.15 242.867 1184.17 243.31 1185.36 243.66C1186.55 243.987 1187.72 244.15 1188.86 244.15C1191.17 244.15 1192.32 243.578 1192.32 242.435C1192.32 241.898 1192.01 241.513 1191.38 241.28C1190.75 241.047 1189.78 240.848 1188.47 240.685C1186.93 240.452 1185.66 240.183 1184.66 239.88C1183.66 239.577 1182.78 239.04 1182.03 238.27C1181.31 237.5 1180.95 236.403 1180.95 234.98C1180.95 233.79 1181.29 232.74 1181.96 231.83C1182.66 230.897 1183.67 230.173 1184.97 229.66C1186.3 229.147 1187.87 228.89 1189.66 228.89C1190.99 228.89 1192.31 229.042 1193.62 229.345C1194.95 229.625 1196.05 230.022 1196.91 230.535L1195.09 234.42C1193.43 233.487 1191.62 233.02 1189.66 233.02C1188.5 233.02 1187.62 233.183 1187.04 233.51C1186.46 233.837 1186.16 234.257 1186.16 234.77C1186.16 235.353 1186.48 235.762 1187.11 235.995C1187.74 236.228 1188.74 236.45 1190.12 236.66C1191.66 236.917 1192.92 237.197 1193.9 237.5C1194.88 237.78 1195.73 238.305 1196.45 239.075C1197.18 239.845 1197.54 240.918 1197.54 242.295C1197.54 243.462 1197.19 244.5 1196.49 245.41C1195.79 246.32 1194.76 247.032 1193.41 247.545C1192.08 248.035 1190.49 248.28 1188.65 248.28ZM1212.35 228.89C1214.69 228.89 1216.56 229.59 1217.99 230.99C1219.43 232.39 1220.16 234.467 1220.16 237.22V248H1214.7V238.06C1214.7 236.567 1214.37 235.458 1213.72 234.735C1213.06 233.988 1212.12 233.615 1210.88 233.615C1209.51 233.615 1208.41 234.047 1207.59 234.91C1206.78 235.75 1206.37 237.01 1206.37 238.69V248H1200.91V222.03H1206.37V231.13C1207.09 230.407 1207.97 229.858 1208.99 229.485C1210.02 229.088 1211.14 228.89 1212.35 228.89ZM1236.24 228.89C1237.99 228.89 1239.57 229.298 1241 230.115C1242.44 230.908 1243.58 232.04 1244.39 233.51C1245.21 234.957 1245.62 236.648 1245.62 238.585C1245.62 240.522 1245.21 242.225 1244.39 243.695C1243.58 245.142 1242.44 246.273 1241 247.09C1239.57 247.883 1237.99 248.28 1236.24 248.28C1233.65 248.28 1231.68 247.463 1230.32 245.83V248H1225.11V222.03H1230.57V231.165C1231.94 229.648 1233.83 228.89 1236.24 228.89ZM1235.29 243.8C1236.69 243.8 1237.84 243.333 1238.72 242.4C1239.63 241.443 1240.09 240.172 1240.09 238.585C1240.09 236.998 1239.63 235.738 1238.72 234.805C1237.84 233.848 1236.69 233.37 1235.29 233.37C1233.89 233.37 1232.74 233.848 1231.83 234.805C1230.94 235.738 1230.5 236.998 1230.5 238.585C1230.5 240.172 1230.94 241.443 1231.83 242.4C1232.74 243.333 1233.89 243.8 1235.29 243.8ZM1258.23 248.28C1256.25 248.28 1254.46 247.872 1252.88 247.055C1251.31 246.215 1250.09 245.06 1249.2 243.59C1248.32 242.12 1247.87 240.452 1247.87 238.585C1247.87 236.718 1248.32 235.05 1249.2 233.58C1250.09 232.11 1251.31 230.967 1252.88 230.15C1254.46 229.31 1256.25 228.89 1258.23 228.89C1260.22 228.89 1261.99 229.31 1263.55 230.15C1265.12 230.967 1266.34 232.11 1267.23 233.58C1268.11 235.05 1268.56 236.718 1268.56 238.585C1268.56 240.452 1268.11 242.12 1267.23 243.59C1266.34 245.06 1265.12 246.215 1263.55 247.055C1261.99 247.872 1260.22 248.28 1258.23 248.28ZM1258.23 243.8C1259.63 243.8 1260.78 243.333 1261.66 242.4C1262.57 241.443 1263.03 240.172 1263.03 238.585C1263.03 236.998 1262.57 235.738 1261.66 234.805C1260.78 233.848 1259.63 233.37 1258.23 233.37C1256.83 233.37 1255.68 233.848 1254.77 234.805C1253.86 235.738 1253.4 236.998 1253.4 238.585C1253.4 240.172 1253.86 241.443 1254.77 242.4C1255.68 243.333 1256.83 243.8 1258.23 243.8ZM1279.49 228.89C1282.41 228.89 1284.65 229.59 1286.21 230.99C1287.78 232.367 1288.56 234.455 1288.56 237.255V248H1283.45V245.655C1282.42 247.405 1280.51 248.28 1277.71 248.28C1276.26 248.28 1275 248.035 1273.93 247.545C1272.88 247.055 1272.07 246.378 1271.51 245.515C1270.95 244.652 1270.67 243.672 1270.67 242.575C1270.67 240.825 1271.33 239.448 1272.63 238.445C1273.96 237.442 1276.01 236.94 1278.76 236.94H1283.1C1283.1 235.75 1282.74 234.84 1282.01 234.21C1281.29 233.557 1280.21 233.23 1278.76 233.23C1277.76 233.23 1276.76 233.393 1275.78 233.72C1274.83 234.023 1274.01 234.443 1273.33 234.98L1271.37 231.165C1272.4 230.442 1273.63 229.882 1275.05 229.485C1276.5 229.088 1277.98 228.89 1279.49 228.89ZM1279.07 244.605C1280.01 244.605 1280.84 244.395 1281.56 243.975C1282.28 243.532 1282.8 242.89 1283.1 242.05V240.125H1279.35C1277.11 240.125 1275.99 240.86 1275.99 242.33C1275.99 243.03 1276.26 243.59 1276.8 244.01C1277.36 244.407 1278.12 244.605 1279.07 244.605ZM1298.72 231.655C1299.37 230.745 1300.24 230.057 1301.34 229.59C1302.46 229.123 1303.74 228.89 1305.19 228.89V233.93C1304.58 233.883 1304.18 233.86 1303.97 233.86C1302.4 233.86 1301.18 234.303 1300.29 235.19C1299.4 236.053 1298.96 237.36 1298.96 239.11V248H1293.5V229.17H1298.72V231.655ZM1327.45 222.03V248H1322.23V245.83C1320.88 247.463 1318.92 248.28 1316.35 248.28C1314.58 248.28 1312.97 247.883 1311.52 247.09C1310.1 246.297 1308.98 245.165 1308.16 243.695C1307.34 242.225 1306.94 240.522 1306.94 238.585C1306.94 236.648 1307.34 234.945 1308.16 233.475C1308.98 232.005 1310.1 230.873 1311.52 230.08C1312.97 229.287 1314.58 228.89 1316.35 228.89C1318.75 228.89 1320.63 229.648 1321.99 231.165V222.03H1327.45ZM1317.3 243.8C1318.67 243.8 1319.82 243.333 1320.73 242.4C1321.64 241.443 1322.09 240.172 1322.09 238.585C1322.09 236.998 1321.64 235.738 1320.73 234.805C1319.82 233.848 1318.67 233.37 1317.3 233.37C1315.9 233.37 1314.74 233.848 1313.83 234.805C1312.92 235.738 1312.47 236.998 1312.47 238.585C1312.47 240.172 1312.92 241.443 1313.83 242.4C1314.74 243.333 1315.9 243.8 1317.3 243.8Z" fill="black"/>
<rect x="824" y="356" width="494" height="3" fill="#C4C4C4"/>
<path d="M833.504 339.144C831.328 339.144 829.632 338.52 828.416 337.272C827.2 336.024 826.592 334.208 826.592 331.824V322.2H828.368V331.752C828.368 333.704 828.808 335.16 829.688 336.12C830.568 337.08 831.84 337.56 833.504 337.56C835.184 337.56 836.464 337.08 837.344 336.12C838.224 335.16 838.664 333.704 838.664 331.752V322.2H840.392V331.824C840.392 334.208 839.784 336.024 838.568 337.272C837.368 338.52 835.68 339.144 833.504 339.144ZM848.768 339.12C847.744 339.12 846.76 338.976 845.816 338.688C844.888 338.384 844.16 338.008 843.632 337.56L844.4 336.216C844.928 336.632 845.592 336.976 846.392 337.248C847.192 337.504 848.024 337.632 848.888 337.632C850.04 337.632 850.888 337.456 851.432 337.104C851.992 336.736 852.272 336.224 852.272 335.568C852.272 335.104 852.12 334.744 851.816 334.488C851.512 334.216 851.128 334.016 850.664 333.888C850.2 333.744 849.584 333.608 848.816 333.48C847.792 333.288 846.968 333.096 846.344 332.904C845.72 332.696 845.184 332.352 844.736 331.872C844.304 331.392 844.088 330.728 844.088 329.88C844.088 328.824 844.528 327.96 845.408 327.288C846.288 326.616 847.512 326.28 849.08 326.28C849.896 326.28 850.712 326.392 851.528 326.616C852.344 326.824 853.016 327.104 853.544 327.456L852.8 328.824C851.76 328.104 850.52 327.744 849.08 327.744C847.992 327.744 847.168 327.936 846.608 328.32C846.064 328.704 845.792 329.208 845.792 329.832C845.792 330.312 845.944 330.696 846.248 330.984C846.568 331.272 846.96 331.488 847.424 331.632C847.888 331.76 848.528 331.896 849.344 332.04C850.352 332.232 851.16 332.424 851.768 332.616C852.376 332.808 852.896 333.136 853.328 333.6C853.76 334.064 853.976 334.704 853.976 335.52C853.976 336.624 853.512 337.504 852.584 338.16C851.672 338.8 850.4 339.12 848.768 339.12ZM868.118 333.216H857.558C857.654 334.528 858.158 335.592 859.07 336.408C859.982 337.208 861.134 337.608 862.526 337.608C863.31 337.608 864.03 337.472 864.686 337.2C865.342 336.912 865.91 336.496 866.39 335.952L867.35 337.056C866.79 337.728 866.086 338.24 865.238 338.592C864.406 338.944 863.486 339.12 862.478 339.12C861.182 339.12 860.03 338.848 859.022 338.304C858.03 337.744 857.254 336.976 856.694 336C856.134 335.024 855.854 333.92 855.854 332.688C855.854 331.456 856.118 330.352 856.646 329.376C857.19 328.4 857.926 327.64 858.854 327.096C859.798 326.552 860.854 326.28 862.022 326.28C863.19 326.28 864.238 326.552 865.166 327.096C866.094 327.64 866.822 328.4 867.35 329.376C867.878 330.336 868.142 331.44 868.142 332.688L868.118 333.216ZM862.022 327.744C860.806 327.744 859.782 328.136 858.95 328.92C858.134 329.688 857.67 330.696 857.558 331.944H866.51C866.398 330.696 865.926 329.688 865.094 328.92C864.278 328.136 863.254 327.744 862.022 327.744ZM873.242 328.848C873.642 328 874.234 327.36 875.018 326.928C875.818 326.496 876.802 326.28 877.97 326.28V327.936L877.562 327.912C876.234 327.912 875.194 328.32 874.442 329.136C873.69 329.952 873.314 331.096 873.314 332.568V339H871.61V326.376H873.242V328.848ZM887.488 326.28C889.072 326.28 890.328 326.744 891.256 327.672C892.2 328.584 892.672 329.92 892.672 331.68V339H890.968V331.848C890.968 330.536 890.64 329.536 889.984 328.848C889.328 328.16 888.392 327.816 887.176 327.816C885.816 327.816 884.736 328.224 883.936 329.04C883.152 329.84 882.76 330.952 882.76 332.376V339H881.056V326.376H882.688V328.704C883.152 327.936 883.792 327.344 884.608 326.928C885.44 326.496 886.4 326.28 887.488 326.28ZM901.714 326.28C903.362 326.28 904.626 326.696 905.506 327.528C906.386 328.344 906.826 329.56 906.826 331.176V339H905.194V337.032C904.81 337.688 904.242 338.2 903.49 338.568C902.754 338.936 901.874 339.12 900.85 339.12C899.442 339.12 898.322 338.784 897.49 338.112C896.658 337.44 896.242 336.552 896.242 335.448C896.242 334.376 896.626 333.512 897.394 332.856C898.178 332.2 899.418 331.872 901.114 331.872H905.122V331.104C905.122 330.016 904.818 329.192 904.21 328.632C903.602 328.056 902.714 327.768 901.546 327.768C900.746 327.768 899.978 327.904 899.242 328.176C898.506 328.432 897.874 328.792 897.346 329.256L896.578 327.984C897.218 327.44 897.986 327.024 898.882 326.736C899.778 326.432 900.722 326.28 901.714 326.28ZM901.114 337.776C902.074 337.776 902.898 337.56 903.586 337.128C904.274 336.68 904.786 336.04 905.122 335.208V333.144H901.162C899.002 333.144 897.922 333.896 897.922 335.4C897.922 336.136 898.202 336.72 898.762 337.152C899.322 337.568 900.106 337.776 901.114 337.776ZM927.198 326.28C928.782 326.28 930.022 326.736 930.918 327.648C931.83 328.56 932.286 329.904 932.286 331.68V339H930.582V331.848C930.582 330.536 930.262 329.536 929.622 328.848C928.998 328.16 928.11 327.816 926.958 327.816C925.646 327.816 924.614 328.224 923.862 329.04C923.11 329.84 922.734 330.952 922.734 332.376V339H921.03V331.848C921.03 330.536 920.71 329.536 920.07 328.848C919.446 328.16 918.55 327.816 917.382 327.816C916.086 327.816 915.054 328.224 914.286 329.04C913.534 329.84 913.158 330.952 913.158 332.376V339H911.454V326.376H913.086V328.68C913.534 327.912 914.158 327.32 914.958 326.904C915.758 326.488 916.678 326.28 917.718 326.28C918.774 326.28 919.686 326.504 920.454 326.952C921.238 327.4 921.822 328.064 922.206 328.944C922.67 328.112 923.334 327.464 924.198 327C925.078 326.52 926.078 326.28 927.198 326.28ZM947.946 333.216H937.386C937.482 334.528 937.986 335.592 938.898 336.408C939.81 337.208 940.962 337.608 942.354 337.608C943.138 337.608 943.858 337.472 944.514 337.2C945.17 336.912 945.738 336.496 946.218 335.952L947.178 337.056C946.618 337.728 945.914 338.24 945.066 338.592C944.234 338.944 943.314 339.12 942.306 339.12C941.01 339.12 939.858 338.848 938.85 338.304C937.858 337.744 937.082 336.976 936.522 336C935.962 335.024 935.682 333.92 935.682 332.688C935.682 331.456 935.946 330.352 936.474 329.376C937.018 328.4 937.754 327.64 938.682 327.096C939.626 326.552 940.682 326.28 941.85 326.28C943.018 326.28 944.066 326.552 944.994 327.096C945.922 327.64 946.65 328.4 947.178 329.376C947.706 330.336 947.97 331.44 947.97 332.688L947.946 333.216ZM941.85 327.744C940.634 327.744 939.61 328.136 938.778 328.92C937.962 329.688 937.498 330.696 937.386 331.944H946.338C946.226 330.696 945.754 329.688 944.922 328.92C944.106 328.136 943.082 327.744 941.85 327.744Z" fill="black"/>
<rect x="826" y="551" width="494" height="3" fill="#C4C4C4"/>
<path d="M835.024 517.2C837.168 517.2 838.848 517.712 840.064 518.736C841.28 519.76 841.888 521.168 841.888 522.96C841.888 524.752 841.28 526.16 840.064 527.184C838.848 528.192 837.168 528.696 835.024 528.696H830.512V534H828.736V517.2H835.024ZM834.976 527.136C836.64 527.136 837.912 526.776 838.792 526.056C839.672 525.32 840.112 524.288 840.112 522.96C840.112 521.6 839.672 520.56 838.792 519.84C837.912 519.104 836.64 518.736 834.976 518.736H830.512V527.136H834.976ZM849.667 521.28C851.315 521.28 852.579 521.696 853.459 522.528C854.339 523.344 854.779 524.56 854.779 526.176V534H853.147V532.032C852.763 532.688 852.195 533.2 851.443 533.568C850.707 533.936 849.827 534.12 848.803 534.12C847.395 534.12 846.275 533.784 845.443 533.112C844.611 532.44 844.195 531.552 844.195 530.448C844.195 529.376 844.579 528.512 845.347 527.856C846.131 527.2 847.371 526.872 849.067 526.872H853.075V526.104C853.075 525.016 852.771 524.192 852.163 523.632C851.555 523.056 850.667 522.768 849.499 522.768C848.699 522.768 847.931 522.904 847.195 523.176C846.459 523.432 845.827 523.792 845.299 524.256L844.531 522.984C845.171 522.44 845.939 522.024 846.835 521.736C847.731 521.432 848.675 521.28 849.667 521.28ZM849.067 532.776C850.027 532.776 850.851 532.56 851.539 532.128C852.227 531.68 852.739 531.04 853.075 530.208V528.144H849.115C846.955 528.144 845.875 528.896 845.875 530.4C845.875 531.136 846.155 531.72 846.715 532.152C847.275 532.568 848.059 532.776 849.067 532.776ZM862.791 534.12C861.767 534.12 860.783 533.976 859.839 533.688C858.911 533.384 858.183 533.008 857.655 532.56L858.423 531.216C858.951 531.632 859.615 531.976 860.415 532.248C861.215 532.504 862.047 532.632 862.911 532.632C864.063 532.632 864.911 532.456 865.455 532.104C866.015 531.736 866.295 531.224 866.295 530.568C866.295 530.104 866.143 529.744 865.839 529.488C865.535 529.216 865.151 529.016 864.687 528.888C864.223 528.744 863.607 528.608 862.839 528.48C861.815 528.288 860.991 528.096 860.367 527.904C859.743 527.696 859.207 527.352 858.759 526.872C858.327 526.392 858.111 525.728 858.111 524.88C858.111 523.824 858.551 522.96 859.431 522.288C860.311 521.616 861.535 521.28 863.103 521.28C863.919 521.28 864.735 521.392 865.551 521.616C866.367 521.824 867.039 522.104 867.567 522.456L866.823 523.824C865.783 523.104 864.543 522.744 863.103 522.744C862.015 522.744 861.191 522.936 860.631 523.32C860.087 523.704 859.815 524.208 859.815 524.832C859.815 525.312 859.967 525.696 860.271 525.984C860.591 526.272 860.983 526.488 861.447 526.632C861.911 526.76 862.551 526.896 863.367 527.04C864.375 527.232 865.183 527.424 865.791 527.616C866.399 527.808 866.919 528.136 867.351 528.6C867.783 529.064 867.999 529.704 867.999 530.52C867.999 531.624 867.535 532.504 866.607 533.16C865.695 533.8 864.423 534.12 862.791 534.12ZM874.533 534.12C873.509 534.12 872.525 533.976 871.581 533.688C870.653 533.384 869.925 533.008 869.397 532.56L870.165 531.216C870.693 531.632 871.357 531.976 872.157 532.248C872.957 532.504 873.789 532.632 874.653 532.632C875.805 532.632 876.653 532.456 877.197 532.104C877.757 531.736 878.037 531.224 878.037 530.568C878.037 530.104 877.885 529.744 877.581 529.488C877.277 529.216 876.893 529.016 876.429 528.888C875.965 528.744 875.349 528.608 874.581 528.48C873.557 528.288 872.733 528.096 872.109 527.904C871.485 527.696 870.949 527.352 870.501 526.872C870.069 526.392 869.853 525.728 869.853 524.88C869.853 523.824 870.293 522.96 871.173 522.288C872.053 521.616 873.277 521.28 874.845 521.28C875.661 521.28 876.477 521.392 877.293 521.616C878.109 521.824 878.781 522.104 879.309 522.456L878.565 523.824C877.525 523.104 876.285 522.744 874.845 522.744C873.757 522.744 872.933 522.936 872.373 523.32C871.829 523.704 871.557 524.208 871.557 524.832C871.557 525.312 871.709 525.696 872.013 525.984C872.333 526.272 872.725 526.488 873.189 526.632C873.653 526.76 874.293 526.896 875.109 527.04C876.117 527.232 876.925 527.424 877.533 527.616C878.141 527.808 878.661 528.136 879.093 528.6C879.525 529.064 879.741 529.704 879.741 530.52C879.741 531.624 879.277 532.504 878.349 533.16C877.437 533.8 876.165 534.12 874.533 534.12ZM901.185 521.376L896.409 534H894.801L890.817 523.656L886.833 534H885.225L880.473 521.376H882.105L886.065 532.104L890.121 521.376H891.585L895.617 532.104L899.625 521.376H901.185ZM908.559 534.12C907.343 534.12 906.247 533.848 905.271 533.304C904.295 532.744 903.527 531.976 902.967 531C902.407 530.024 902.127 528.92 902.127 527.688C902.127 526.456 902.407 525.352 902.967 524.376C903.527 523.4 904.295 522.64 905.271 522.096C906.247 521.552 907.343 521.28 908.559 521.28C909.775 521.28 910.871 521.552 911.847 522.096C912.823 522.64 913.583 523.4 914.127 524.376C914.687 525.352 914.967 526.456 914.967 527.688C914.967 528.92 914.687 530.024 914.127 531C913.583 531.976 912.823 532.744 911.847 533.304C910.871 533.848 909.775 534.12 908.559 534.12ZM908.559 532.608C909.455 532.608 910.255 532.408 910.959 532.008C911.679 531.592 912.239 531.008 912.639 530.256C913.039 529.504 913.239 528.648 913.239 527.688C913.239 526.728 913.039 525.872 912.639 525.12C912.239 524.368 911.679 523.792 910.959 523.392C910.255 522.976 909.455 522.768 908.559 522.768C907.663 522.768 906.855 522.976 906.135 523.392C905.431 523.792 904.871 524.368 904.455 525.12C904.055 525.872 903.855 526.728 903.855 527.688C903.855 528.648 904.055 529.504 904.455 530.256C904.871 531.008 905.431 531.592 906.135 532.008C906.855 532.408 907.663 532.608 908.559 532.608ZM920.078 523.848C920.478 523 921.07 522.36 921.854 521.928C922.654 521.496 923.638 521.28 924.806 521.28V522.936L924.398 522.912C923.07 522.912 922.03 523.32 921.278 524.136C920.526 524.952 920.15 526.096 920.15 527.568V534H918.446V521.376H920.078V523.848ZM939.294 516.192V534H937.662V531.504C937.15 532.352 936.47 533 935.622 533.448C934.79 533.896 933.846 534.12 932.79 534.12C931.606 534.12 930.534 533.848 929.574 533.304C928.614 532.76 927.862 532 927.318 531.024C926.774 530.048 926.502 528.936 926.502 527.688C926.502 526.44 926.774 525.328 927.318 524.352C927.862 523.376 928.614 522.624 929.574 522.096C930.534 521.552 931.606 521.28 932.79 521.28C933.814 521.28 934.734 521.496 935.55 521.928C936.382 522.344 937.062 522.96 937.59 523.776V516.192H939.294ZM932.934 532.608C933.814 532.608 934.606 532.408 935.31 532.008C936.03 531.592 936.59 531.008 936.99 530.256C937.406 529.504 937.614 528.648 937.614 527.688C937.614 526.728 937.406 525.872 936.99 525.12C936.59 524.368 936.03 523.792 935.31 523.392C934.606 522.976 933.814 522.768 932.934 522.768C932.038 522.768 931.23 522.976 930.51 523.392C929.806 523.792 929.246 524.368 928.83 525.12C928.43 525.872 928.23 526.728 928.23 527.688C928.23 528.648 928.43 529.504 928.83 530.256C929.246 531.008 929.806 531.592 930.51 532.008C931.23 532.408 932.038 532.608 932.934 532.608Z" fill="black"/>
<rect x="826" y="551" width="494" height="3" fill="#C4C4C4"/>
<path d="M835.024 517.2C837.168 517.2 838.848 517.712 840.064 518.736C841.28 519.76 841.888 521.168 841.888 522.96C841.888 524.752 841.28 526.16 840.064 527.184C838.848 528.192 837.168 528.696 835.024 528.696H830.512V534H828.736V517.2H835.024ZM834.976 527.136C836.64 527.136 837.912 526.776 838.792 526.056C839.672 525.32 840.112 524.288 840.112 522.96C840.112 521.6 839.672 520.56 838.792 519.84C837.912 519.104 836.64 518.736 834.976 518.736H830.512V527.136H834.976ZM849.667 521.28C851.315 521.28 852.579 521.696 853.459 522.528C854.339 523.344 854.779 524.56 854.779 526.176V534H853.147V532.032C852.763 532.688 852.195 533.2 851.443 533.568C850.707 533.936 849.827 534.12 848.803 534.12C847.395 534.12 846.275 533.784 845.443 533.112C844.611 532.44 844.195 531.552 844.195 530.448C844.195 529.376 844.579 528.512 845.347 527.856C846.131 527.2 847.371 526.872 849.067 526.872H853.075V526.104C853.075 525.016 852.771 524.192 852.163 523.632C851.555 523.056 850.667 522.768 849.499 522.768C848.699 522.768 847.931 522.904 847.195 523.176C846.459 523.432 845.827 523.792 845.299 524.256L844.531 522.984C845.171 522.44 845.939 522.024 846.835 521.736C847.731 521.432 848.675 521.28 849.667 521.28ZM849.067 532.776C850.027 532.776 850.851 532.56 851.539 532.128C852.227 531.68 852.739 531.04 853.075 530.208V528.144H849.115C846.955 528.144 845.875 528.896 845.875 530.4C845.875 531.136 846.155 531.72 846.715 532.152C847.275 532.568 848.059 532.776 849.067 532.776ZM862.791 534.12C861.767 534.12 860.783 533.976 859.839 533.688C858.911 533.384 858.183 533.008 857.655 532.56L858.423 531.216C858.951 531.632 859.615 531.976 860.415 532.248C861.215 532.504 862.047 532.632 862.911 532.632C864.063 532.632 864.911 532.456 865.455 532.104C866.015 531.736 866.295 531.224 866.295 530.568C866.295 530.104 866.143 529.744 865.839 529.488C865.535 529.216 865.151 529.016 864.687 528.888C864.223 528.744 863.607 528.608 862.839 528.48C861.815 528.288 860.991 528.096 860.367 527.904C859.743 527.696 859.207 527.352 858.759 526.872C858.327 526.392 858.111 525.728 858.111 524.88C858.111 523.824 858.551 522.96 859.431 522.288C860.311 521.616 861.535 521.28 863.103 521.28C863.919 521.28 864.735 521.392 865.551 521.616C866.367 521.824 867.039 522.104 867.567 522.456L866.823 523.824C865.783 523.104 864.543 522.744 863.103 522.744C862.015 522.744 861.191 522.936 860.631 523.32C860.087 523.704 859.815 524.208 859.815 524.832C859.815 525.312 859.967 525.696 860.271 525.984C860.591 526.272 860.983 526.488 861.447 526.632C861.911 526.76 862.551 526.896 863.367 527.04C864.375 527.232 865.183 527.424 865.791 527.616C866.399 527.808 866.919 528.136 867.351 528.6C867.783 529.064 867.999 529.704 867.999 530.52C867.999 531.624 867.535 532.504 866.607 533.16C865.695 533.8 864.423 534.12 862.791 534.12ZM874.533 534.12C873.509 534.12 872.525 533.976 871.581 533.688C870.653 533.384 869.925 533.008 869.397 532.56L870.165 531.216C870.693 531.632 871.357 531.976 872.157 532.248C872.957 532.504 873.789 532.632 874.653 532.632C875.805 532.632 876.653 532.456 877.197 532.104C877.757 531.736 878.037 531.224 878.037 530.568C878.037 530.104 877.885 529.744 877.581 529.488C877.277 529.216 876.893 529.016 876.429 528.888C875.965 528.744 875.349 528.608 874.581 528.48C873.557 528.288 872.733 528.096 872.109 527.904C871.485 527.696 870.949 527.352 870.501 526.872C870.069 526.392 869.853 525.728 869.853 524.88C869.853 523.824 870.293 522.96 871.173 522.288C872.053 521.616 873.277 521.28 874.845 521.28C875.661 521.28 876.477 521.392 877.293 521.616C878.109 521.824 878.781 522.104 879.309 522.456L878.565 523.824C877.525 523.104 876.285 522.744 874.845 522.744C873.757 522.744 872.933 522.936 872.373 523.32C871.829 523.704 871.557 524.208 871.557 524.832C871.557 525.312 871.709 525.696 872.013 525.984C872.333 526.272 872.725 526.488 873.189 526.632C873.653 526.76 874.293 526.896 875.109 527.04C876.117 527.232 876.925 527.424 877.533 527.616C878.141 527.808 878.661 528.136 879.093 528.6C879.525 529.064 879.741 529.704 879.741 530.52C879.741 531.624 879.277 532.504 878.349 533.16C877.437 533.8 876.165 534.12 874.533 534.12ZM901.185 521.376L896.409 534H894.801L890.817 523.656L886.833 534H885.225L880.473 521.376H882.105L886.065 532.104L890.121 521.376H891.585L895.617 532.104L899.625 521.376H901.185ZM908.559 534.12C907.343 534.12 906.247 533.848 905.271 533.304C904.295 532.744 903.527 531.976 902.967 531C902.407 530.024 902.127 528.92 902.127 527.688C902.127 526.456 902.407 525.352 902.967 524.376C903.527 523.4 904.295 522.64 905.271 522.096C906.247 521.552 907.343 521.28 908.559 521.28C909.775 521.28 910.871 521.552 911.847 522.096C912.823 522.64 913.583 523.4 914.127 524.376C914.687 525.352 914.967 526.456 914.967 527.688C914.967 528.92 914.687 530.024 914.127 531C913.583 531.976 912.823 532.744 911.847 533.304C910.871 533.848 909.775 534.12 908.559 534.12ZM908.559 532.608C909.455 532.608 910.255 532.408 910.959 532.008C911.679 531.592 912.239 531.008 912.639 530.256C913.039 529.504 913.239 528.648 913.239 527.688C913.239 526.728 913.039 525.872 912.639 525.12C912.239 524.368 911.679 523.792 910.959 523.392C910.255 522.976 909.455 522.768 908.559 522.768C907.663 522.768 906.855 522.976 906.135 523.392C905.431 523.792 904.871 524.368 904.455 525.12C904.055 525.872 903.855 526.728 903.855 527.688C903.855 528.648 904.055 529.504 904.455 530.256C904.871 531.008 905.431 531.592 906.135 532.008C906.855 532.408 907.663 532.608 908.559 532.608ZM920.078 523.848C920.478 523 921.07 522.36 921.854 521.928C922.654 521.496 923.638 521.28 924.806 521.28V522.936L924.398 522.912C923.07 522.912 922.03 523.32 921.278 524.136C920.526 524.952 920.15 526.096 920.15 527.568V534H918.446V521.376H920.078V523.848ZM939.294 516.192V534H937.662V531.504C937.15 532.352 936.47 533 935.622 533.448C934.79 533.896 933.846 534.12 932.79 534.12C931.606 534.12 930.534 533.848 929.574 533.304C928.614 532.76 927.862 532 927.318 531.024C926.774 530.048 926.502 528.936 926.502 527.688C926.502 526.44 926.774 525.328 927.318 524.352C927.862 523.376 928.614 522.624 929.574 522.096C930.534 521.552 931.606 521.28 932.79 521.28C933.814 521.28 934.734 521.496 935.55 521.928C936.382 522.344 937.062 522.96 937.59 523.776V516.192H939.294ZM932.934 532.608C933.814 532.608 934.606 532.408 935.31 532.008C936.03 531.592 936.59 531.008 936.99 530.256C937.406 529.504 937.614 528.648 937.614 527.688C937.614 526.728 937.406 525.872 936.99 525.12C936.59 524.368 936.03 523.792 935.31 523.392C934.606 522.976 933.814 522.768 932.934 522.768C932.038 522.768 931.23 522.976 930.51 523.392C929.806 523.792 929.246 524.368 928.83 525.12C928.43 525.872 928.23 526.728 928.23 527.688C928.23 528.648 928.43 529.504 928.83 530.256C929.246 531.008 929.806 531.592 930.51 532.008C931.23 532.408 932.038 532.608 932.934 532.608Z" fill="black"/>
<rect x="824" y="453" width="494" height="3" fill="#C4C4C4"/>
<path d="M838.616 434.464V436H826.736V419.2H838.256V420.736H828.512V426.712H837.2V428.224H828.512V434.464H838.616ZM858.175 423.28C859.759 423.28 860.999 423.736 861.895 424.648C862.807 425.56 863.263 426.904 863.263 428.68V436H861.559V428.848C861.559 427.536 861.239 426.536 860.599 425.848C859.975 425.16 859.087 424.816 857.935 424.816C856.623 424.816 855.591 425.224 854.839 426.04C854.087 426.84 853.711 427.952 853.711 429.376V436H852.007V428.848C852.007 427.536 851.687 426.536 851.047 425.848C850.423 425.16 849.527 424.816 848.359 424.816C847.063 424.816 846.031 425.224 845.263 426.04C844.511 426.84 844.135 427.952 844.135 429.376V436H842.431V423.376H844.063V425.68C844.511 424.912 845.135 424.32 845.935 423.904C846.735 423.488 847.655 423.28 848.695 423.28C849.751 423.28 850.663 423.504 851.431 423.952C852.215 424.4 852.799 425.064 853.183 425.944C853.647 425.112 854.311 424.464 855.175 424C856.055 423.52 857.055 423.28 858.175 423.28ZM872.3 423.28C873.948 423.28 875.212 423.696 876.092 424.528C876.972 425.344 877.412 426.56 877.412 428.176V436H875.78V434.032C875.396 434.688 874.828 435.2 874.076 435.568C873.34 435.936 872.46 436.12 871.436 436.12C870.028 436.12 868.908 435.784 868.076 435.112C867.244 434.44 866.828 433.552 866.828 432.448C866.828 431.376 867.212 430.512 867.98 429.856C868.764 429.2 870.004 428.872 871.7 428.872H875.708V428.104C875.708 427.016 875.404 426.192 874.796 425.632C874.188 425.056 873.3 424.768 872.132 424.768C871.332 424.768 870.564 424.904 869.828 425.176C869.092 425.432 868.46 425.792 867.932 426.256L867.164 424.984C867.804 424.44 868.572 424.024 869.468 423.736C870.364 423.432 871.308 423.28 872.3 423.28ZM871.7 434.776C872.66 434.776 873.484 434.56 874.172 434.128C874.86 433.68 875.372 433.04 875.708 432.208V430.144H871.748C869.588 430.144 868.508 430.896 868.508 432.4C868.508 433.136 868.788 433.72 869.348 434.152C869.908 434.568 870.692 434.776 871.7 434.776ZM882.04 423.376H883.744V436H882.04V423.376ZM882.904 420.616C882.552 420.616 882.256 420.496 882.016 420.256C881.776 420.016 881.656 419.728 881.656 419.392C881.656 419.072 881.776 418.792 882.016 418.552C882.256 418.312 882.552 418.192 882.904 418.192C883.256 418.192 883.552 418.312 883.792 418.552C884.032 418.776 884.152 419.048 884.152 419.368C884.152 419.72 884.032 420.016 883.792 420.256C883.552 420.496 883.256 420.616 882.904 420.616ZM888.485 418.192H890.189V436H888.485V418.192Z" fill="black"/>
<rect x="826" y="624" width="267" height="60" rx="5" fill="#EE8E39"/>
<path d="M903.016 663.384C901.245 663.384 899.528 663.149 897.864 662.68C896.221 662.189 894.899 661.56 893.896 660.792L895.656 656.888C896.616 657.592 897.757 658.157 899.08 658.584C900.403 659.011 901.725 659.224 903.048 659.224C904.52 659.224 905.608 659.011 906.312 658.584C907.016 658.136 907.368 657.549 907.368 656.824C907.368 656.291 907.155 655.853 906.728 655.512C906.323 655.149 905.789 654.861 905.128 654.648C904.488 654.435 903.613 654.2 902.504 653.944C900.797 653.539 899.4 653.133 898.312 652.728C897.224 652.323 896.285 651.672 895.496 650.776C894.728 649.88 894.344 648.685 894.344 647.192C894.344 645.891 894.696 644.717 895.4 643.672C896.104 642.605 897.16 641.763 898.568 641.144C899.997 640.525 901.736 640.216 903.784 640.216C905.213 640.216 906.611 640.387 907.976 640.728C909.341 641.069 910.536 641.56 911.56 642.2L909.96 646.136C907.891 644.963 905.821 644.376 903.752 644.376C902.301 644.376 901.224 644.611 900.52 645.08C899.837 645.549 899.496 646.168 899.496 646.936C899.496 647.704 899.891 648.28 900.68 648.664C901.491 649.027 902.717 649.389 904.36 649.752C906.067 650.157 907.464 650.563 908.552 650.968C909.64 651.373 910.568 652.013 911.336 652.888C912.125 653.763 912.52 654.947 912.52 656.44C912.52 657.72 912.157 658.893 911.432 659.96C910.728 661.005 909.661 661.837 908.232 662.456C906.803 663.075 905.064 663.384 903.016 663.384ZM915.71 645.784H920.702V663H915.71V645.784ZM918.206 643.384C917.289 643.384 916.542 643.117 915.966 642.584C915.39 642.051 915.102 641.389 915.102 640.6C915.102 639.811 915.39 639.149 915.966 638.616C916.542 638.083 917.289 637.816 918.206 637.816C919.124 637.816 919.87 638.072 920.446 638.584C921.022 639.096 921.31 639.736 921.31 640.504C921.31 641.336 921.022 642.029 920.446 642.584C919.87 643.117 919.124 643.384 918.206 643.384ZM943.095 645.784V660.12C943.095 663.277 942.274 665.624 940.631 667.16C938.989 668.696 936.589 669.464 933.431 669.464C931.767 669.464 930.189 669.261 928.695 668.856C927.202 668.451 925.965 667.864 924.983 667.096L926.967 663.512C927.693 664.109 928.61 664.579 929.719 664.92C930.829 665.283 931.938 665.464 933.047 665.464C934.775 665.464 936.045 665.069 936.855 664.28C937.687 663.512 938.103 662.339 938.103 660.76V660.024C936.802 661.453 934.989 662.168 932.663 662.168C931.085 662.168 929.634 661.827 928.311 661.144C927.01 660.44 925.975 659.459 925.207 658.2C924.439 656.941 924.055 655.491 924.055 653.848C924.055 652.205 924.439 650.755 925.207 649.496C925.975 648.237 927.01 647.267 928.311 646.584C929.634 645.88 931.085 645.528 932.663 645.528C935.159 645.528 937.058 646.349 938.359 647.992V645.784H943.095ZM933.655 658.072C934.978 658.072 936.055 657.688 936.887 656.92C937.741 656.131 938.167 655.107 938.167 653.848C938.167 652.589 937.741 651.576 936.887 650.808C936.055 650.019 934.978 649.624 933.655 649.624C932.333 649.624 931.245 650.019 930.391 650.808C929.538 651.576 929.111 652.589 929.111 653.848C929.111 655.107 929.538 656.131 930.391 656.92C931.245 657.688 932.333 658.072 933.655 658.072ZM958.206 645.528C960.339 645.528 962.056 646.168 963.358 647.448C964.68 648.728 965.342 650.627 965.342 653.144V663H960.35V653.912C960.35 652.547 960.051 651.533 959.454 650.872C958.856 650.189 957.992 649.848 956.862 649.848C955.603 649.848 954.6 650.243 953.854 651.032C953.107 651.8 952.734 652.952 952.734 654.488V663H947.742V645.784H952.51V647.8C953.171 647.075 953.992 646.52 954.974 646.136C955.955 645.731 957.032 645.528 958.206 645.528ZM996.273 645.784V663H991.537V660.952C990.876 661.699 990.086 662.275 989.169 662.68C988.252 663.064 987.26 663.256 986.193 663.256C983.932 663.256 982.14 662.605 980.817 661.304C979.494 660.003 978.833 658.072 978.833 655.512V645.784H983.825V654.776C983.825 657.549 984.988 658.936 987.313 658.936C988.508 658.936 989.468 658.552 990.193 657.784C990.918 656.995 991.281 655.832 991.281 654.296V645.784H996.273ZM1011.07 645.528C1012.67 645.528 1014.12 645.901 1015.43 646.648C1016.75 647.373 1017.78 648.408 1018.53 649.752C1019.28 651.075 1019.65 652.621 1019.65 654.392C1019.65 656.163 1019.28 657.72 1018.53 659.064C1017.78 660.387 1016.75 661.421 1015.43 662.168C1014.12 662.893 1012.67 663.256 1011.07 663.256C1008.88 663.256 1007.15 662.563 1005.89 661.176V669.208H1000.9V645.784H1005.67V647.768C1006.9 646.275 1008.71 645.528 1011.07 645.528ZM1010.21 659.16C1011.49 659.16 1012.54 658.733 1013.35 657.88C1014.18 657.005 1014.59 655.843 1014.59 654.392C1014.59 652.941 1014.18 651.789 1013.35 650.936C1012.54 650.061 1011.49 649.624 1010.21 649.624C1008.93 649.624 1007.87 650.061 1007.04 650.936C1006.23 651.789 1005.83 652.941 1005.83 654.392C1005.83 655.843 1006.23 657.005 1007.04 657.88C1007.87 658.733 1008.93 659.16 1010.21 659.16Z" fill="white"/>
<path d="M842.776 935.2V952H841.024V944.248H830.512V952H828.736V935.2H830.512V942.688H841.024V935.2H842.776ZM852.315 939.28C853.963 939.28 855.227 939.696 856.107 940.528C856.987 941.344 857.427 942.56 857.427 944.176V952H855.795V950.032C855.411 950.688 854.843 951.2 854.091 951.568C853.355 951.936 852.475 952.12 851.451 952.12C850.043 952.12 848.923 951.784 848.091 951.112C847.259 950.44 846.843 949.552 846.843 948.448C846.843 947.376 847.227 946.512 847.995 945.856C848.779 945.2 850.019 944.872 851.715 944.872H855.723V944.104C855.723 943.016 855.419 942.192 854.811 941.632C854.203 941.056 853.315 940.768 852.147 940.768C851.347 940.768 850.579 940.904 849.843 941.176C849.107 941.432 848.475 941.792 847.947 942.256L847.179 940.984C847.819 940.44 848.587 940.024 849.483 939.736C850.379 939.432 851.323 939.28 852.315 939.28ZM851.715 950.776C852.675 950.776 853.499 950.56 854.187 950.128C854.875 949.68 855.387 949.04 855.723 948.208V946.144H851.763C849.603 946.144 848.523 946.896 848.523 948.4C848.523 949.136 848.803 949.72 849.363 950.152C849.923 950.568 850.707 950.776 851.715 950.776ZM872.429 939.376L866.813 952H865.061L859.469 939.376H861.245L865.973 950.128L870.749 939.376H872.429ZM885.47 946.216H874.91C875.006 947.528 875.51 948.592 876.422 949.408C877.334 950.208 878.486 950.608 879.878 950.608C880.662 950.608 881.382 950.472 882.038 950.2C882.694 949.912 883.262 949.496 883.742 948.952L884.702 950.056C884.142 950.728 883.438 951.24 882.59 951.592C881.758 951.944 880.838 952.12 879.83 952.12C878.534 952.12 877.382 951.848 876.374 951.304C875.382 950.744 874.606 949.976 874.046 949C873.486 948.024 873.206 946.92 873.206 945.688C873.206 944.456 873.47 943.352 873.998 942.376C874.542 941.4 875.278 940.64 876.206 940.096C877.15 939.552 878.206 939.28 879.374 939.28C880.542 939.28 881.59 939.552 882.518 940.096C883.446 940.64 884.174 941.4 884.702 942.376C885.23 943.336 885.494 944.44 885.494 945.688L885.47 946.216ZM879.374 940.744C878.158 940.744 877.134 941.136 876.302 941.92C875.486 942.688 875.022 943.696 874.91 944.944H883.862C883.75 943.696 883.278 942.688 882.446 941.92C881.63 941.136 880.606 940.744 879.374 940.744ZM899.659 939.28C901.307 939.28 902.571 939.696 903.451 940.528C904.331 941.344 904.771 942.56 904.771 944.176V952H903.139V950.032C902.755 950.688 902.187 951.2 901.435 951.568C900.699 951.936 899.819 952.12 898.795 952.12C897.387 952.12 896.267 951.784 895.435 951.112C894.603 950.44 894.187 949.552 894.187 948.448C894.187 947.376 894.571 946.512 895.339 945.856C896.123 945.2 897.363 944.872 899.059 944.872H903.067V944.104C903.067 943.016 902.763 942.192 902.155 941.632C901.547 941.056 900.659 940.768 899.491 940.768C898.691 940.768 897.923 940.904 897.187 941.176C896.451 941.432 895.819 941.792 895.291 942.256L894.523 940.984C895.163 940.44 895.931 940.024 896.827 939.736C897.723 939.432 898.667 939.28 899.659 939.28ZM899.059 950.776C900.019 950.776 900.843 950.56 901.531 950.128C902.219 949.68 902.731 949.04 903.067 948.208V946.144H899.107C896.947 946.144 895.867 946.896 895.867 948.4C895.867 949.136 896.147 949.72 896.707 950.152C897.267 950.568 898.051 950.776 899.059 950.776ZM915.831 939.28C917.415 939.28 918.671 939.744 919.599 940.672C920.543 941.584 921.015 942.92 921.015 944.68V952H919.311V944.848C919.311 943.536 918.983 942.536 918.327 941.848C917.671 941.16 916.735 940.816 915.519 940.816C914.159 940.816 913.079 941.224 912.279 942.04C911.495 942.84 911.103 943.952 911.103 945.376V952H909.399V939.376H911.031V941.704C911.495 940.936 912.135 940.344 912.951 939.928C913.783 939.496 914.743 939.28 915.831 939.28ZM936.339 939.28C937.987 939.28 939.251 939.696 940.131 940.528C941.011 941.344 941.451 942.56 941.451 944.176V952H939.819V950.032C939.435 950.688 938.867 951.2 938.115 951.568C937.379 951.936 936.499 952.12 935.475 952.12C934.067 952.12 932.947 951.784 932.115 951.112C931.283 950.44 930.867 949.552 930.867 948.448C930.867 947.376 931.251 946.512 932.019 945.856C932.803 945.2 934.043 944.872 935.739 944.872H939.747V944.104C939.747 943.016 939.443 942.192 938.835 941.632C938.227 941.056 937.339 940.768 936.171 940.768C935.371 940.768 934.603 940.904 933.867 941.176C933.131 941.432 932.499 941.792 931.971 942.256L931.203 940.984C931.843 940.44 932.611 940.024 933.507 939.736C934.403 939.432 935.347 939.28 936.339 939.28ZM935.739 950.776C936.699 950.776 937.523 950.56 938.211 950.128C938.899 949.68 939.411 949.04 939.747 948.208V946.144H935.787C933.627 946.144 932.547 946.896 932.547 948.4C932.547 949.136 932.827 949.72 933.387 950.152C933.947 950.568 934.731 950.776 935.739 950.776ZM951.358 952.12C950.11 952.12 948.99 951.848 947.998 951.304C947.022 950.76 946.254 950 945.694 949.024C945.134 948.032 944.854 946.92 944.854 945.688C944.854 944.456 945.134 943.352 945.694 942.376C946.254 941.4 947.022 940.64 947.998 940.096C948.99 939.552 950.11 939.28 951.358 939.28C952.446 939.28 953.414 939.496 954.262 939.928C955.126 940.344 955.806 940.96 956.302 941.776L955.03 942.64C954.614 942.016 954.086 941.552 953.446 941.248C952.806 940.928 952.11 940.768 951.358 940.768C950.446 940.768 949.622 940.976 948.886 941.392C948.166 941.792 947.598 942.368 947.182 943.12C946.782 943.872 946.582 944.728 946.582 945.688C946.582 946.664 946.782 947.528 947.182 948.28C947.598 949.016 948.166 949.592 948.886 950.008C949.622 950.408 950.446 950.608 951.358 950.608C952.11 950.608 952.806 950.456 953.446 950.152C954.086 949.848 954.614 949.384 955.03 948.76L956.302 949.624C955.806 950.44 955.126 951.064 954.262 951.496C953.398 951.912 952.43 952.12 951.358 952.12ZM964.671 952.12C963.423 952.12 962.303 951.848 961.311 951.304C960.335 950.76 959.567 950 959.007 949.024C958.447 948.032 958.167 946.92 958.167 945.688C958.167 944.456 958.447 943.352 959.007 942.376C959.567 941.4 960.335 940.64 961.311 940.096C962.303 939.552 963.423 939.28 964.671 939.28C965.759 939.28 966.727 939.496 967.575 939.928C968.439 940.344 969.119 940.96 969.615 941.776L968.343 942.64C967.927 942.016 967.399 941.552 966.759 941.248C966.119 940.928 965.423 940.768 964.671 940.768C963.759 940.768 962.935 940.976 962.199 941.392C961.479 941.792 960.911 942.368 960.495 943.12C960.095 943.872 959.895 944.728 959.895 945.688C959.895 946.664 960.095 947.528 960.495 948.28C960.911 949.016 961.479 949.592 962.199 950.008C962.935 950.408 963.759 950.608 964.671 950.608C965.423 950.608 966.119 950.456 966.759 950.152C967.399 949.848 967.927 949.384 968.343 948.76L969.615 949.624C969.119 950.44 968.439 951.064 967.575 951.496C966.711 951.912 965.743 952.12 964.671 952.12ZM977.911 952.12C976.695 952.12 975.599 951.848 974.623 951.304C973.647 950.744 972.879 949.976 972.319 949C971.759 948.024 971.479 946.92 971.479 945.688C971.479 944.456 971.759 943.352 972.319 942.376C972.879 941.4 973.647 940.64 974.623 940.096C975.599 939.552 976.695 939.28 977.911 939.28C979.127 939.28 980.223 939.552 981.199 940.096C982.175 940.64 982.935 941.4 983.479 942.376C984.039 943.352 984.319 944.456 984.319 945.688C984.319 946.92 984.039 948.024 983.479 949C982.935 949.976 982.175 950.744 981.199 951.304C980.223 951.848 979.127 952.12 977.911 952.12ZM977.911 950.608C978.807 950.608 979.607 950.408 980.311 950.008C981.031 949.592 981.591 949.008 981.991 948.256C982.391 947.504 982.591 946.648 982.591 945.688C982.591 944.728 982.391 943.872 981.991 943.12C981.591 942.368 981.031 941.792 980.311 941.392C979.607 940.976 978.807 940.768 977.911 940.768C977.015 940.768 976.207 940.976 975.487 941.392C974.783 941.792 974.223 942.368 973.807 943.12C973.407 943.872 973.207 944.728 973.207 945.688C973.207 946.648 973.407 947.504 973.807 948.256C974.223 949.008 974.783 949.592 975.487 950.008C976.207 950.408 977.015 950.608 977.911 950.608ZM999.174 939.376V952H997.542V949.696C997.094 950.464 996.478 951.064 995.694 951.496C994.91 951.912 994.014 952.12 993.006 952.12C991.358 952.12 990.054 951.664 989.094 950.752C988.15 949.824 987.678 948.472 987.678 946.696V939.376H989.382V946.528C989.382 947.856 989.71 948.864 990.366 949.552C991.022 950.24 991.958 950.584 993.174 950.584C994.502 950.584 995.55 950.184 996.318 949.384C997.086 948.568 997.47 947.44 997.47 946V939.376H999.174ZM1010.38 939.28C1011.96 939.28 1013.22 939.744 1014.15 940.672C1015.09 941.584 1015.56 942.92 1015.56 944.68V952H1013.86V944.848C1013.86 943.536 1013.53 942.536 1012.87 941.848C1012.22 941.16 1011.28 940.816 1010.07 940.816C1008.71 940.816 1007.63 941.224 1006.83 942.04C1006.04 942.84 1005.65 943.952 1005.65 945.376V952H1003.95V939.376H1005.58V941.704C1006.04 940.936 1006.68 940.344 1007.5 939.928C1008.33 939.496 1009.29 939.28 1010.38 939.28ZM1026.84 951.232C1026.52 951.52 1026.12 951.744 1025.64 951.904C1025.17 952.048 1024.68 952.12 1024.17 952.12C1022.99 952.12 1022.08 951.8 1021.44 951.16C1020.8 950.52 1020.48 949.616 1020.48 948.448V940.816H1018.22V939.376H1020.48V936.616H1022.18V939.376H1026.02V940.816H1022.18V948.352C1022.18 949.104 1022.36 949.68 1022.73 950.08C1023.12 950.464 1023.66 950.656 1024.36 950.656C1024.72 950.656 1025.05 950.6 1025.37 950.488C1025.71 950.376 1026 950.216 1026.24 950.008L1026.84 951.232ZM1032.78 946.96C1032.78 946.304 1032.88 945.728 1033.09 945.232C1033.32 944.736 1033.59 944.312 1033.91 943.96C1034.23 943.608 1034.64 943.208 1035.16 942.76C1035.84 942.152 1036.35 941.624 1036.67 941.176C1037 940.712 1037.17 940.152 1037.17 939.496C1037.17 938.616 1036.83 937.912 1036.14 937.384C1035.45 936.84 1034.51 936.568 1033.31 936.568C1031.32 936.568 1029.8 937.216 1028.72 938.512L1027.45 937.552C1028.81 935.888 1030.8 935.056 1033.43 935.056C1035.11 935.056 1036.44 935.432 1037.44 936.184C1038.44 936.936 1038.95 937.952 1038.95 939.232C1038.95 939.888 1038.84 940.472 1038.61 940.984C1038.4 941.48 1038.14 941.904 1037.82 942.256C1037.52 942.608 1037.11 943.016 1036.6 943.48C1035.91 944.104 1035.4 944.664 1035.06 945.16C1034.72 945.64 1034.56 946.24 1034.56 946.96H1032.78ZM1033.67 952.12C1033.32 952.12 1033.02 952 1032.78 951.76C1032.54 951.504 1032.42 951.208 1032.42 950.872C1032.42 950.52 1032.54 950.232 1032.78 950.008C1033.02 949.768 1033.32 949.648 1033.67 949.648C1034.04 949.648 1034.34 949.768 1034.58 950.008C1034.82 950.232 1034.94 950.52 1034.94 950.872C1034.94 951.208 1034.81 951.504 1034.56 951.76C1034.32 952 1034.02 952.12 1033.67 952.12ZM1048.13 952.144C1046.88 952.144 1045.68 951.944 1044.53 951.544C1043.39 951.144 1042.51 950.616 1041.89 949.96L1042.58 948.592C1043.19 949.2 1044 949.696 1045.01 950.08C1046.01 950.448 1047.05 950.632 1048.13 950.632C1049.63 950.632 1050.76 950.36 1051.51 949.816C1052.26 949.256 1052.64 948.536 1052.64 947.656C1052.64 946.984 1052.43 946.448 1052.01 946.048C1051.61 945.648 1051.12 945.344 1050.53 945.136C1049.93 944.912 1049.11 944.672 1048.05 944.416C1046.79 944.096 1045.78 943.792 1045.03 943.504C1044.28 943.2 1043.63 942.744 1043.09 942.136C1042.56 941.528 1042.29 940.704 1042.29 939.664C1042.29 938.816 1042.52 938.048 1042.97 937.36C1043.41 936.656 1044.1 936.096 1045.03 935.68C1045.96 935.264 1047.11 935.056 1048.49 935.056C1049.45 935.056 1050.38 935.192 1051.29 935.464C1052.22 935.72 1053.02 936.08 1053.69 936.544L1053.09 937.96C1052.39 937.496 1051.64 937.152 1050.84 936.928C1050.04 936.688 1049.25 936.568 1048.49 936.568C1047.01 936.568 1045.9 936.856 1045.15 937.432C1044.41 937.992 1044.05 938.72 1044.05 939.616C1044.05 940.288 1044.25 940.832 1044.65 941.248C1045.06 941.648 1045.57 941.96 1046.18 942.184C1046.81 942.392 1047.64 942.624 1048.68 942.88C1049.91 943.184 1050.9 943.488 1051.65 943.792C1052.42 944.08 1053.07 944.528 1053.6 945.136C1054.13 945.728 1054.39 946.536 1054.39 947.56C1054.39 948.408 1054.16 949.184 1053.69 949.888C1053.25 950.576 1052.55 951.128 1051.61 951.544C1050.66 951.944 1049.5 952.144 1048.13 952.144ZM1057.9 939.376H1059.6V952H1057.9V939.376ZM1058.76 936.616C1058.41 936.616 1058.12 936.496 1057.88 936.256C1057.64 936.016 1057.52 935.728 1057.52 935.392C1057.52 935.072 1057.64 934.792 1057.88 934.552C1058.12 934.312 1058.41 934.192 1058.76 934.192C1059.12 934.192 1059.41 934.312 1059.65 934.552C1059.89 934.776 1060.01 935.048 1060.01 935.368C1060.01 935.72 1059.89 936.016 1059.65 936.256C1059.41 936.496 1059.12 936.616 1058.76 936.616ZM1076.03 939.376V950.464C1076.03 952.608 1075.5 954.192 1074.45 955.216C1073.41 956.256 1071.83 956.776 1069.72 956.776C1068.55 956.776 1067.44 956.6 1066.38 956.248C1065.34 955.912 1064.5 955.44 1063.84 954.832L1064.7 953.536C1065.31 954.08 1066.05 954.504 1066.91 954.808C1067.79 955.112 1068.71 955.264 1069.67 955.264C1071.27 955.264 1072.45 954.888 1073.2 954.136C1073.95 953.4 1074.33 952.248 1074.33 950.68V949.072C1073.8 949.872 1073.1 950.48 1072.24 950.896C1071.39 951.312 1070.45 951.52 1069.41 951.52C1068.22 951.52 1067.14 951.264 1066.17 950.752C1065.21 950.224 1064.45 949.496 1063.89 948.568C1063.34 947.624 1063.07 946.56 1063.07 945.376C1063.07 944.192 1063.34 943.136 1063.89 942.208C1064.45 941.28 1065.21 940.56 1066.17 940.048C1067.13 939.536 1068.21 939.28 1069.41 939.28C1070.48 939.28 1071.45 939.496 1072.31 939.928C1073.18 940.36 1073.87 940.984 1074.4 941.8V939.376H1076.03ZM1069.58 950.008C1070.49 950.008 1071.31 949.816 1072.05 949.432C1072.78 949.032 1073.35 948.48 1073.75 947.776C1074.17 947.072 1074.38 946.272 1074.38 945.376C1074.38 944.48 1074.17 943.688 1073.75 943C1073.35 942.296 1072.78 941.752 1072.05 941.368C1071.33 940.968 1070.5 940.768 1069.58 940.768C1068.66 940.768 1067.84 940.96 1067.1 941.344C1066.38 941.728 1065.82 942.272 1065.4 942.976C1065 943.68 1064.8 944.48 1064.8 945.376C1064.8 946.272 1065 947.072 1065.4 947.776C1065.82 948.48 1066.38 949.032 1067.1 949.432C1067.84 949.816 1068.66 950.008 1069.58 950.008ZM1087.23 939.28C1088.81 939.28 1090.07 939.744 1091 940.672C1091.94 941.584 1092.41 942.92 1092.41 944.68V952H1090.71V944.848C1090.71 943.536 1090.38 942.536 1089.73 941.848C1089.07 941.16 1088.13 940.816 1086.92 940.816C1085.56 940.816 1084.48 941.224 1083.68 942.04C1082.89 942.84 1082.5 943.952 1082.5 945.376V952H1080.8V939.376H1082.43V941.704C1082.89 940.936 1083.53 940.344 1084.35 939.928C1085.18 939.496 1086.14 939.28 1087.23 939.28ZM1103.32 939.376H1105.03V952H1103.32V939.376ZM1104.19 936.616C1103.83 936.616 1103.54 936.496 1103.3 936.256C1103.06 936.016 1102.94 935.728 1102.94 935.392C1102.94 935.072 1103.06 934.792 1103.3 934.552C1103.54 934.312 1103.83 934.192 1104.19 934.192C1104.54 934.192 1104.83 934.312 1105.07 934.552C1105.31 934.776 1105.43 935.048 1105.43 935.368C1105.43 935.72 1105.31 936.016 1105.07 936.256C1104.83 936.496 1104.54 936.616 1104.19 936.616ZM1116.2 939.28C1117.78 939.28 1119.04 939.744 1119.97 940.672C1120.91 941.584 1121.38 942.92 1121.38 944.68V952H1119.68V944.848C1119.68 943.536 1119.35 942.536 1118.69 941.848C1118.04 941.16 1117.1 940.816 1115.89 940.816C1114.53 940.816 1113.45 941.224 1112.65 942.04C1111.86 942.84 1111.47 943.952 1111.47 945.376V952H1109.77V939.376H1111.4V941.704C1111.86 940.936 1112.5 940.344 1113.32 939.928C1114.15 939.496 1115.11 939.28 1116.2 939.28Z" fill="black"/>
</svg>
